SplineFontDB: 3.0
FontName: AndikaBasic
FullName: Andika Basic
FamilyName: Andika Basic
Weight: Book
Copyright: Copyright (c) 2004-2008, SIL International (http://www.sil.org/). Licensed under the SIL Open Font License, Version 1.1 (http://scripts.sil.org/OFL), with Reserved Font Names "Andika" and "SIL".
Version: 1.000
ItalicAngle: 0
UnderlinePosition: -70
UnderlineWidth: 80
Ascent: 1638
Descent: 410
sfntRevision: 0x00010000
LayerCount: 2
Layer: 0 1 "Back"  1
Layer: 1 1 "Fore"  0
XUID: [1021 288 713564382 15273938]
FSType: 0
OS2Version: 3
OS2_WeightWidthSlopeOnly: 0
OS2_UseTypoMetrics: 1
CreationTime: 1208905966
ModificationTime: 1309536109
PfmFamily: 17
TTFWeight: 400
TTFWidth: 5
LineGap: 0
VLineGap: 0
Panose: 2 0 0 0 0 0 0 0 0 0
OS2TypoAscent: 2620
OS2TypoAOffset: 0
OS2TypoDescent: -505
OS2TypoDOffset: 0
OS2TypoLinegap: 0
OS2WinAscent: 2620
OS2WinAOffset: 0
OS2WinDescent: 505
OS2WinDOffset: 0
HheadAscent: 2620
HheadAOffset: 0
HheadDescent: -505
HheadDOffset: 0
OS2SubXSize: 1433
OS2SubYSize: 1331
OS2SubXOff: 0
OS2SubYOff: 286
OS2SupXSize: 1433
OS2SupYSize: 1331
OS2SupXOff: 0
OS2SupYOff: 976
OS2StrikeYSize: 100
OS2StrikeYPos: 700
OS2Vendor: 'SIL '
OS2CodePages: 00000001.00000000
OS2UnicodeRanges: a00000ff.4000204a.00000000.00000000
Lookup: 5 0 0 "'ccmp' Glyph Composition/Decomposition lookup 0"  {"'ccmp' Glyph Composition/Decomposition lookup 0 subtable"  } ['ccmp' ('cyrl' <'dflt' > 'latn' <'IPA ' 'VIT ' 'dflt' > ) ]
Lookup: 1 0 0 "Single Substitution lookup 1"  {"Single Substitution lookup 1 subtable"  } []
Lookup: 2 0 0 "Multiple Substitution lookup 2"  {"Multiple Substitution lookup 2 subtable"  } []
Lookup: 4 0 0 "'ccmp' Glyph Composition/Decomposition lookup 3"  {"'ccmp' Glyph Composition/Decomposition lookup 3 subtable"  } ['ccmp' ('cyrl' <'dflt' > 'latn' <'IPA ' 'VIT ' 'dflt' > ) ]
Lookup: 4 256 0 "'ccmp' Glyph Composition/Decomposition in Latin lookup 4"  {"'ccmp' Glyph Composition/Decomposition in Latin lookup 4 subtable"  } ['ccmp' ('latn' <'VIT ' > ) ]

StartChar: .notdef
Encoding: 65536 -1 0
Width: 1400
Flags: W
LayerCount: 2
Fore
SplineSet
150 50 m 1,0,-1
 1250 50 l 1,1,-1
 1250 1750 l 1,2,-1
 150 1750 l 1,3,-1
 150 50 l 1,0,-1
100 1800 m 1,4,-1
 1300 1800 l 1,5,-1
 1300 0 l 1,6,-1
 100 0 l 1,7,-1
 100 1800 l 1,4,-1
EndSplineSet
EndChar

StartChar: exclam
Encoding: 33 33 4
Width: 764
Flags: W
LayerCount: 2
Fore
SplineSet
225 110 m 256,0,1
 225 138 225 138 235.5 162.5 c 128,-1,2
 246 187 246 187 264.5 205.5 c 128,-1,3
 283 224 283 224 307.5 234.5 c 128,-1,4
 332 245 332 245 360 245 c 256,5,6
 388 245 388 245 412.5 234.5 c 128,-1,7
 437 224 437 224 455.5 205.5 c 128,-1,8
 474 187 474 187 484.5 162.5 c 128,-1,9
 495 138 495 138 495 110 c 256,10,11
 495 82 495 82 484.5 57.5 c 128,-1,12
 474 33 474 33 455.5 14.5 c 128,-1,13
 437 -4 437 -4 412.5 -14.5 c 128,-1,14
 388 -25 388 -25 360 -25 c 256,15,16
 332 -25 332 -25 307.5 -14.5 c 128,-1,17
 283 -4 283 -4 264.5 14.5 c 128,-1,18
 246 33 246 33 235.5 57.5 c 128,-1,19
 225 82 225 82 225 110 c 256,0,1
275 440 m 1,20,21
 272 549 272 549 271 668.5 c 128,-1,22
 270 788 270 788 266.5 921 c 128,-1,23
 263 1054 263 1054 256 1200.5 c 128,-1,24
 249 1347 249 1347 235 1510 c 1,25,-1
 490 1510 l 1,26,27
 475 1347 475 1347 468 1200.5 c 128,-1,28
 461 1054 461 1054 457.5 921 c 128,-1,29
 454 788 454 788 453 668.5 c 128,-1,30
 452 549 452 549 450 440 c 1,31,-1
 275 440 l 1,20,21
EndSplineSet
EndChar

StartChar: quotedbl
Encoding: 34 34 5
Width: 1025
Flags: W
LayerCount: 2
Fore
SplineSet
620 1045 m 1,0,1
 618 1098 618 1098 616 1154.5 c 128,-1,2
 614 1211 614 1211 610 1276 c 128,-1,3
 606 1341 606 1341 599 1417 c 128,-1,4
 592 1493 592 1493 580 1585 c 1,5,-1
 785 1585 l 1,6,7
 774 1493 774 1493 767 1417 c 128,-1,8
 760 1341 760 1341 756 1276 c 128,-1,9
 752 1211 752 1211 749.5 1154.5 c 128,-1,10
 747 1098 747 1098 745 1045 c 1,11,-1
 620 1045 l 1,0,1
280 1045 m 1,12,13
 278 1098 278 1098 276 1154.5 c 128,-1,14
 274 1211 274 1211 270 1276 c 128,-1,15
 266 1341 266 1341 259 1417 c 128,-1,16
 252 1493 252 1493 240 1585 c 1,17,-1
 445 1585 l 1,18,19
 434 1493 434 1493 427 1417 c 128,-1,20
 420 1341 420 1341 416 1276 c 128,-1,21
 412 1211 412 1211 409.5 1154.5 c 128,-1,22
 407 1098 407 1098 405 1045 c 1,23,-1
 280 1045 l 1,12,13
EndSplineSet
EndChar

StartChar: numbersign
Encoding: 35 35 6
Width: 1200
Flags: W
LayerCount: 2
Fore
SplineSet
427 725 m 1,0,-1
 702 725 l 1,1,-1
 769 960 l 1,2,-1
 494 960 l 1,3,-1
 427 725 l 1,0,-1
84 1110 m 1,4,-1
 387 1110 l 1,5,-1
 487 1460 l 1,6,-1
 637 1460 l 1,7,-1
 537 1110 l 1,8,-1
 812 1110 l 1,9,-1
 912 1460 l 1,10,-1
 1062 1460 l 1,11,-1
 962 1110 l 1,12,-1
 1175 1110 l 1,13,-1
 1175 960 l 1,14,-1
 919 960 l 1,15,-1
 852 725 l 1,16,-1
 1116 725 l 1,17,-1
 1116 575 l 1,18,-1
 809 575 l 1,19,-1
 702 200 l 1,20,-1
 552 200 l 1,21,-1
 659 575 l 1,22,-1
 384 575 l 1,23,-1
 277 200 l 1,24,-1
 127 200 l 1,25,-1
 234 575 l 1,26,-1
 25 575 l 1,27,-1
 25 725 l 1,28,-1
 277 725 l 1,29,-1
 344 960 l 1,30,-1
 84 960 l 1,31,-1
 84 1110 l 1,4,-1
EndSplineSet
EndChar

StartChar: dollar
Encoding: 36 36 7
Width: 1200
Flags: W
LayerCount: 2
Fore
SplineSet
365 1030 m 0,0,1
 365 998 365 998 372 972 c 128,-1,2
 379 946 379 946 399 922.5 c 128,-1,3
 419 899 419 899 456 877.5 c 128,-1,4
 493 856 493 856 553 834 c 1,5,-1
 553 1222 l 1,6,7
 510 1214 510 1214 475.5 1195 c 128,-1,8
 441 1176 441 1176 416.5 1150.5 c 128,-1,9
 392 1125 392 1125 378.5 1094 c 128,-1,10
 365 1063 365 1063 365 1030 c 0,0,1
871 396 m 0,11,12
 871 425 871 425 864 451.5 c 128,-1,13
 857 478 857 478 836.5 503.5 c 128,-1,14
 816 529 816 529 779.5 553.5 c 128,-1,15
 743 578 743 578 683 603 c 1,16,-1
 683 174 l 1,17,18
 723 185 723 185 757 204.5 c 128,-1,19
 791 224 791 224 816.5 252 c 128,-1,20
 842 280 842 280 856.5 316 c 128,-1,21
 871 352 871 352 871 396 c 0,11,12
949 1127 m 1,22,23
 871 1170 871 1170 809 1193 c 128,-1,24
 747 1216 747 1216 683 1224 c 1,25,-1
 683 791 l 1,26,27
 771 764 771 764 838.5 729.5 c 128,-1,28
 906 695 906 695 952 649 c 128,-1,29
 998 603 998 603 1022 545 c 128,-1,30
 1046 487 1046 487 1046 414 c 0,31,32
 1046 333 1046 333 1018 265 c 128,-1,33
 990 197 990 197 941.5 144.5 c 128,-1,34
 893 92 893 92 826.5 57 c 128,-1,35
 760 22 760 22 683 8 c 1,36,-1
 683 -220 l 1,37,-1
 553 -220 l 1,38,-1
 553 0 l 1,39,40
 491 2 491 2 433 12 c 128,-1,41
 375 22 375 22 324 38.5 c 128,-1,42
 273 55 273 55 229.5 76.5 c 128,-1,43
 186 98 186 98 153 124 c 1,44,-1
 195 313 l 1,45,46
 279 239 279 239 369 203 c 128,-1,47
 459 167 459 167 553 162 c 1,48,-1
 553 649 l 1,49,50
 545 651 545 651 540 653 c 0,51,52
 432 685 432 685 364 724 c 128,-1,53
 296 763 296 763 257.5 808.5 c 128,-1,54
 219 854 219 854 204.5 906 c 128,-1,55
 190 958 190 958 190 1017 c 0,56,57
 190 1071 190 1071 210.5 1131 c 128,-1,58
 231 1191 231 1191 275.5 1243.5 c 128,-1,59
 320 1296 320 1296 388.5 1335 c 128,-1,60
 457 1374 457 1374 553 1385 c 1,61,-1
 553 1600 l 1,62,-1
 683 1600 l 1,63,-1
 683 1387 l 1,64,65
 766 1382 766 1382 837.5 1362.5 c 128,-1,66
 909 1343 909 1343 986 1306 c 1,67,-1
 949 1127 l 1,22,23
EndSplineSet
EndChar

StartChar: percent
Encoding: 37 37 8
Width: 1526
Flags: W
LayerCount: 2
Fore
SplineSet
690 1089 m 0,0,1
 690 978 690 978 667.5 901 c 128,-1,2
 645 824 645 824 605.5 776 c 128,-1,3
 566 728 566 728 511 706.5 c 128,-1,4
 456 685 456 685 390 685 c 256,5,6
 324 685 324 685 270.5 706.5 c 128,-1,7
 217 728 217 728 179 775.5 c 128,-1,8
 141 823 141 823 120.5 897.5 c 128,-1,9
 100 972 100 972 100 1078 c 256,10,11
 100 1184 100 1184 122 1260 c 128,-1,12
 144 1336 144 1336 184 1385 c 128,-1,13
 224 1434 224 1434 279 1457 c 128,-1,14
 334 1480 334 1480 399 1480 c 0,15,16
 465 1480 465 1480 518.5 1457.5 c 128,-1,17
 572 1435 572 1435 610 1387 c 128,-1,18
 648 1339 648 1339 669 1265 c 128,-1,19
 690 1191 690 1191 690 1089 c 0,0,1
525 1076 m 0,20,21
 525 1151 525 1151 517.5 1201.5 c 128,-1,22
 510 1252 510 1252 494 1283 c 128,-1,23
 478 1314 478 1314 453 1327 c 128,-1,24
 428 1340 428 1340 394 1340 c 0,25,26
 361 1340 361 1340 337 1327 c 128,-1,27
 313 1314 313 1314 297 1284.5 c 128,-1,28
 281 1255 281 1255 273 1207.5 c 128,-1,29
 265 1160 265 1160 265 1091 c 0,30,31
 265 1016 265 1016 272.5 965 c 128,-1,32
 280 914 280 914 296 883 c 128,-1,33
 312 852 312 852 336.5 838.5 c 128,-1,34
 361 825 361 825 394 825 c 0,35,36
 426 825 426 825 450.5 838.5 c 128,-1,37
 475 852 475 852 491.5 881.5 c 128,-1,38
 508 911 508 911 516.5 959 c 128,-1,39
 525 1007 525 1007 525 1076 c 0,20,21
1239 1480 m 1,40,-1
 459 -25 l 1,41,-1
 291 -25 l 1,42,-1
 1073 1480 l 1,43,-1
 1239 1480 l 1,40,-1
1426 379 m 0,44,45
 1426 268 1426 268 1403.5 191 c 128,-1,46
 1381 114 1381 114 1341.5 66 c 128,-1,47
 1302 18 1302 18 1247 -3.5 c 128,-1,48
 1192 -25 1192 -25 1126 -25 c 256,49,50
 1060 -25 1060 -25 1006.5 -3.5 c 128,-1,51
 953 18 953 18 915 65.5 c 128,-1,52
 877 113 877 113 856.5 187.5 c 128,-1,53
 836 262 836 262 836 368 c 256,54,55
 836 474 836 474 858 550 c 128,-1,56
 880 626 880 626 920 675 c 128,-1,57
 960 724 960 724 1015 747 c 128,-1,58
 1070 770 1070 770 1135 770 c 0,59,60
 1201 770 1201 770 1254.5 747.5 c 128,-1,61
 1308 725 1308 725 1346 677 c 128,-1,62
 1384 629 1384 629 1405 555 c 128,-1,63
 1426 481 1426 481 1426 379 c 0,44,45
1261 366 m 0,64,65
 1261 441 1261 441 1253.5 491.5 c 128,-1,66
 1246 542 1246 542 1230 573 c 128,-1,67
 1214 604 1214 604 1189 617 c 128,-1,68
 1164 630 1164 630 1130 630 c 0,69,70
 1097 630 1097 630 1073 617 c 128,-1,71
 1049 604 1049 604 1033 574.5 c 128,-1,72
 1017 545 1017 545 1009 497.5 c 128,-1,73
 1001 450 1001 450 1001 381 c 0,74,75
 1001 306 1001 306 1008.5 255 c 128,-1,76
 1016 204 1016 204 1032 173 c 128,-1,77
 1048 142 1048 142 1072.5 128.5 c 128,-1,78
 1097 115 1097 115 1130 115 c 0,79,80
 1162 115 1162 115 1186.5 128.5 c 128,-1,81
 1211 142 1211 142 1227.5 171.5 c 128,-1,82
 1244 201 1244 201 1252.5 249 c 128,-1,83
 1261 297 1261 297 1261 366 c 0,64,65
EndSplineSet
EndChar

StartChar: ampersand
Encoding: 38 38 9
Width: 1222
Flags: W
LayerCount: 2
Fore
SplineSet
315 1200 m 0,0,1
 315 1146 315 1146 354 1081.5 c 128,-1,2
 393 1017 393 1017 453 939 c 1,3,4
 537 1023 537 1023 583.5 1087.5 c 128,-1,5
 630 1152 630 1152 630 1205 c 0,6,7
 630 1238 630 1238 617 1265 c 128,-1,8
 604 1292 604 1292 582.5 1311 c 128,-1,9
 561 1330 561 1330 533 1340 c 128,-1,10
 505 1350 505 1350 475 1350 c 0,11,12
 446 1350 446 1350 417.5 1339.5 c 128,-1,13
 389 1329 389 1329 366 1309.5 c 128,-1,14
 343 1290 343 1290 329 1262 c 128,-1,15
 315 1234 315 1234 315 1200 c 0,0,1
535 570 m 1,16,17
 509 605 509 605 483.5 639 c 128,-1,18
 458 673 458 673 432 706 c 1,19,20
 377 656 377 656 338.5 613 c 128,-1,21
 300 570 300 570 276 531 c 128,-1,22
 252 492 252 492 241 455 c 128,-1,23
 230 418 230 418 230 380 c 0,24,25
 230 338 230 338 245 296.5 c 128,-1,26
 260 255 260 255 288.5 222.5 c 128,-1,27
 317 190 317 190 359 170 c 128,-1,28
 401 150 401 150 455 150 c 0,29,30
 486 150 486 150 521 160 c 128,-1,31
 556 170 556 170 593 188 c 128,-1,32
 630 206 630 206 667.5 230.5 c 128,-1,33
 705 255 705 255 741 284 c 1,34,35
 695 346 695 346 643.5 417.5 c 128,-1,36
 592 489 592 489 535 570 c 1,16,17
490 1485 m 0,37,38
 547 1485 547 1485 601 1466 c 128,-1,39
 655 1447 655 1447 697 1410.5 c 128,-1,40
 739 1374 739 1374 764.5 1321 c 128,-1,41
 790 1268 790 1268 790 1200 c 0,42,43
 790 1158 790 1158 772.5 1111.5 c 128,-1,44
 755 1065 755 1065 723 1016 c 128,-1,45
 691 967 691 967 647 916 c 128,-1,46
 603 865 603 865 551 814 c 1,47,48
 576 782 576 782 600.5 748.5 c 128,-1,49
 625 715 625 715 650 680 c 0,50,51
 708 595 708 595 759.5 524 c 128,-1,52
 811 453 811 453 857 393 c 1,53,54
 898 438 898 438 928.5 483.5 c 128,-1,55
 959 529 959 529 975 570 c 1,56,-1
 1080 435 l 1,57,58
 1062 399 1062 399 1031.5 355 c 128,-1,59
 1001 311 1001 311 959 265 c 1,60,61
 1031 181 1031 181 1084 133.5 c 128,-1,62
 1137 86 1137 86 1175 70 c 1,63,64
 1161 58 1161 58 1141 41.5 c 128,-1,65
 1121 25 1121 25 1099.5 10.5 c 128,-1,66
 1078 -4 1078 -4 1058 -14.5 c 128,-1,67
 1038 -25 1038 -25 1025 -25 c 0,68,69
 1004 -25 1004 -25 958 21 c 128,-1,70
 912 67 912 67 843 153 c 1,71,72
 799 116 799 116 750 83.5 c 128,-1,73
 701 51 701 51 649.5 27 c 128,-1,74
 598 3 598 3 545 -11 c 128,-1,75
 492 -25 492 -25 440 -25 c 0,76,77
 356 -25 356 -25 285.5 6 c 128,-1,78
 215 37 215 37 164 91 c 128,-1,79
 113 145 113 145 84 218 c 128,-1,80
 55 291 55 291 55 375 c 0,81,82
 55 431 55 431 71.5 483 c 128,-1,83
 88 535 88 535 122.5 589 c 128,-1,84
 157 643 157 643 210.5 701 c 128,-1,85
 264 759 264 759 337 828 c 1,86,87
 299 877 299 877 265.5 924 c 128,-1,88
 232 971 232 971 207.5 1016 c 128,-1,89
 183 1061 183 1061 169 1104.5 c 128,-1,90
 155 1148 155 1148 155 1190 c 0,91,92
 155 1273 155 1273 185 1329.5 c 128,-1,93
 215 1386 215 1386 263 1420.5 c 128,-1,94
 311 1455 311 1455 370.5 1470 c 128,-1,95
 430 1485 430 1485 490 1485 c 0,37,38
EndSplineSet
EndChar

StartChar: quotesingle
Encoding: 39 39 10
Width: 605
Flags: W
LayerCount: 2
Fore
SplineSet
240 1045 m 1,0,1
 238 1098 238 1098 236 1154.5 c 128,-1,2
 234 1211 234 1211 230 1276 c 128,-1,3
 226 1341 226 1341 219 1417 c 128,-1,4
 212 1493 212 1493 200 1585 c 1,5,-1
 405 1585 l 1,6,7
 394 1493 394 1493 387 1417 c 128,-1,8
 380 1341 380 1341 376 1276 c 128,-1,9
 372 1211 372 1211 369.5 1154.5 c 128,-1,10
 367 1098 367 1098 365 1045 c 1,11,-1
 240 1045 l 1,0,1
EndSplineSet
EndChar

StartChar: parenleft
Encoding: 40 40 11
Width: 795
Flags: W
LayerCount: 2
Fore
SplineSet
115 625 m 0,0,1
 115 789 115 789 146.5 940.5 c 128,-1,2
 178 1092 178 1092 235.5 1223 c 128,-1,3
 293 1354 293 1354 374.5 1460 c 128,-1,4
 456 1566 456 1566 555 1640 c 1,5,-1
 630 1485 l 1,6,7
 542 1408 542 1408 480 1314.5 c 128,-1,8
 418 1221 418 1221 379 1112 c 128,-1,9
 340 1003 340 1003 322.5 881 c 128,-1,10
 305 759 305 759 305 625 c 0,11,12
 305 495 305 495 322.5 375.5 c 128,-1,13
 340 256 340 256 379 146 c 128,-1,14
 418 36 418 36 480 -66.5 c 128,-1,15
 542 -169 542 -169 630 -265 c 1,16,-1
 535 -410 l 1,17,18
 329 -196 329 -196 222 62 c 128,-1,19
 115 320 115 320 115 625 c 0,0,1
EndSplineSet
EndChar

StartChar: parenright
Encoding: 41 41 12
Width: 795
Flags: W
LayerCount: 2
Fore
SplineSet
680 625 m 0,0,1
 680 320 680 320 573 62 c 128,-1,2
 466 -196 466 -196 260 -410 c 1,3,-1
 165 -265 l 1,4,5
 249 -169 249 -169 310.5 -66.5 c 128,-1,6
 372 36 372 36 412 146 c 128,-1,7
 452 256 452 256 471 375.5 c 128,-1,8
 490 495 490 495 490 625 c 0,9,10
 490 751 490 751 471 872.5 c 128,-1,11
 452 994 452 994 412 1104.5 c 128,-1,12
 372 1215 372 1215 310.5 1311.5 c 128,-1,13
 249 1408 249 1408 165 1485 c 1,14,-1
 240 1640 l 1,15,16
 339 1566 339 1566 420.5 1460 c 128,-1,17
 502 1354 502 1354 559.5 1223 c 128,-1,18
 617 1092 617 1092 648.5 940.5 c 128,-1,19
 680 789 680 789 680 625 c 0,0,1
EndSplineSet
EndChar

StartChar: asterisk
Encoding: 42 42 13
Width: 1028
Flags: W
LayerCount: 2
Fore
SplineSet
560 1600 m 1,0,1
 555 1550 555 1550 551.5 1509 c 128,-1,2
 548 1468 548 1468 545.5 1432.5 c 128,-1,3
 543 1397 543 1397 541.5 1365 c 128,-1,4
 540 1333 540 1333 540 1300 c 1,5,6
 568 1318 568 1318 595 1336.5 c 128,-1,7
 622 1355 622 1355 651 1376.5 c 128,-1,8
 680 1398 680 1398 713 1423 c 128,-1,9
 746 1448 746 1448 785 1480 c 1,10,-1
 855 1355 l 1,11,12
 809 1334 809 1334 772 1316 c 128,-1,13
 735 1298 735 1298 703 1282 c 128,-1,14
 671 1266 671 1266 642 1250.5 c 128,-1,15
 613 1235 613 1235 585 1220 c 1,16,17
 614 1205 614 1205 644 1191 c 128,-1,18
 674 1177 674 1177 707 1163 c 128,-1,19
 740 1149 740 1149 779 1133.5 c 128,-1,20
 818 1118 818 1118 865 1100 c 1,21,-1
 790 975 l 1,22,23
 749 1004 749 1004 715.5 1027 c 128,-1,24
 682 1050 682 1050 652 1069.5 c 128,-1,25
 622 1089 622 1089 595 1106 c 128,-1,26
 568 1123 568 1123 540 1140 c 1,27,28
 541 1107 541 1107 543.5 1074.5 c 128,-1,29
 546 1042 546 1042 549 1006.5 c 128,-1,30
 552 971 552 971 557 930.5 c 128,-1,31
 562 890 562 890 570 840 c 1,32,-1
 430 840 l 1,33,34
 434 890 434 890 437.5 931 c 128,-1,35
 441 972 441 972 443.5 1008 c 128,-1,36
 446 1044 446 1044 447.5 1076 c 128,-1,37
 449 1108 449 1108 450 1140 c 1,38,39
 423 1123 423 1123 396 1104 c 128,-1,40
 369 1085 369 1085 339.5 1063.5 c 128,-1,41
 310 1042 310 1042 277 1016.5 c 128,-1,42
 244 991 244 991 205 960 c 1,43,-1
 135 1085 l 1,44,-1
 217 1123 l 2,45,46
 255 1141 255 1141 287 1157 c 128,-1,47
 319 1173 319 1173 347.5 1188.5 c 128,-1,48
 376 1204 376 1204 405 1220 c 1,49,50
 376 1235 376 1235 346 1249 c 128,-1,51
 316 1263 316 1263 282.5 1277 c 128,-1,52
 249 1291 249 1291 210.5 1306 c 128,-1,53
 172 1321 172 1321 125 1340 c 1,54,-1
 200 1465 l 1,55,56
 241 1436 241 1436 274.5 1412.5 c 128,-1,57
 308 1389 308 1389 338 1369.5 c 128,-1,58
 368 1350 368 1350 395 1333 c 128,-1,59
 422 1316 422 1316 450 1300 c 1,60,61
 449 1333 449 1333 446 1365 c 128,-1,62
 443 1397 443 1397 438.5 1432.5 c 128,-1,63
 434 1468 434 1468 428 1509 c 128,-1,64
 422 1550 422 1550 415 1600 c 1,65,-1
 560 1600 l 1,0,1
EndSplineSet
EndChar

StartChar: plus
Encoding: 43 43 14
Width: 1200
Flags: W
LayerCount: 2
Fore
SplineSet
155 810 m 1,0,-1
 525 810 l 1,1,-1
 525 1180 l 1,2,-1
 675 1180 l 1,3,-1
 675 810 l 1,4,-1
 1045 810 l 1,5,-1
 1045 660 l 1,6,-1
 675 660 l 1,7,-1
 675 285 l 1,8,-1
 525 285 l 1,9,-1
 525 660 l 1,10,-1
 155 660 l 1,11,-1
 155 810 l 1,0,-1
EndSplineSet
EndChar

StartChar: comma
Encoding: 44 44 15
Width: 650
Flags: W
LayerCount: 2
Fore
SplineSet
185 150 m 1,0,1
 190 174 190 174 203.5 192.5 c 128,-1,2
 217 211 217 211 236 223.5 c 128,-1,3
 255 236 255 236 277 243 c 128,-1,4
 299 250 299 250 320 250 c 0,5,6
 350 250 350 250 376.5 238.5 c 128,-1,7
 403 227 403 227 422.5 205.5 c 128,-1,8
 442 184 442 184 453.5 153.5 c 128,-1,9
 465 123 465 123 465 85 c 0,10,11
 465 -7 465 -7 421.5 -97 c 128,-1,12
 378 -187 378 -187 290 -270 c 1,13,-1
 190 -230 l 1,14,15
 212 -208 212 -208 235.5 -176 c 128,-1,16
 259 -144 259 -144 279 -106.5 c 128,-1,17
 299 -69 299 -69 312 -28.5 c 128,-1,18
 325 12 325 12 325 50 c 1,19,-1
 185 50 l 1,20,-1
 185 150 l 1,0,1
EndSplineSet
EndChar

StartChar: period
Encoding: 46 46 17
Width: 640
Flags: W
LayerCount: 2
Fore
SplineSet
185 110 m 256,0,1
 185 138 185 138 195.5 162.5 c 128,-1,2
 206 187 206 187 224.5 205.5 c 128,-1,3
 243 224 243 224 267.5 234.5 c 128,-1,4
 292 245 292 245 320 245 c 256,5,6
 348 245 348 245 372.5 234.5 c 128,-1,7
 397 224 397 224 415.5 205.5 c 128,-1,8
 434 187 434 187 444.5 162.5 c 128,-1,9
 455 138 455 138 455 110 c 256,10,11
 455 82 455 82 444.5 57.5 c 128,-1,12
 434 33 434 33 415.5 14.5 c 128,-1,13
 397 -4 397 -4 372.5 -14.5 c 128,-1,14
 348 -25 348 -25 320 -25 c 256,15,16
 292 -25 292 -25 267.5 -14.5 c 128,-1,17
 243 -4 243 -4 224.5 14.5 c 128,-1,18
 206 33 206 33 195.5 57.5 c 128,-1,19
 185 82 185 82 185 110 c 256,0,1
EndSplineSet
EndChar

StartChar: slash
Encoding: 47 47 18
Width: 1000
Flags: W
LayerCount: 2
Fore
SplineSet
990 1600 m 1,0,-1
 160 -245 l 1,1,-1
 10 -245 l 1,2,-1
 840 1600 l 1,3,-1
 990 1600 l 1,0,-1
EndSplineSet
EndChar

StartChar: zero
Encoding: 48 48 19
Width: 1200
GlyphClass: 2
Flags: W
AnchorPoint: "Anchor-4" 1200 1000 basechar 0
AnchorPoint: "Anchor-3" 605 -100 basechar 0
AnchorPoint: "Anchor-2" 605 -100 basechar 0
AnchorPoint: "Anchor-1" 605 -100 basechar 0
AnchorPoint: "Anchor-0" 605 1530 basechar 0
LayerCount: 2
Fore
SplineSet
1110 740 m 0,0,1
 1110 519 1110 519 1069.5 372 c 128,-1,2
 1029 225 1029 225 959 136.5 c 128,-1,3
 889 48 889 48 794 11.5 c 128,-1,4
 699 -25 699 -25 590 -25 c 0,5,6
 482 -25 482 -25 390 12 c 128,-1,7
 298 49 298 49 231.5 135.5 c 128,-1,8
 165 222 165 222 127.5 365 c 128,-1,9
 90 508 90 508 90 720 c 0,10,11
 90 931 90 931 130.5 1077 c 128,-1,12
 171 1223 171 1223 241.5 1313.5 c 128,-1,13
 312 1404 312 1404 407 1444.5 c 128,-1,14
 502 1485 502 1485 610 1485 c 0,15,16
 719 1485 719 1485 810.5 1445.5 c 128,-1,17
 902 1406 902 1406 968.5 1317.5 c 128,-1,18
 1035 1229 1035 1229 1072.5 1087 c 128,-1,19
 1110 945 1110 945 1110 740 c 0,0,1
910 715 m 0,20,21
 910 880 910 880 890 994.5 c 128,-1,22
 870 1109 870 1109 831 1180.5 c 128,-1,23
 792 1252 792 1252 734 1283.5 c 128,-1,24
 676 1315 676 1315 600 1315 c 0,25,26
 528 1315 528 1315 470.5 1283.5 c 128,-1,27
 413 1252 413 1252 373 1183 c 128,-1,28
 333 1114 333 1114 311.5 1006 c 128,-1,29
 290 898 290 898 290 745 c 0,30,31
 290 580 290 580 310.5 465.5 c 128,-1,32
 331 351 331 351 370.5 280 c 128,-1,33
 410 209 410 209 468 177 c 128,-1,34
 526 145 526 145 600 145 c 0,35,36
 672 145 672 145 729.5 177 c 128,-1,37
 787 209 787 209 827 277.5 c 128,-1,38
 867 346 867 346 888.5 454 c 128,-1,39
 910 562 910 562 910 715 c 0,20,21
EndSplineSet
Substitution2: "'aalt' Access All Alternates lookup 7 subtable" zero.Slash
EndChar

StartChar: one
Encoding: 49 49 20
Width: 1200
GlyphClass: 2
Flags: W
AnchorPoint: "Anchor-4" 1200 1000 basechar 0
AnchorPoint: "Anchor-3" 600 -100 basechar 0
AnchorPoint: "Anchor-2" 600 -100 basechar 0
AnchorPoint: "Anchor-1" 600 -100 basechar 0
AnchorPoint: "Anchor-0" 600 1530 basechar 0
LayerCount: 2
Fore
SplineSet
535 1260 m 1,0,-1
 235 1088 l 1,1,-1
 210 1268 l 1,2,-1
 555 1480 l 1,3,-1
 725 1480 l 1,4,-1
 725 170 l 1,5,-1
 1040 170 l 1,6,-1
 1040 0 l 1,7,-1
 220 0 l 1,8,-1
 220 170 l 1,9,-1
 535 170 l 1,10,-1
 535 1260 l 1,0,-1
EndSplineSet
Substitution2: "'aalt' Access All Alternates lookup 7 subtable" one.NoBase
EndChar

StartChar: two
Encoding: 50 50 21
Width: 1200
GlyphClass: 2
Flags: W
AnchorPoint: "Anchor-4" 1200 1000 basechar 0
AnchorPoint: "Anchor-3" 600 -100 basechar 0
AnchorPoint: "Anchor-2" 600 -100 basechar 0
AnchorPoint: "Anchor-1" 600 -100 basechar 0
AnchorPoint: "Anchor-0" 600 1530 basechar 0
LayerCount: 2
Fore
SplineSet
1080 0 m 1,0,-1
 120 0 l 1,1,-1
 120 170 l 1,2,3
 188 219 188 219 265.5 283.5 c 128,-1,4
 343 348 343 348 419.5 422 c 128,-1,5
 496 496 496 496 566.5 576.5 c 128,-1,6
 637 657 637 657 691 738 c 128,-1,7
 745 819 745 819 777.5 897.5 c 128,-1,8
 810 976 810 976 810 1045 c 0,9,10
 810 1115 810 1115 785.5 1164.5 c 128,-1,11
 761 1214 761 1214 721 1245.5 c 128,-1,12
 681 1277 681 1277 630 1291 c 128,-1,13
 579 1305 579 1305 525 1305 c 0,14,15
 479 1305 479 1305 430 1291.5 c 128,-1,16
 381 1278 381 1278 334.5 1253 c 128,-1,17
 288 1228 288 1228 245.5 1194 c 128,-1,18
 203 1160 203 1160 170 1120 c 1,19,-1
 125 1290 l 1,20,21
 155 1332 155 1332 203 1367.5 c 128,-1,22
 251 1403 251 1403 309.5 1429.5 c 128,-1,23
 368 1456 368 1456 432.5 1470.5 c 128,-1,24
 497 1485 497 1485 560 1485 c 0,25,26
 650 1485 650 1485 731.5 1455.5 c 128,-1,27
 813 1426 813 1426 875 1371.5 c 128,-1,28
 937 1317 937 1317 973.5 1239.5 c 128,-1,29
 1010 1162 1010 1162 1010 1065 c 0,30,31
 1010 981 1010 981 979.5 894.5 c 128,-1,32
 949 808 949 808 898 723.5 c 128,-1,33
 847 639 847 639 782 559 c 128,-1,34
 717 479 717 479 648 407 c 128,-1,35
 579 335 579 335 512 273.5 c 128,-1,36
 445 212 445 212 390 165 c 1,37,-1
 645 165 l 2,38,39
 719 165 719 165 785 165.5 c 128,-1,40
 851 166 851 166 906.5 167.5 c 128,-1,41
 962 169 962 169 1006 172 c 128,-1,42
 1050 175 1050 175 1080 180 c 1,43,-1
 1080 0 l 1,0,-1
EndSplineSet
EndChar

StartChar: three
Encoding: 51 51 22
Width: 1200
GlyphClass: 2
Flags: W
AnchorPoint: "Anchor-4" 1200 1000 basechar 0
AnchorPoint: "Anchor-3" 600 -100 basechar 0
AnchorPoint: "Anchor-2" 600 -100 basechar 0
AnchorPoint: "Anchor-1" 600 -100 basechar 0
AnchorPoint: "Anchor-0" 600 1530 basechar 0
LayerCount: 2
Fore
SplineSet
545 -25 m 0,0,1
 411 -25 411 -25 300 20.5 c 128,-1,2
 189 66 189 66 110 140 c 1,3,-1
 135 355 l 1,4,5
 176 309 176 309 223 271 c 128,-1,6
 270 233 270 233 323.5 206 c 128,-1,7
 377 179 377 179 437 164.5 c 128,-1,8
 497 150 497 150 565 150 c 0,9,10
 622 150 622 150 681 167 c 128,-1,11
 740 184 740 184 787.5 218.5 c 128,-1,12
 835 253 835 253 865 304.5 c 128,-1,13
 895 356 895 356 895 425 c 0,14,15
 895 486 895 486 863.5 536.5 c 128,-1,16
 832 587 832 587 776 623.5 c 128,-1,17
 720 660 720 660 644 680 c 128,-1,18
 568 700 568 700 480 700 c 2,19,-1
 410 700 l 1,20,-1
 410 870 l 1,21,-1
 480 870 l 2,22,23
 555 870 555 870 622 891 c 128,-1,24
 689 912 689 912 739.5 946 c 128,-1,25
 790 980 790 980 820 1024 c 128,-1,26
 850 1068 850 1068 850 1115 c 0,27,28
 850 1166 850 1166 826.5 1202.5 c 128,-1,29
 803 1239 803 1239 765.5 1263 c 128,-1,30
 728 1287 728 1287 681.5 1298.5 c 128,-1,31
 635 1310 635 1310 590 1310 c 0,32,33
 532 1310 532 1310 482 1302 c 128,-1,34
 432 1294 432 1294 387 1276 c 128,-1,35
 342 1258 342 1258 299.5 1228 c 128,-1,36
 257 1198 257 1198 215 1155 c 1,37,-1
 180 1325 l 1,38,39
 210 1359 210 1359 253 1388.5 c 128,-1,40
 296 1418 296 1418 347.5 1439.5 c 128,-1,41
 399 1461 399 1461 458 1473 c 128,-1,42
 517 1485 517 1485 580 1485 c 0,43,44
 673 1485 673 1485 756.5 1461 c 128,-1,45
 840 1437 840 1437 903 1392.5 c 128,-1,46
 966 1348 966 1348 1003 1284 c 128,-1,47
 1040 1220 1040 1220 1040 1140 c 0,48,49
 1040 1071 1040 1071 1010 1013.5 c 128,-1,50
 980 956 980 956 933.5 912 c 128,-1,51
 887 868 887 868 830 839.5 c 128,-1,52
 773 811 773 811 720 800 c 1,53,54
 755 794 755 794 796.5 781 c 128,-1,55
 838 768 838 768 879 746.5 c 128,-1,56
 920 725 920 725 958 694 c 128,-1,57
 996 663 996 663 1025.5 621 c 128,-1,58
 1055 579 1055 579 1072.5 525.5 c 128,-1,59
 1090 472 1090 472 1090 405 c 0,60,61
 1090 317 1090 317 1045.5 238.5 c 128,-1,62
 1001 160 1001 160 926 101.5 c 128,-1,63
 851 43 851 43 752 9 c 128,-1,64
 653 -25 653 -25 545 -25 c 0,0,1
EndSplineSet
EndChar

StartChar: four
Encoding: 52 52 23
Width: 1200
GlyphClass: 2
Flags: W
AnchorPoint: "Anchor-4" 1200 1000 basechar 0
AnchorPoint: "Anchor-3" 607 -100 basechar 0
AnchorPoint: "Anchor-2" 607 -100 basechar 0
AnchorPoint: "Anchor-1" 607 -100 basechar 0
AnchorPoint: "Anchor-0" 607 1530 basechar 0
LayerCount: 2
Fore
SplineSet
263 550 m 1,0,-1
 745 550 l 1,1,-1
 745 1230 l 1,2,-1
 263 550 l 1,0,-1
935 395 m 1,3,-1
 935 0 l 1,4,-1
 745 0 l 1,5,-1
 745 395 l 1,6,-1
 90 395 l 1,7,-1
 90 550 l 1,8,-1
 745 1480 l 1,9,-1
 935 1480 l 1,10,-1
 935 550 l 1,11,-1
 1125 550 l 1,12,-1
 1125 395 l 1,13,-1
 935 395 l 1,3,-1
EndSplineSet
Substitution2: "'aalt' Access All Alternates lookup 7 subtable" four.Open
EndChar

StartChar: five
Encoding: 53 53 24
Width: 1200
GlyphClass: 2
Flags: W
AnchorPoint: "Anchor-4" 1200 1000 basechar 0
AnchorPoint: "Anchor-3" 600 -100 basechar 0
AnchorPoint: "Anchor-2" 600 -100 basechar 0
AnchorPoint: "Anchor-1" 600 -100 basechar 0
AnchorPoint: "Anchor-0" 600 1530 basechar 0
LayerCount: 2
Fore
SplineSet
195 1460 m 1,0,-1
 1000 1460 l 1,1,-1
 1000 1270 l 1,2,3
 943 1282 943 1282 885.5 1286 c 128,-1,4
 828 1290 828 1290 765 1290 c 2,5,-1
 380 1290 l 1,6,-1
 380 920 l 1,7,8
 403 923 403 923 446.5 926.5 c 128,-1,9
 490 930 490 930 545 930 c 0,10,11
 653 930 653 930 746.5 896.5 c 128,-1,12
 840 863 840 863 910 802.5 c 128,-1,13
 980 742 980 742 1020 658.5 c 128,-1,14
 1060 575 1060 575 1060 475 c 0,15,16
 1060 358 1060 358 1019.5 265 c 128,-1,17
 979 172 979 172 906.5 107.5 c 128,-1,18
 834 43 834 43 734.5 9 c 128,-1,19
 635 -25 635 -25 518 -25 c 0,20,21
 460 -25 460 -25 409.5 -19.5 c 128,-1,22
 359 -14 359 -14 312.5 -1.5 c 128,-1,23
 266 11 266 11 221.5 31 c 128,-1,24
 177 51 177 51 130 80 c 1,25,-1
 160 290 l 1,26,27
 210 249 210 249 254.5 223 c 128,-1,28
 299 197 299 197 342.5 182 c 128,-1,29
 386 167 386 167 431.5 161 c 128,-1,30
 477 155 477 155 530 155 c 0,31,32
 605 155 605 155 667.5 176 c 128,-1,33
 730 197 730 197 775 237 c 128,-1,34
 820 277 820 277 845 335.5 c 128,-1,35
 870 394 870 394 870 470 c 256,36,37
 870 546 870 546 836 599 c 128,-1,38
 802 652 802 652 749.5 685.5 c 128,-1,39
 697 719 697 719 633.5 734.5 c 128,-1,40
 570 750 570 750 510 750 c 0,41,42
 470 750 470 750 433.5 746.5 c 128,-1,43
 397 743 397 743 359.5 735.5 c 128,-1,44
 322 728 322 728 281.5 715.5 c 128,-1,45
 241 703 241 703 195 685 c 1,46,-1
 195 1460 l 1,0,-1
EndSplineSet
EndChar

StartChar: six
Encoding: 54 54 25
Width: 1200
GlyphClass: 2
Flags: W
AnchorPoint: "Anchor-4" 1200 1000 basechar 0
AnchorPoint: "Anchor-3" 600 -100 basechar 0
AnchorPoint: "Anchor-2" 600 -100 basechar 0
AnchorPoint: "Anchor-1" 600 -100 basechar 0
AnchorPoint: "Anchor-0" 600 1530 basechar 0
LayerCount: 2
Fore
SplineSet
645 720 m 0,0,1
 540 720 540 720 454.5 682.5 c 128,-1,2
 369 645 369 645 307 581 c 1,3,4
 313 495 313 495 335.5 417 c 128,-1,5
 358 339 358 339 398 280 c 128,-1,6
 438 221 438 221 496 185.5 c 128,-1,7
 554 150 554 150 630 150 c 0,8,9
 696 150 696 150 749.5 172 c 128,-1,10
 803 194 803 194 841 232.5 c 128,-1,11
 879 271 879 271 899.5 323 c 128,-1,12
 920 375 920 375 920 435 c 0,13,14
 920 501 920 501 902 554 c 128,-1,15
 884 607 884 607 849.5 643.5 c 128,-1,16
 815 680 815 680 763.5 700 c 128,-1,17
 712 720 712 720 645 720 c 0,0,1
1115 470 m 0,18,19
 1115 356 1115 356 1077.5 264.5 c 128,-1,20
 1040 173 1040 173 972.5 108.5 c 128,-1,21
 905 44 905 44 810 9.5 c 128,-1,22
 715 -25 715 -25 600 -25 c 0,23,24
 484 -25 484 -25 393 23.5 c 128,-1,25
 302 72 302 72 239 163 c 128,-1,26
 176 254 176 254 143 385 c 128,-1,27
 110 516 110 516 110 680 c 0,28,29
 110 772 110 772 122.5 867.5 c 128,-1,30
 135 963 135 963 164 1052.5 c 128,-1,31
 193 1142 193 1142 239.5 1221 c 128,-1,32
 286 1300 286 1300 354.5 1358.5 c 128,-1,33
 423 1417 423 1417 514.5 1451 c 128,-1,34
 606 1485 606 1485 725 1485 c 0,35,36
 769 1485 769 1485 808 1481 c 128,-1,37
 847 1477 847 1477 884 1466.5 c 128,-1,38
 921 1456 921 1456 957.5 1438.5 c 128,-1,39
 994 1421 994 1421 1033 1395 c 1,40,-1
 989 1200 l 1,41,42
 924 1264 924 1264 855.5 1287 c 128,-1,43
 787 1310 787 1310 715 1310 c 0,44,45
 632 1310 632 1310 560.5 1279 c 128,-1,46
 489 1248 489 1248 435 1179 c 128,-1,47
 381 1110 381 1110 347.5 1000 c 128,-1,48
 314 890 314 890 307 733 c 1,49,50
 381 806 381 806 469 850.5 c 128,-1,51
 557 895 557 895 665 895 c 0,52,53
 769 895 769 895 852.5 863.5 c 128,-1,54
 936 832 936 832 994.5 776 c 128,-1,55
 1053 720 1053 720 1084 641.5 c 128,-1,56
 1115 563 1115 563 1115 470 c 0,18,19
EndSplineSet
Substitution2: "'aalt' Access All Alternates lookup 7 subtable" six.Diag
EndChar

StartChar: seven
Encoding: 55 55 26
Width: 1200
GlyphClass: 2
Flags: W
AnchorPoint: "Anchor-4" 1200 1000 basechar 0
AnchorPoint: "Anchor-3" 600 -100 basechar 0
AnchorPoint: "Anchor-2" 600 -100 basechar 0
AnchorPoint: "Anchor-1" 600 -100 basechar 0
AnchorPoint: "Anchor-0" 600 1530 basechar 0
LayerCount: 2
Fore
SplineSet
275 0 m 1,0,1
 316 141 316 141 358 265.5 c 128,-1,2
 400 390 400 390 444.5 502 c 128,-1,3
 489 614 489 614 537 716 c 128,-1,4
 585 818 585 818 637.5 915 c 128,-1,5
 690 1012 690 1012 748 1105.5 c 128,-1,6
 806 1199 806 1199 870 1295 c 1,7,-1
 480 1295 l 2,8,9
 339 1295 339 1295 248 1291 c 128,-1,10
 157 1287 157 1287 100 1275 c 1,11,-1
 100 1460 l 1,12,-1
 1090 1460 l 1,13,-1
 1090 1300 l 1,14,15
 868 996 868 996 712.5 670 c 128,-1,16
 557 344 557 344 460 0 c 1,17,-1
 275 0 l 1,0,1
EndSplineSet
Substitution2: "'aalt' Access All Alternates lookup 7 subtable" seven.Bar
EndChar

StartChar: eight
Encoding: 56 56 27
Width: 1200
GlyphClass: 2
Flags: W
AnchorPoint: "Anchor-4" 1200 1000 basechar 0
AnchorPoint: "Anchor-3" 600 -100 basechar 0
AnchorPoint: "Anchor-2" 600 -100 basechar 0
AnchorPoint: "Anchor-1" 600 -100 basechar 0
AnchorPoint: "Anchor-0" 600 1530 basechar 0
LayerCount: 2
Fore
SplineSet
910 425 m 0,0,1
 910 488 910 488 886.5 540 c 128,-1,2
 863 592 863 592 821.5 630 c 128,-1,3
 780 668 780 668 723.5 689 c 128,-1,4
 667 710 667 710 600 710 c 0,5,6
 532 710 532 710 475.5 689 c 128,-1,7
 419 668 419 668 377.5 630 c 128,-1,8
 336 592 336 592 313 540 c 128,-1,9
 290 488 290 488 290 425 c 0,10,11
 290 359 290 359 313 307 c 128,-1,12
 336 255 336 255 377.5 219 c 128,-1,13
 419 183 419 183 475.5 164 c 128,-1,14
 532 145 532 145 600 145 c 0,15,16
 667 145 667 145 723.5 164 c 128,-1,17
 780 183 780 183 821.5 219 c 128,-1,18
 863 255 863 255 886.5 307 c 128,-1,19
 910 359 910 359 910 425 c 0,0,1
860 1105 m 0,20,21
 860 1160 860 1160 839.5 1201.5 c 128,-1,22
 819 1243 819 1243 783.5 1270.5 c 128,-1,23
 748 1298 748 1298 701 1311.5 c 128,-1,24
 654 1325 654 1325 600 1325 c 256,25,26
 546 1325 546 1325 499 1311.5 c 128,-1,27
 452 1298 452 1298 416.5 1270.5 c 128,-1,28
 381 1243 381 1243 360.5 1201.5 c 128,-1,29
 340 1160 340 1160 340 1105 c 0,30,31
 340 1046 340 1046 360.5 1001.5 c 128,-1,32
 381 957 381 957 416.5 926.5 c 128,-1,33
 452 896 452 896 499 880.5 c 128,-1,34
 546 865 546 865 600 865 c 256,35,36
 654 865 654 865 701 880.5 c 128,-1,37
 748 896 748 896 783.5 926.5 c 128,-1,38
 819 957 819 957 839.5 1001.5 c 128,-1,39
 860 1046 860 1046 860 1105 c 0,20,21
600 -25 m 256,40,41
 504 -25 504 -25 412.5 4 c 128,-1,42
 321 33 321 33 249 88.5 c 128,-1,43
 177 144 177 144 133.5 223.5 c 128,-1,44
 90 303 90 303 90 405 c 0,45,46
 90 482 90 482 112.5 543 c 128,-1,47
 135 604 135 604 171.5 651 c 128,-1,48
 208 698 208 698 255 733.5 c 128,-1,49
 302 769 302 769 350 795 c 1,50,51
 321 811 321 811 286 836 c 128,-1,52
 251 861 251 861 221 898 c 128,-1,53
 191 935 191 935 170.5 986 c 128,-1,54
 150 1037 150 1037 150 1105 c 0,55,56
 150 1197 150 1197 189.5 1268 c 128,-1,57
 229 1339 229 1339 294 1387 c 128,-1,58
 359 1435 359 1435 441.5 1460 c 128,-1,59
 524 1485 524 1485 610 1485 c 256,60,61
 696 1485 696 1485 775.5 1460 c 128,-1,62
 855 1435 855 1435 916 1387 c 128,-1,63
 977 1339 977 1339 1013.5 1268 c 128,-1,64
 1050 1197 1050 1197 1050 1105 c 0,65,66
 1050 1037 1050 1037 1030.5 987 c 128,-1,67
 1011 937 1011 937 981.5 900.5 c 128,-1,68
 952 864 952 864 918 838.5 c 128,-1,69
 884 813 884 813 855 795 c 1,70,71
 896 774 896 774 941 739.5 c 128,-1,72
 986 705 986 705 1023.5 656.5 c 128,-1,73
 1061 608 1061 608 1085.5 545 c 128,-1,74
 1110 482 1110 482 1110 405 c 0,75,76
 1110 303 1110 303 1066.5 223.5 c 128,-1,77
 1023 144 1023 144 951.5 88.5 c 128,-1,78
 880 33 880 33 788 4 c 128,-1,79
 696 -25 696 -25 600 -25 c 256,40,41
EndSplineSet
EndChar

StartChar: nine
Encoding: 57 57 28
Width: 1200
GlyphClass: 2
Flags: W
AnchorPoint: "Anchor-4" 1200 1000 basechar 0
AnchorPoint: "Anchor-3" 600 -100 basechar 0
AnchorPoint: "Anchor-2" 600 -100 basechar 0
AnchorPoint: "Anchor-1" 600 -100 basechar 0
AnchorPoint: "Anchor-0" 600 1530 basechar 0
LayerCount: 2
Fore
SplineSet
583 760 m 0,0,1
 633 760 633 760 680 771.5 c 128,-1,2
 727 783 727 783 769 803.5 c 128,-1,3
 811 824 811 824 848 852.5 c 128,-1,4
 885 881 885 881 914 915 c 1,5,6
 906 994 906 994 884.5 1066 c 128,-1,7
 863 1138 863 1138 825 1192 c 128,-1,8
 787 1246 787 1246 730.5 1278 c 128,-1,9
 674 1310 674 1310 596 1310 c 0,10,11
 530 1310 530 1310 476.5 1289.5 c 128,-1,12
 423 1269 423 1269 385 1233 c 128,-1,13
 347 1197 347 1197 326.5 1146.5 c 128,-1,14
 306 1096 306 1096 306 1036 c 0,15,16
 306 970 306 970 327 918.5 c 128,-1,17
 348 867 348 867 385 832 c 128,-1,18
 422 797 422 797 472.5 778.5 c 128,-1,19
 523 760 523 760 583 760 c 0,0,1
112 1002 m 0,20,21
 112 1116 112 1116 153 1205.5 c 128,-1,22
 194 1295 194 1295 263.5 1357.5 c 128,-1,23
 333 1420 333 1420 424.5 1452.5 c 128,-1,24
 516 1485 516 1485 616 1485 c 0,25,26
 732 1485 732 1485 824.5 1433.5 c 128,-1,27
 917 1382 917 1382 981.5 1289 c 128,-1,28
 1046 1196 1046 1196 1080 1066.5 c 128,-1,29
 1114 937 1114 937 1114 780 c 0,30,31
 1114 688 1114 688 1101.5 592.5 c 128,-1,32
 1089 497 1089 497 1060.5 407.5 c 128,-1,33
 1032 318 1032 318 985.5 239 c 128,-1,34
 939 160 939 160 871 101.5 c 128,-1,35
 803 43 803 43 711.5 9 c 128,-1,36
 620 -25 620 -25 501 -25 c 0,37,38
 457 -25 457 -25 418 -21 c 128,-1,39
 379 -17 379 -17 342 -6.5 c 128,-1,40
 305 4 305 4 268.5 21.5 c 128,-1,41
 232 39 232 39 193 65 c 1,42,-1
 237 260 l 1,43,44
 269 228 269 228 302.5 206.5 c 128,-1,45
 336 185 336 185 370.5 172.5 c 128,-1,46
 405 160 405 160 440 155 c 128,-1,47
 475 150 475 150 511 150 c 0,48,49
 596 150 596 150 668 182 c 128,-1,50
 740 214 740 214 793.5 285 c 128,-1,51
 847 356 847 356 879.5 470 c 128,-1,52
 912 584 912 584 917 748 c 1,53,54
 845 676 845 676 753 631 c 128,-1,55
 661 586 661 586 559 586 c 0,56,57
 455 586 455 586 372 619 c 128,-1,58
 289 652 289 652 231 708.5 c 128,-1,59
 173 765 173 765 142.5 840.5 c 128,-1,60
 112 916 112 916 112 1002 c 0,20,21
EndSplineSet
Substitution2: "'aalt' Access All Alternates lookup 7 subtable" nine.Diag
EndChar

StartChar: colon
Encoding: 58 58 29
Width: 640
Flags: W
LayerCount: 2
Fore
SplineSet
185 110 m 256,0,1
 185 138 185 138 195.5 162.5 c 128,-1,2
 206 187 206 187 224.5 205.5 c 128,-1,3
 243 224 243 224 267.5 234.5 c 128,-1,4
 292 245 292 245 320 245 c 256,5,6
 348 245 348 245 372.5 234.5 c 128,-1,7
 397 224 397 224 415.5 205.5 c 128,-1,8
 434 187 434 187 444.5 162.5 c 128,-1,9
 455 138 455 138 455 110 c 256,10,11
 455 82 455 82 444.5 57.5 c 128,-1,12
 434 33 434 33 415.5 14.5 c 128,-1,13
 397 -4 397 -4 372.5 -14.5 c 128,-1,14
 348 -25 348 -25 320 -25 c 256,15,16
 292 -25 292 -25 267.5 -14.5 c 128,-1,17
 243 -4 243 -4 224.5 14.5 c 128,-1,18
 206 33 206 33 195.5 57.5 c 128,-1,19
 185 82 185 82 185 110 c 256,0,1
185 790 m 256,20,21
 185 818 185 818 195.5 842.5 c 128,-1,22
 206 867 206 867 224.5 885.5 c 128,-1,23
 243 904 243 904 267.5 914.5 c 128,-1,24
 292 925 292 925 320 925 c 256,25,26
 348 925 348 925 372.5 914.5 c 128,-1,27
 397 904 397 904 415.5 885.5 c 128,-1,28
 434 867 434 867 444.5 842.5 c 128,-1,29
 455 818 455 818 455 790 c 256,30,31
 455 762 455 762 444.5 737.5 c 128,-1,32
 434 713 434 713 415.5 694.5 c 128,-1,33
 397 676 397 676 372.5 665.5 c 128,-1,34
 348 655 348 655 320 655 c 256,35,36
 292 655 292 655 267.5 665.5 c 128,-1,37
 243 676 243 676 224.5 694.5 c 128,-1,38
 206 713 206 713 195.5 737.5 c 128,-1,39
 185 762 185 762 185 790 c 256,20,21
EndSplineSet
EndChar

StartChar: semicolon
Encoding: 59 59 30
Width: 650
Flags: W
LayerCount: 2
Fore
SplineSet
185 150 m 1,0,1
 190 174 190 174 203.5 192.5 c 128,-1,2
 217 211 217 211 236 223.5 c 128,-1,3
 255 236 255 236 277 243 c 128,-1,4
 299 250 299 250 320 250 c 0,5,6
 350 250 350 250 376.5 238.5 c 128,-1,7
 403 227 403 227 422.5 205.5 c 128,-1,8
 442 184 442 184 453.5 153.5 c 128,-1,9
 465 123 465 123 465 85 c 0,10,11
 465 -7 465 -7 421.5 -97 c 128,-1,12
 378 -187 378 -187 290 -270 c 1,13,-1
 190 -230 l 1,14,15
 212 -208 212 -208 235.5 -176 c 128,-1,16
 259 -144 259 -144 279 -106.5 c 128,-1,17
 299 -69 299 -69 312 -28.5 c 128,-1,18
 325 12 325 12 325 50 c 1,19,-1
 185 50 l 1,20,-1
 185 150 l 1,0,1
185 790 m 256,21,22
 185 818 185 818 195.5 842.5 c 128,-1,23
 206 867 206 867 224.5 885.5 c 128,-1,24
 243 904 243 904 267.5 914.5 c 128,-1,25
 292 925 292 925 320 925 c 256,26,27
 348 925 348 925 372.5 914.5 c 128,-1,28
 397 904 397 904 415.5 885.5 c 128,-1,29
 434 867 434 867 444.5 842.5 c 128,-1,30
 455 818 455 818 455 790 c 256,31,32
 455 762 455 762 444.5 737.5 c 128,-1,33
 434 713 434 713 415.5 694.5 c 128,-1,34
 397 676 397 676 372.5 665.5 c 128,-1,35
 348 655 348 655 320 655 c 256,36,37
 292 655 292 655 267.5 665.5 c 128,-1,38
 243 676 243 676 224.5 694.5 c 128,-1,39
 206 713 206 713 195.5 737.5 c 128,-1,40
 185 762 185 762 185 790 c 256,21,22
EndSplineSet
EndChar

StartChar: less
Encoding: 60 60 31
Width: 1200
Flags: W
LayerCount: 2
Fore
SplineSet
1080 245 m 1,0,-1
 100 645 l 1,1,-1
 100 815 l 1,2,-1
 1080 1215 l 1,3,-1
 1080 1035 l 1,4,-1
 290 730 l 1,5,-1
 1080 425 l 1,6,-1
 1080 245 l 1,0,-1
EndSplineSet
EndChar

StartChar: equal
Encoding: 61 61 32
Width: 1200
Flags: W
LayerCount: 2
Fore
SplineSet
120 980 m 1,0,-1
 1080 980 l 1,1,-1
 1080 830 l 1,2,-1
 120 830 l 1,3,-1
 120 980 l 1,0,-1
120 630 m 1,4,-1
 1080 630 l 1,5,-1
 1080 480 l 1,6,-1
 120 480 l 1,7,-1
 120 630 l 1,4,-1
EndSplineSet
EndChar

StartChar: greater
Encoding: 62 62 33
Width: 1200
Flags: W
LayerCount: 2
Fore
SplineSet
120 1215 m 1,0,-1
 1100 815 l 1,1,-1
 1100 645 l 1,2,-1
 120 245 l 1,3,-1
 120 425 l 1,4,-1
 910 730 l 1,5,-1
 120 1035 l 1,6,-1
 120 1215 l 1,0,-1
EndSplineSet
EndChar

StartChar: question
Encoding: 63 63 34
Width: 1050
Flags: W
LayerCount: 2
Fore
SplineSet
315 110 m 256,0,1
 315 138 315 138 325.5 162.5 c 128,-1,2
 336 187 336 187 354.5 205.5 c 128,-1,3
 373 224 373 224 397.5 234.5 c 128,-1,4
 422 245 422 245 450 245 c 256,5,6
 478 245 478 245 502.5 234.5 c 128,-1,7
 527 224 527 224 545.5 205.5 c 128,-1,8
 564 187 564 187 574.5 162.5 c 128,-1,9
 585 138 585 138 585 110 c 256,10,11
 585 82 585 82 574.5 57.5 c 128,-1,12
 564 33 564 33 545.5 14.5 c 128,-1,13
 527 -4 527 -4 502.5 -14.5 c 128,-1,14
 478 -25 478 -25 450 -25 c 256,15,16
 422 -25 422 -25 397.5 -14.5 c 128,-1,17
 373 -4 373 -4 354.5 14.5 c 128,-1,18
 336 33 336 33 325.5 57.5 c 128,-1,19
 315 82 315 82 315 110 c 256,0,1
460 1540 m 0,20,21
 549 1540 549 1540 618 1518.5 c 128,-1,22
 687 1497 687 1497 734 1458 c 128,-1,23
 781 1419 781 1419 805.5 1363.5 c 128,-1,24
 830 1308 830 1308 830 1240 c 0,25,26
 830 1194 830 1194 816.5 1153.5 c 128,-1,27
 803 1113 803 1113 780.5 1075.5 c 128,-1,28
 758 1038 758 1038 728 1001.5 c 128,-1,29
 698 965 698 965 665 927 c 0,30,31
 626 882 626 882 601.5 839.5 c 128,-1,32
 577 797 577 797 563.5 743.5 c 128,-1,33
 550 690 550 690 545 617.5 c 128,-1,34
 540 545 540 545 540 440 c 1,35,-1
 355 440 l 1,36,37
 355 549 355 549 363 631 c 128,-1,38
 371 713 371 713 387 776.5 c 128,-1,39
 403 840 403 840 427.5 889 c 128,-1,40
 452 938 452 938 485 980 c 256,41,42
 518 1022 518 1022 544 1056.5 c 128,-1,43
 570 1091 570 1091 588 1120.5 c 128,-1,44
 606 1150 606 1150 615.5 1176.5 c 128,-1,45
 625 1203 625 1203 625 1230 c 0,46,47
 625 1252 625 1252 615.5 1276 c 128,-1,48
 606 1300 606 1300 583.5 1319.5 c 128,-1,49
 561 1339 561 1339 524 1352 c 128,-1,50
 487 1365 487 1365 432 1365 c 0,51,52
 372 1365 372 1365 307 1338 c 128,-1,53
 242 1311 242 1311 185 1251 c 1,54,-1
 140 1430 l 1,55,56
 165 1454 165 1454 200.5 1474 c 128,-1,57
 236 1494 236 1494 278 1508.5 c 128,-1,58
 320 1523 320 1523 366.5 1531.5 c 128,-1,59
 413 1540 413 1540 460 1540 c 0,20,21
EndSplineSet
EndChar

StartChar: at
Encoding: 64 64 35
Width: 1702
Flags: W
LayerCount: 2
Fore
SplineSet
848 903 m 0,0,1
 822 903 822 903 796 897 c 128,-1,2
 770 891 770 891 745 877 c 128,-1,3
 720 863 720 863 696 839 c 128,-1,4
 672 815 672 815 651 779 c 0,5,6
 629 742 629 742 616 686.5 c 128,-1,7
 603 631 603 631 603 573 c 0,8,9
 603 507 603 507 615.5 459 c 128,-1,10
 628 411 628 411 648.5 380 c 128,-1,11
 669 349 669 349 695 334.5 c 128,-1,12
 721 320 721 320 748 320 c 0,13,14
 782 320 782 320 821 341 c 128,-1,15
 860 362 860 362 898.5 396.5 c 128,-1,16
 937 431 937 431 970 476 c 128,-1,17
 1003 521 1003 521 1025 570 c 1,18,-1
 1025 871 l 1,19,20
 1000 883 1000 883 952 893 c 128,-1,21
 904 903 904 903 848 903 c 0,0,1
1607 698 m 0,22,23
 1607 573 1607 573 1575.5 477 c 128,-1,24
 1544 381 1544 381 1493 315 c 128,-1,25
 1442 249 1442 249 1378 215 c 128,-1,26
 1314 181 1314 181 1248 181 c 0,27,28
 1202 181 1202 181 1170 196.5 c 128,-1,29
 1138 212 1138 212 1114.5 239 c 128,-1,30
 1091 266 1091 266 1074 302.5 c 128,-1,31
 1057 339 1057 339 1041 380 c 1,32,33
 1010 340 1010 340 974.5 304.5 c 128,-1,34
 939 269 939 269 900.5 242 c 128,-1,35
 862 215 862 215 820.5 199 c 128,-1,36
 779 183 779 183 735 183 c 0,37,38
 685 183 685 183 634.5 204.5 c 128,-1,39
 584 226 584 226 543.5 269.5 c 128,-1,40
 503 313 503 313 478 378.5 c 128,-1,41
 453 444 453 444 453 533 c 0,42,43
 453 626 453 626 474 701 c 128,-1,44
 495 776 495 776 530 836 c 1,45,46
 592 938 592 938 674.5 989 c 128,-1,47
 757 1040 757 1040 880 1040 c 0,48,49
 910 1040 910 1040 947.5 1035.5 c 128,-1,50
 985 1031 985 1031 1024.5 1023 c 128,-1,51
 1064 1015 1064 1015 1102.5 1004 c 128,-1,52
 1141 993 1141 993 1174 980 c 1,53,-1
 1174 630 l 2,54,55
 1174 532 1174 532 1182 471.5 c 128,-1,56
 1190 411 1190 411 1204 376.5 c 128,-1,57
 1218 342 1218 342 1237 330 c 128,-1,58
 1256 318 1256 318 1278 318 c 0,59,60
 1303 318 1303 318 1335.5 339.5 c 128,-1,61
 1368 361 1368 361 1396 404.5 c 128,-1,62
 1424 448 1424 448 1443.5 514 c 128,-1,63
 1463 580 1463 580 1463 669 c 0,64,65
 1463 793 1463 793 1425.5 902.5 c 128,-1,66
 1388 1012 1388 1012 1313 1093.5 c 128,-1,67
 1238 1175 1238 1175 1126.5 1222 c 128,-1,68
 1015 1269 1015 1269 868 1269 c 0,69,70
 745 1269 745 1269 631.5 1221 c 128,-1,71
 518 1173 518 1173 430.5 1085.5 c 128,-1,72
 343 998 343 998 291 875 c 128,-1,73
 239 752 239 752 239 603 c 0,74,75
 239 441 239 441 288.5 312 c 128,-1,76
 338 183 338 183 423.5 92.5 c 128,-1,77
 509 2 509 2 623.5 -46.5 c 128,-1,78
 738 -95 738 -95 868 -95 c 0,79,80
 938 -95 938 -95 1008.5 -74.5 c 128,-1,81
 1079 -54 1079 -54 1145 -9 c 1,82,-1
 1250 -118 l 1,83,84
 1212 -144 1212 -144 1165 -165.5 c 128,-1,85
 1118 -187 1118 -187 1066.5 -202 c 128,-1,86
 1015 -217 1015 -217 961.5 -225 c 128,-1,87
 908 -233 908 -233 857 -233 c 0,88,89
 710 -233 710 -233 573 -181 c 128,-1,90
 436 -129 436 -129 329.5 -27 c 128,-1,91
 223 75 223 75 159 225.5 c 128,-1,92
 95 376 95 376 95 574 c 0,93,94
 95 712 95 712 124.5 827 c 128,-1,95
 154 942 154 942 206.5 1034.5 c 128,-1,96
 259 1127 259 1127 332 1197 c 128,-1,97
 405 1267 405 1267 492 1313.5 c 128,-1,98
 579 1360 579 1360 677.5 1383.5 c 128,-1,99
 776 1407 776 1407 880 1407 c 0,100,101
 1040 1407 1040 1407 1173.5 1356.5 c 128,-1,102
 1307 1306 1307 1306 1403.5 1213 c 128,-1,103
 1500 1120 1500 1120 1553.5 989 c 128,-1,104
 1607 858 1607 858 1607 698 c 0,22,23
EndSplineSet
EndChar

StartChar: A
Encoding: 65 65 36
Width: 1395
GlyphClass: 2
Flags: W
AnchorPoint: "Anchor-4" 1395 1000 basechar 0
AnchorPoint: "Anchor-3" 1350 0 basechar 0
AnchorPoint: "Anchor-2" 1230 0 basechar 0
AnchorPoint: "Anchor-1" 687 -100 basechar 0
AnchorPoint: "Anchor-0" 687 1530 basechar 0
LayerCount: 2
Fore
SplineSet
433 540 m 1,0,-1
 940 540 l 1,1,-1
 685 1265 l 1,2,-1
 433 540 l 1,0,-1
994 385 m 1,3,-1
 379 385 l 1,4,-1
 245 0 l 1,5,-1
 40 0 l 1,6,7
 53 30 53 30 67 63 c 128,-1,8
 81 96 81 96 97.5 137.5 c 128,-1,9
 114 179 114 179 134 232 c 128,-1,10
 154 285 154 285 180 355 c 2,11,-1
 580 1460 l 1,12,-1
 795 1460 l 1,13,-1
 1195 355 l 2,14,15
 1220 285 1220 285 1240 232 c 128,-1,16
 1260 179 1260 179 1277 137.5 c 128,-1,17
 1294 96 1294 96 1308 63 c 128,-1,18
 1322 30 1322 30 1335 0 c 1,19,-1
 1130 0 l 1,20,-1
 994 385 l 1,3,-1
EndSplineSet
EndChar

StartChar: B
Encoding: 66 66 37
Width: 1285
GlyphClass: 2
Flags: W
AnchorPoint: "Anchor-4" 1285 1000 basechar 0
AnchorPoint: "Anchor-3" 615 -100 basechar 0
AnchorPoint: "Anchor-2" 615 -100 basechar 0
AnchorPoint: "Anchor-1" 615 -100 basechar 0
AnchorPoint: "Anchor-0" 615 1530 basechar 0
LayerCount: 2
Fore
SplineSet
1140 420 m 0,0,1
 1140 329 1140 329 1110.5 250.5 c 128,-1,2
 1081 172 1081 172 1016.5 114 c 128,-1,3
 952 56 952 56 850.5 23 c 128,-1,4
 749 -10 749 -10 605 -10 c 0,5,6
 528 -10 528 -10 449.5 -8.5 c 128,-1,7
 371 -7 371 -7 306 -5 c 0,8,9
 230 -3 230 -3 160 0 c 1,10,11
 166 30 166 30 169 77 c 128,-1,12
 172 124 172 124 173.5 183 c 128,-1,13
 175 242 175 242 175 311 c 2,14,-1
 175 1143 l 2,15,16
 175 1213 175 1213 173.5 1273.5 c 128,-1,17
 172 1334 172 1334 169 1382 c 128,-1,18
 166 1430 166 1430 160 1460 c 1,19,20
 193 1462 193 1462 242 1464 c 128,-1,21
 291 1466 291 1466 349.5 1467.5 c 128,-1,22
 408 1469 408 1469 472.5 1469.5 c 128,-1,23
 537 1470 537 1470 600 1470 c 0,24,25
 711 1470 711 1470 798 1452 c 128,-1,26
 885 1434 885 1434 944 1393 c 128,-1,27
 1003 1352 1003 1352 1034 1285 c 128,-1,28
 1065 1218 1065 1218 1065 1120 c 0,29,30
 1065 1057 1065 1057 1046 1006.5 c 128,-1,31
 1027 956 1027 956 993.5 916.5 c 128,-1,32
 960 877 960 877 915.5 848 c 128,-1,33
 871 819 871 819 820 800 c 1,34,35
 878 785 878 785 935 758.5 c 128,-1,36
 992 732 992 732 1037.5 688 c 128,-1,37
 1083 644 1083 644 1111.5 578.5 c 128,-1,38
 1140 513 1140 513 1140 420 c 0,0,1
365 155 m 1,39,40
 379 154 379 154 403 153 c 128,-1,41
 427 152 427 152 459 151.5 c 128,-1,42
 491 151 491 151 529.5 150.5 c 128,-1,43
 568 150 568 150 610 150 c 0,44,45
 674 150 674 150 734.5 163 c 128,-1,46
 795 176 795 176 841.5 207 c 128,-1,47
 888 238 888 238 916.5 290 c 128,-1,48
 945 342 945 342 945 420 c 0,49,50
 945 559 945 559 860.5 629.5 c 128,-1,51
 776 700 776 700 600 700 c 2,52,-1
 365 700 l 1,53,-1
 365 155 l 1,39,40
365 855 m 1,54,-1
 560 855 l 2,55,56
 640 855 640 855 698.5 872 c 128,-1,57
 757 889 757 889 795 920 c 128,-1,58
 833 951 833 951 851.5 994.5 c 128,-1,59
 870 1038 870 1038 870 1090 c 0,60,61
 870 1146 870 1146 854.5 1188 c 128,-1,62
 839 1230 839 1230 805.5 1258.5 c 128,-1,63
 772 1287 772 1287 718.5 1301 c 128,-1,64
 665 1315 665 1315 590 1315 c 0,65,66
 561 1315 561 1315 528 1314.5 c 128,-1,67
 495 1314 495 1314 464 1313 c 128,-1,68
 433 1312 433 1312 407 1311.5 c 128,-1,69
 381 1311 381 1311 365 1310 c 1,70,-1
 365 855 l 1,54,-1
EndSplineSet
EndChar

StartChar: C
Encoding: 67 67 38
Width: 1355
GlyphClass: 2
Flags: W
AnchorPoint: "Anchor-4" 1355 1000 basechar 0
AnchorPoint: "Anchor-3" 750 -100 basechar 0
AnchorPoint: "Anchor-2" 750 0 basechar 0
AnchorPoint: "Anchor-1" 750 -100 basechar 0
AnchorPoint: "Anchor-0" 750 1530 basechar 0
LayerCount: 2
Fore
SplineSet
1230 140 m 1,0,1
 1186 99 1186 99 1127 68.5 c 128,-1,2
 1068 38 1068 38 1003.5 17 c 128,-1,3
 939 -4 939 -4 873 -14.5 c 128,-1,4
 807 -25 807 -25 750 -25 c 0,5,6
 598 -25 598 -25 477 26.5 c 128,-1,7
 356 78 356 78 271 173.5 c 128,-1,8
 186 269 186 269 140.5 405 c 128,-1,9
 95 541 95 541 95 710 c 0,10,11
 95 903 95 903 151 1048.5 c 128,-1,12
 207 1194 207 1194 300.5 1291 c 128,-1,13
 394 1388 394 1388 516 1436.5 c 128,-1,14
 638 1485 638 1485 770 1485 c 0,15,16
 824 1485 824 1485 880 1478 c 128,-1,17
 936 1471 936 1471 992.5 1455 c 128,-1,18
 1049 1439 1049 1439 1105 1412 c 128,-1,19
 1161 1385 1161 1385 1215 1345 c 1,20,-1
 1155 1165 l 1,21,22
 1108 1207 1108 1207 1059 1236 c 128,-1,23
 1010 1265 1010 1265 961 1282.5 c 128,-1,24
 912 1300 912 1300 863.5 1307.5 c 128,-1,25
 815 1315 815 1315 770 1315 c 0,26,27
 665 1315 665 1315 577 1278.5 c 128,-1,28
 489 1242 489 1242 425.5 1169 c 128,-1,29
 362 1096 362 1096 326 987.5 c 128,-1,30
 290 879 290 879 290 735 c 0,31,32
 290 619 290 619 321 513 c 128,-1,33
 352 407 352 407 412 326.5 c 128,-1,34
 472 246 472 246 559.5 198 c 128,-1,35
 647 150 647 150 760 150 c 0,36,37
 817 150 817 150 875.5 163 c 128,-1,38
 934 176 934 176 990 200.5 c 128,-1,39
 1046 225 1046 225 1097 259 c 128,-1,40
 1148 293 1148 293 1190 335 c 1,41,-1
 1230 140 l 1,0,1
EndSplineSet
EndChar

StartChar: D
Encoding: 68 68 39
Width: 1435
GlyphClass: 2
Flags: W
AnchorPoint: "Anchor-4" 1435 1000 basechar 0
AnchorPoint: "Anchor-3" 715 -100 basechar 0
AnchorPoint: "Anchor-2" 715 -100 basechar 0
AnchorPoint: "Anchor-1" 715 -100 basechar 0
AnchorPoint: "Anchor-0" 715 1530 basechar 0
LayerCount: 2
Fore
SplineSet
175 455 m 2,0,-1
 175 1143 l 2,1,2
 175 1213 175 1213 173.5 1273.5 c 128,-1,3
 172 1334 172 1334 169 1382 c 128,-1,4
 166 1430 166 1430 160 1460 c 1,5,6
 181 1461 181 1461 213.5 1462.5 c 128,-1,7
 246 1464 246 1464 285.5 1465 c 128,-1,8
 325 1466 325 1466 368.5 1467 c 128,-1,9
 412 1468 412 1468 455.5 1468.5 c 128,-1,10
 499 1469 499 1469 540 1469.5 c 128,-1,11
 581 1470 581 1470 615 1470 c 0,12,13
 655 1470 655 1470 706.5 1465.5 c 128,-1,14
 758 1461 758 1461 814.5 1448 c 128,-1,15
 871 1435 871 1435 930.5 1411.5 c 128,-1,16
 990 1388 990 1388 1045.5 1350 c 128,-1,17
 1101 1312 1101 1312 1150 1258 c 128,-1,18
 1199 1204 1199 1204 1235.5 1130 c 128,-1,19
 1272 1056 1272 1056 1293.5 959.5 c 128,-1,20
 1315 863 1315 863 1315 740 c 0,21,22
 1315 591 1315 591 1282 477.5 c 128,-1,23
 1249 364 1249 364 1193.5 281 c 128,-1,24
 1138 198 1138 198 1065 142 c 128,-1,25
 992 86 992 86 912 52 c 128,-1,26
 832 18 832 18 750 4 c 128,-1,27
 668 -10 668 -10 595 -10 c 0,28,29
 571 -10 571 -10 539.5 -9.5 c 128,-1,30
 508 -9 508 -9 473 -8.5 c 128,-1,31
 438 -8 438 -8 401 -7 c 128,-1,32
 364 -6 364 -6 329 -5 c 0,33,34
 247 -3 247 -3 160 0 c 1,35,36
 166 30 166 30 168.5 77 c 128,-1,37
 171 124 171 124 172.5 183 c 128,-1,38
 174 242 174 242 174.5 311.5 c 128,-1,39
 175 381 175 381 175 455 c 2,0,-1
365 165 m 1,40,41
 400 162 400 162 456.5 158.5 c 128,-1,42
 513 155 513 155 585 155 c 0,43,44
 652 155 652 155 717.5 168 c 128,-1,45
 783 181 783 181 842.5 209.5 c 128,-1,46
 902 238 902 238 953 283 c 128,-1,47
 1004 328 1004 328 1041 390.5 c 128,-1,48
 1078 453 1078 453 1099 535 c 128,-1,49
 1120 617 1120 617 1120 720 c 0,50,51
 1120 888 1120 888 1077.5 1001 c 128,-1,52
 1035 1114 1035 1114 963 1182.5 c 128,-1,53
 891 1251 891 1251 794.5 1280.5 c 128,-1,54
 698 1310 698 1310 590 1310 c 0,55,56
 565 1310 565 1310 534 1309.5 c 128,-1,57
 503 1309 503 1309 471.5 1308 c 128,-1,58
 440 1307 440 1307 412 1306.5 c 128,-1,59
 384 1306 384 1306 365 1305 c 1,60,-1
 365 165 l 1,40,41
EndSplineSet
EndChar

StartChar: E
Encoding: 69 69 40
Width: 1160
GlyphClass: 2
Flags: W
AnchorPoint: "Anchor-4" 1160 1000 basechar 0
AnchorPoint: "Anchor-3" 917 0 basechar 0
AnchorPoint: "Anchor-2" 600 0 basechar 0
AnchorPoint: "Anchor-1" 600 -100 basechar 0
AnchorPoint: "Anchor-0" 600 1530 basechar 0
LayerCount: 2
Fore
SplineSet
935 845 m 1,0,-1
 935 685 l 1,1,-1
 365 685 l 1,2,-1
 365 165 l 1,3,-1
 629 165 l 2,4,5
 778 165 778 165 879 167 c 128,-1,6
 980 169 980 169 1040 180 c 1,7,-1
 1040 0 l 1,8,-1
 160 0 l 1,9,10
 171 60 171 60 173 173.5 c 128,-1,11
 175 287 175 287 175 435 c 2,12,-1
 175 1025 l 2,13,14
 175 1173 175 1173 173 1286.5 c 128,-1,15
 171 1400 171 1400 160 1460 c 1,16,-1
 1010 1460 l 1,17,-1
 1010 1295 l 1,18,-1
 365 1295 l 1,19,-1
 365 845 l 1,20,-1
 935 845 l 1,0,-1
EndSplineSet
EndChar

StartChar: F
Encoding: 70 70 41
Width: 1150
GlyphClass: 2
Flags: W
AnchorPoint: "Anchor-4" 1150 1000 basechar 0
AnchorPoint: "Anchor-3" 595 -100 basechar 0
AnchorPoint: "Anchor-2" 595 -100 basechar 0
AnchorPoint: "Anchor-1" 595 -100 basechar 0
AnchorPoint: "Anchor-0" 595 1530 basechar 0
LayerCount: 2
Fore
SplineSet
945 835 m 1,0,-1
 945 675 l 1,1,-1
 365 675 l 1,2,-1
 365 435 l 2,3,4
 365 286 365 286 367 172.5 c 128,-1,5
 369 59 369 59 380 0 c 1,6,-1
 160 0 l 1,7,8
 171 60 171 60 173 173.5 c 128,-1,9
 175 287 175 287 175 435 c 2,10,-1
 175 1160 l 2,11,12
 175 1227 175 1227 173.5 1283.5 c 128,-1,13
 172 1340 172 1340 169 1385 c 128,-1,14
 166 1430 166 1430 160 1460 c 1,15,-1
 1030 1460 l 1,16,-1
 1030 1295 l 1,17,-1
 365 1295 l 1,18,-1
 365 835 l 1,19,-1
 945 835 l 1,0,-1
EndSplineSet
EndChar

StartChar: G
Encoding: 71 71 42
Width: 1420
GlyphClass: 2
Flags: W
AnchorPoint: "Anchor-4" 1420 1000 basechar 0
AnchorPoint: "Anchor-3" 745 -100 basechar 0
AnchorPoint: "Anchor-2" 745 0 basechar 0
AnchorPoint: "Anchor-1" 745 -100 basechar 0
AnchorPoint: "Anchor-0" 745 1530 basechar 0
LayerCount: 2
Fore
SplineSet
1275 155 m 1,0,1
 1198 101 1198 101 1130 66 c 128,-1,2
 1062 31 1062 31 998 11 c 128,-1,3
 934 -9 934 -9 872 -17 c 128,-1,4
 810 -25 810 -25 745 -25 c 0,5,6
 603 -25 603 -25 484 24 c 128,-1,7
 365 73 365 73 278.5 168 c 128,-1,8
 192 263 192 263 143.5 401.5 c 128,-1,9
 95 540 95 540 95 720 c 256,10,11
 95 900 95 900 148.5 1042 c 128,-1,12
 202 1184 202 1184 295 1282.5 c 128,-1,13
 388 1381 388 1381 513.5 1433 c 128,-1,14
 639 1485 639 1485 783 1485 c 0,15,16
 844 1485 844 1485 901.5 1479.5 c 128,-1,17
 959 1474 959 1474 1016.5 1459 c 128,-1,18
 1074 1444 1074 1444 1134 1416.5 c 128,-1,19
 1194 1389 1194 1389 1260 1345 c 1,20,-1
 1195 1165 l 1,21,22
 1139 1210 1139 1210 1086.5 1239.5 c 128,-1,23
 1034 1269 1034 1269 983 1285.5 c 128,-1,24
 932 1302 932 1302 882.5 1308.5 c 128,-1,25
 833 1315 833 1315 783 1315 c 0,26,27
 669 1315 669 1315 577.5 1275 c 128,-1,28
 486 1235 486 1235 422 1161 c 128,-1,29
 358 1087 358 1087 324 981.5 c 128,-1,30
 290 876 290 876 290 745 c 0,31,32
 290 607 290 607 322.5 497 c 128,-1,33
 355 387 355 387 416 309.5 c 128,-1,34
 477 232 477 232 563.5 191 c 128,-1,35
 650 150 650 150 757 150 c 0,36,37
 802 150 802 150 841.5 154.5 c 128,-1,38
 881 159 881 159 920 170 c 128,-1,39
 959 181 959 181 999 199 c 128,-1,40
 1039 217 1039 217 1085 245 c 1,41,-1
 1085 580 l 1,42,-1
 735 580 l 1,43,-1
 735 745 l 1,44,-1
 1275 745 l 1,45,-1
 1275 155 l 1,0,1
EndSplineSet
EndChar

StartChar: H
Encoding: 72 72 43
Width: 1475
GlyphClass: 2
Flags: W
AnchorPoint: "Anchor-4" 1475 1000 basechar 0
AnchorPoint: "Anchor-3" 725 -100 basechar 0
AnchorPoint: "Anchor-2" 725 0 basechar 0
AnchorPoint: "Anchor-1" 725 -100 basechar 0
AnchorPoint: "Anchor-0" 725 1530 basechar 0
LayerCount: 2
Fore
SplineSet
1085 0 m 1,0,-1
 1085 675 l 1,1,-1
 365 675 l 1,2,-1
 365 0 l 1,3,-1
 160 0 l 1,4,5
 171 60 171 60 173 173.5 c 128,-1,6
 175 287 175 287 175 435 c 2,7,-1
 175 1025 l 2,8,9
 175 1173 175 1173 173 1286.5 c 128,-1,10
 171 1400 171 1400 160 1460 c 1,11,-1
 365 1460 l 1,12,-1
 365 835 l 1,13,-1
 1085 835 l 1,14,-1
 1085 1460 l 1,15,-1
 1290 1460 l 1,16,17
 1279 1400 1279 1400 1277 1286.5 c 128,-1,18
 1275 1173 1275 1173 1275 1025 c 2,19,-1
 1275 435 l 2,20,21
 1275 287 1275 287 1277 173.5 c 128,-1,22
 1279 60 1279 60 1290 0 c 1,23,-1
 1085 0 l 1,0,-1
EndSplineSet
EndChar

StartChar: I
Encoding: 73 73 44
Width: 975
GlyphClass: 2
Flags: W
AnchorPoint: "Anchor-4" 975 1000 basechar 0
AnchorPoint: "Anchor-3" 673 0 basechar 0
AnchorPoint: "Anchor-2" 477 0 basechar 0
AnchorPoint: "Anchor-1" 477 -100 basechar 0
AnchorPoint: "Anchor-0" 477 1530 basechar 0
LayerCount: 2
Fore
SplineSet
815 1460 m 1,0,-1
 815 1315 l 1,1,-1
 570 1315 l 1,2,-1
 570 145 l 1,3,-1
 815 145 l 1,4,-1
 815 0 l 1,5,-1
 140 0 l 1,6,-1
 140 145 l 1,7,-1
 380 145 l 1,8,-1
 380 1315 l 1,9,-1
 140 1315 l 1,10,-1
 140 1460 l 1,11,-1
 815 1460 l 1,0,-1
EndSplineSet
EndChar

StartChar: J
Encoding: 74 74 45
Width: 965
GlyphClass: 2
Flags: W
AnchorPoint: "Anchor-4" 965 1000 basechar 0
AnchorPoint: "Anchor-3" 407 -100 basechar 0
AnchorPoint: "Anchor-2" 407 -100 basechar 0
AnchorPoint: "Anchor-1" 407 -100 basechar 0
AnchorPoint: "Anchor-0" 489 1530 basechar 0
LayerCount: 2
Fore
SplineSet
345 -25 m 0,0,1
 309 -25 309 -25 266.5 -18.5 c 128,-1,2
 224 -12 224 -12 181 2 c 128,-1,3
 138 16 138 16 100 38 c 128,-1,4
 62 60 62 60 35 90 c 1,5,-1
 80 275 l 1,6,7
 105 246 105 246 136 223.5 c 128,-1,8
 167 201 167 201 200.5 186 c 128,-1,9
 234 171 234 171 269.5 163 c 128,-1,10
 305 155 305 155 340 155 c 0,11,12
 395 155 395 155 441 174.5 c 128,-1,13
 487 194 487 194 520 234.5 c 128,-1,14
 553 275 553 275 571.5 337 c 128,-1,15
 590 399 590 399 590 485 c 2,16,-1
 590 980 l 2,17,18
 590 1053 590 1053 589.5 1122.5 c 128,-1,19
 589 1192 589 1192 587.5 1253.5 c 128,-1,20
 586 1315 586 1315 583 1367.5 c 128,-1,21
 580 1420 580 1420 575 1460 c 1,22,-1
 780 1460 l 1,23,-1
 780 535 l 2,24,25
 780 379 780 379 748 272 c 128,-1,26
 716 165 716 165 658.5 99 c 128,-1,27
 601 33 601 33 521 4 c 128,-1,28
 441 -25 441 -25 345 -25 c 0,0,1
EndSplineSet
EndChar

StartChar: K
Encoding: 75 75 46
Width: 1310
GlyphClass: 2
Flags: W
AnchorPoint: "Anchor-4" 1310 1000 basechar 0
AnchorPoint: "Anchor-3" 695 -100 basechar 0
AnchorPoint: "Anchor-2" 650 0 basechar 0
AnchorPoint: "Anchor-1" 695 -100 basechar 0
AnchorPoint: "Anchor-0" 650 1530 basechar 0
LayerCount: 2
Fore
SplineSet
365 787 m 1,0,-1
 925 1460 l 1,1,-1
 1165 1460 l 1,2,-1
 559 773 l 1,3,-1
 1230 0 l 1,4,-1
 985 0 l 1,5,-1
 365 717 l 1,6,-1
 365 0 l 1,7,-1
 160 0 l 1,8,9
 171 60 171 60 173 173.5 c 128,-1,10
 175 287 175 287 175 435 c 2,11,-1
 175 1025 l 2,12,13
 175 1173 175 1173 173 1286.5 c 128,-1,14
 171 1400 171 1400 160 1460 c 1,15,-1
 365 1460 l 1,16,-1
 365 787 l 1,0,-1
EndSplineSet
EndChar

StartChar: L
Encoding: 76 76 47
Width: 1080
GlyphClass: 2
Flags: W
AnchorPoint: "Anchor-4" 580 1000 basechar 0
AnchorPoint: "Anchor-3" 592 -100 basechar 0
AnchorPoint: "Anchor-2" 592 0 basechar 0
AnchorPoint: "Anchor-1" 592 -100 basechar 0
AnchorPoint: "Anchor-0" 592 1530 basechar 0
LayerCount: 2
Fore
SplineSet
589 165 m 2,0,1
 663 165 663 165 729 165.5 c 128,-1,2
 795 166 795 166 851 167.5 c 128,-1,3
 907 169 907 169 951 172 c 128,-1,4
 995 175 995 175 1025 180 c 1,5,-1
 1025 0 l 1,6,-1
 160 0 l 1,7,8
 171 60 171 60 173 173.5 c 128,-1,9
 175 287 175 287 175 435 c 2,10,-1
 175 1025 l 2,11,12
 175 1173 175 1173 173 1286.5 c 128,-1,13
 171 1400 171 1400 160 1460 c 1,14,-1
 365 1460 l 1,15,-1
 365 165 l 1,16,-1
 589 165 l 2,0,1
EndSplineSet
EndChar

StartChar: M
Encoding: 77 77 48
Width: 1795
GlyphClass: 2
Flags: W
AnchorPoint: "Anchor-4" 1795 1000 basechar 0
AnchorPoint: "Anchor-3" 885 -100 basechar 0
AnchorPoint: "Anchor-2" 885 -100 basechar 0
AnchorPoint: "Anchor-1" 885 -100 basechar 0
AnchorPoint: "Anchor-0" 885 1530 basechar 0
LayerCount: 2
Fore
SplineSet
455 1460 m 1,0,-1
 885 205 l 1,1,-1
 1320 1460 l 1,2,-1
 1540 1460 l 1,3,4
 1552 1103 1552 1103 1564 804 c 0,5,6
 1567 719 1567 719 1571 633.5 c 128,-1,7
 1575 548 1575 548 1579 466.5 c 128,-1,8
 1583 385 1583 385 1587 311.5 c 128,-1,9
 1591 238 1591 238 1594.5 177 c 128,-1,10
 1598 116 1598 116 1602 70.5 c 128,-1,11
 1606 25 1606 25 1610 0 c 1,12,-1
 1425 0 l 1,13,-1
 1397 1198 l 1,14,-1
 985 0 l 1,15,-1
 790 0 l 1,16,-1
 376 1195 l 1,17,-1
 345 0 l 1,18,-1
 160 0 l 1,19,20
 163 25 163 25 167 70.5 c 128,-1,21
 171 116 171 116 174.5 177 c 128,-1,22
 178 238 178 238 182 311.5 c 128,-1,23
 186 385 186 385 190 466.5 c 128,-1,24
 194 548 194 548 197.5 633.5 c 128,-1,25
 201 719 201 719 205 804 c 0,26,27
 217 1103 217 1103 230 1460 c 1,28,-1
 455 1460 l 1,0,-1
EndSplineSet
EndChar

StartChar: N
Encoding: 78 78 49
Width: 1500
GlyphClass: 2
Flags: W
AnchorPoint: "Anchor-4" 1500 1000 basechar 0
AnchorPoint: "Anchor-3" 737 -100 basechar 0
AnchorPoint: "Anchor-2" 737 0 basechar 0
AnchorPoint: "Anchor-1" 737 -100 basechar 0
AnchorPoint: "Anchor-0" 737 1530 basechar 0
LayerCount: 2
Fore
SplineSet
340 1152 m 1,0,-1
 340 0 l 1,1,-1
 160 0 l 1,2,3
 171 60 171 60 173 173.5 c 128,-1,4
 175 287 175 287 175 435 c 2,5,-1
 175 1025 l 2,6,7
 175 1173 175 1173 173 1286.5 c 128,-1,8
 171 1400 171 1400 160 1460 c 1,9,-1
 340 1460 l 1,10,-1
 1135 303 l 1,11,-1
 1135 1460 l 1,12,-1
 1315 1460 l 1,13,14
 1310 1430 1310 1430 1307 1386 c 128,-1,15
 1304 1342 1304 1342 1302.5 1286.5 c 128,-1,16
 1301 1231 1301 1231 1300.5 1165 c 128,-1,17
 1300 1099 1300 1099 1300 1025 c 2,18,-1
 1300 0 l 1,19,-1
 1135 0 l 1,20,-1
 340 1152 l 1,0,-1
EndSplineSet
EndChar

StartChar: O
Encoding: 79 79 50
Width: 1460
GlyphClass: 2
Flags: W
AnchorPoint: "Anchor-4" 1460 1000 basechar 0
AnchorPoint: "Anchor-3" 956 0 basechar 0
AnchorPoint: "Anchor-2" 717 0 basechar 0
AnchorPoint: "Anchor-1" 717 -100 basechar 0
AnchorPoint: "Anchor-0" 717 1530 basechar 0
LayerCount: 2
Fore
SplineSet
1340 740 m 256,0,1
 1340 560 1340 560 1286.5 418 c 128,-1,2
 1233 276 1233 276 1144.5 177.5 c 128,-1,3
 1056 79 1056 79 943 27 c 128,-1,4
 830 -25 830 -25 710 -25 c 0,5,6
 589 -25 589 -25 478 24 c 128,-1,7
 367 73 367 73 282 168 c 128,-1,8
 197 263 197 263 146 401.5 c 128,-1,9
 95 540 95 540 95 720 c 0,10,11
 95 840 95 840 119.5 943 c 128,-1,12
 144 1046 144 1046 187.5 1131 c 128,-1,13
 231 1216 231 1216 291 1282 c 128,-1,14
 351 1348 351 1348 421.5 1393 c 128,-1,15
 492 1438 492 1438 570.5 1461.5 c 128,-1,16
 649 1485 649 1485 730 1485 c 0,17,18
 849 1485 849 1485 959.5 1436 c 128,-1,19
 1070 1387 1070 1387 1154.5 1292 c 128,-1,20
 1239 1197 1239 1197 1289.5 1058.5 c 128,-1,21
 1340 920 1340 920 1340 740 c 256,0,1
1145 715 m 0,22,23
 1145 853 1145 853 1114.5 963.5 c 128,-1,24
 1084 1074 1084 1074 1028 1151 c 128,-1,25
 972 1228 972 1228 893.5 1269 c 128,-1,26
 815 1310 815 1310 720 1310 c 256,27,28
 625 1310 625 1310 546 1270.5 c 128,-1,29
 467 1231 467 1231 410 1157.5 c 128,-1,30
 353 1084 353 1084 321.5 979.5 c 128,-1,31
 290 875 290 875 290 745 c 0,32,33
 290 608 290 608 320.5 498 c 128,-1,34
 351 388 351 388 407.5 310.5 c 128,-1,35
 464 233 464 233 543 191.5 c 128,-1,36
 622 150 622 150 720 150 c 0,37,38
 812 150 812 150 890 188.5 c 128,-1,39
 968 227 968 227 1024.5 299.5 c 128,-1,40
 1081 372 1081 372 1113 477 c 128,-1,41
 1145 582 1145 582 1145 715 c 0,22,23
EndSplineSet
EndChar

StartChar: P
Encoding: 80 80 51
Width: 1195
GlyphClass: 2
Flags: W
AnchorPoint: "Anchor-4" 1195 1000 basechar 0
AnchorPoint: "Anchor-3" 637 -100 basechar 0
AnchorPoint: "Anchor-2" 637 -100 basechar 0
AnchorPoint: "Anchor-1" 637 -100 basechar 0
AnchorPoint: "Anchor-0" 637 1530 basechar 0
LayerCount: 2
Fore
SplineSet
365 435 m 2,0,1
 365 286 365 286 367 172.5 c 128,-1,2
 369 59 369 59 380 0 c 1,3,-1
 160 0 l 1,4,5
 171 60 171 60 173 173.5 c 128,-1,6
 175 287 175 287 175 435 c 2,7,-1
 175 1143 l 2,8,9
 175 1213 175 1213 173.5 1273.5 c 128,-1,10
 172 1334 172 1334 169 1382 c 128,-1,11
 166 1430 166 1430 160 1460 c 1,12,13
 223 1462 223 1462 293 1465 c 0,14,15
 353 1467 353 1467 428.5 1468.5 c 128,-1,16
 504 1470 504 1470 585 1470 c 0,17,18
 706 1470 706 1470 804 1442.5 c 128,-1,19
 902 1415 902 1415 971 1359.5 c 128,-1,20
 1040 1304 1040 1304 1077.5 1221.5 c 128,-1,21
 1115 1139 1115 1139 1115 1030 c 0,22,23
 1115 920 1115 920 1078.5 832 c 128,-1,24
 1042 744 1042 744 973.5 682.5 c 128,-1,25
 905 621 905 621 806.5 588 c 128,-1,26
 708 555 708 555 585 555 c 0,27,28
 530 555 530 555 472 557.5 c 128,-1,29
 414 560 414 560 365 565 c 1,30,-1
 365 435 l 2,0,1
365 720 m 1,31,32
 413 714 413 714 463 712 c 128,-1,33
 513 710 513 710 570 710 c 0,34,35
 675 710 675 710 743.5 734 c 128,-1,36
 812 758 812 758 852.5 799.5 c 128,-1,37
 893 841 893 841 909 895.5 c 128,-1,38
 925 950 925 950 925 1010 c 256,39,40
 925 1070 925 1070 907.5 1124.5 c 128,-1,41
 890 1179 890 1179 849.5 1220 c 128,-1,42
 809 1261 809 1261 742 1285.5 c 128,-1,43
 675 1310 675 1310 575 1310 c 0,44,45
 540 1310 540 1310 512 1309.5 c 128,-1,46
 484 1309 484 1309 460 1308.5 c 128,-1,47
 436 1308 436 1308 413 1307 c 128,-1,48
 390 1306 390 1306 365 1305 c 1,49,-1
 365 720 l 1,31,32
EndSplineSet
EndChar

StartChar: Q
Encoding: 81 81 52
Width: 1475
GlyphClass: 2
Flags: W
AnchorPoint: "Anchor-4" 1475 1000 basechar 0
AnchorPoint: "Anchor-3" 717 -270 basechar 0
AnchorPoint: "Anchor-2" 717 -270 basechar 0
AnchorPoint: "Anchor-1" 717 -270 basechar 0
AnchorPoint: "Anchor-0" 717 1530 basechar 0
LayerCount: 2
Fore
SplineSet
1145 715 m 0,0,1
 1145 853 1145 853 1114.5 963.5 c 128,-1,2
 1084 1074 1084 1074 1028 1151 c 128,-1,3
 972 1228 972 1228 893.5 1269 c 128,-1,4
 815 1310 815 1310 720 1310 c 256,5,6
 625 1310 625 1310 546 1270.5 c 128,-1,7
 467 1231 467 1231 410 1157.5 c 128,-1,8
 353 1084 353 1084 321.5 979.5 c 128,-1,9
 290 875 290 875 290 745 c 0,10,11
 290 608 290 608 320.5 498 c 128,-1,12
 351 388 351 388 407.5 310.5 c 128,-1,13
 464 233 464 233 543 191.5 c 128,-1,14
 622 150 622 150 720 150 c 0,15,16
 812 150 812 150 890 188.5 c 128,-1,17
 968 227 968 227 1024.5 299.5 c 128,-1,18
 1081 372 1081 372 1113 477 c 128,-1,19
 1145 582 1145 582 1145 715 c 0,0,1
1340 740 m 0,20,21
 1340 642 1340 642 1324 549 c 128,-1,22
 1308 456 1308 456 1276 373.5 c 128,-1,23
 1244 291 1244 291 1195 222.5 c 128,-1,24
 1146 154 1146 154 1080 105 c 1,25,26
 1174 47 1174 47 1264 7.5 c 128,-1,27
 1354 -32 1354 -32 1455 -45 c 1,28,29
 1446 -59 1446 -59 1431.5 -83 c 128,-1,30
 1417 -107 1417 -107 1399 -131 c 128,-1,31
 1381 -155 1381 -155 1360.5 -172.5 c 128,-1,32
 1340 -190 1340 -190 1320 -190 c 0,33,34
 1299 -190 1299 -190 1262.5 -176 c 128,-1,35
 1226 -162 1226 -162 1182.5 -141 c 128,-1,36
 1139 -120 1139 -120 1092 -95 c 128,-1,37
 1045 -70 1045 -70 1002.5 -49 c 128,-1,38
 960 -28 960 -28 926 -14 c 128,-1,39
 892 0 892 0 875 0 c 1,40,41
 832 -14 832 -14 792 -19.5 c 128,-1,42
 752 -25 752 -25 705 -25 c 0,43,44
 584 -25 584 -25 473.5 24 c 128,-1,45
 363 73 363 73 279 168 c 128,-1,46
 195 263 195 263 145 401.5 c 128,-1,47
 95 540 95 540 95 720 c 0,48,49
 95 840 95 840 119.5 943 c 128,-1,50
 144 1046 144 1046 187.5 1131 c 128,-1,51
 231 1216 231 1216 291 1282 c 128,-1,52
 351 1348 351 1348 421.5 1393 c 128,-1,53
 492 1438 492 1438 570.5 1461.5 c 128,-1,54
 649 1485 649 1485 730 1485 c 0,55,56
 851 1485 851 1485 961.5 1436 c 128,-1,57
 1072 1387 1072 1387 1156 1292 c 128,-1,58
 1240 1197 1240 1197 1290 1058.5 c 128,-1,59
 1340 920 1340 920 1340 740 c 0,20,21
EndSplineSet
Substitution2: "'aalt' Access All Alternates lookup 7 subtable" Q.DiagTail
EndChar

StartChar: R
Encoding: 82 82 53
Width: 1305
GlyphClass: 2
Flags: W
AnchorPoint: "Anchor-4" 1305 1000 basechar 0
AnchorPoint: "Anchor-3" 610 -100 basechar 0
AnchorPoint: "Anchor-2" 650 0 basechar 0
AnchorPoint: "Anchor-1" 610 -100 basechar 0
AnchorPoint: "Anchor-0" 610 1530 basechar 0
LayerCount: 2
Fore
SplineSet
365 435 m 2,0,1
 365 361 365 361 365.5 295 c 128,-1,2
 366 229 366 229 367.5 173 c 128,-1,3
 369 117 369 117 372 73 c 128,-1,4
 375 29 375 29 380 0 c 1,5,-1
 160 0 l 1,6,7
 171 60 171 60 173 173.5 c 128,-1,8
 175 287 175 287 175 435 c 2,9,-1
 175 1143 l 2,10,11
 175 1213 175 1213 173.5 1273.5 c 128,-1,12
 172 1334 172 1334 169 1382 c 128,-1,13
 166 1430 166 1430 160 1460 c 1,14,15
 212 1462 212 1462 275 1465 c 0,16,17
 329 1467 329 1467 403 1468.5 c 128,-1,18
 477 1470 477 1470 565 1470 c 0,19,20
 682 1470 682 1470 778.5 1446.5 c 128,-1,21
 875 1423 875 1423 944 1373.5 c 128,-1,22
 1013 1324 1013 1324 1051.5 1246 c 128,-1,23
 1090 1168 1090 1168 1090 1060 c 0,24,25
 1090 969 1090 969 1061.5 899 c 128,-1,26
 1033 829 1033 829 986.5 778.5 c 128,-1,27
 940 728 940 728 881 695 c 128,-1,28
 822 662 822 662 761 645 c 1,29,30
 791 604 791 604 834.5 544.5 c 128,-1,31
 878 485 878 485 927.5 418.5 c 128,-1,32
 977 352 977 352 1027.5 283.5 c 128,-1,33
 1078 215 1078 215 1122 157 c 128,-1,34
 1166 99 1166 99 1199 57 c 128,-1,35
 1232 15 1232 15 1245 0 c 1,36,-1
 990 0 l 1,37,-1
 568 625 l 1,38,-1
 365 625 l 1,39,-1
 365 435 l 2,0,1
365 780 m 1,40,-1
 555 780 l 2,41,42
 725 780 725 780 812.5 850 c 128,-1,43
 900 920 900 920 900 1045 c 0,44,45
 900 1109 900 1109 880.5 1158.5 c 128,-1,46
 861 1208 861 1208 819.5 1241.5 c 128,-1,47
 778 1275 778 1275 712.5 1292.5 c 128,-1,48
 647 1310 647 1310 555 1310 c 0,49,50
 502 1310 502 1310 453.5 1308.5 c 128,-1,51
 405 1307 405 1307 365 1305 c 1,52,-1
 365 780 l 1,40,-1
EndSplineSet
EndChar

StartChar: S
Encoding: 83 83 54
Width: 1175
GlyphClass: 2
Flags: W
AnchorPoint: "Anchor-4" 1175 1000 basechar 0
AnchorPoint: "Anchor-3" 580 -100 basechar 0
AnchorPoint: "Anchor-2" 580 0 basechar 0
AnchorPoint: "Anchor-1" 580 -100 basechar 0
AnchorPoint: "Anchor-0" 580 1530 basechar 0
LayerCount: 2
Fore
SplineSet
960 1200 m 1,0,1
 906 1230 906 1230 860.5 1250.5 c 128,-1,2
 815 1271 815 1271 772 1284.5 c 128,-1,3
 729 1298 729 1298 686 1304 c 128,-1,4
 643 1310 643 1310 595 1310 c 0,5,6
 535 1310 535 1310 485.5 1292 c 128,-1,7
 436 1274 436 1274 400 1244 c 128,-1,8
 364 1214 364 1214 344.5 1175 c 128,-1,9
 325 1136 325 1136 325 1095 c 256,10,11
 325 1054 325 1054 336.5 1020.5 c 128,-1,12
 348 987 348 987 383 957.5 c 128,-1,13
 418 928 418 928 483 899.5 c 128,-1,14
 548 871 548 871 655 840 c 0,15,16
 754 811 754 811 830.5 772.5 c 128,-1,17
 907 734 907 734 959 684 c 128,-1,18
 1011 634 1011 634 1038 570 c 128,-1,19
 1065 506 1065 506 1065 425 c 0,20,21
 1065 324 1065 324 1025.5 241.5 c 128,-1,22
 986 159 986 159 917.5 99.5 c 128,-1,23
 849 40 849 40 758 7.5 c 128,-1,24
 667 -25 667 -25 565 -25 c 0,25,26
 493 -25 493 -25 424.5 -15 c 128,-1,27
 356 -5 356 -5 295.5 13 c 128,-1,28
 235 31 235 31 184 55.5 c 128,-1,29
 133 80 133 80 95 110 c 1,30,-1
 140 315 l 1,31,32
 240 228 240 228 346.5 189 c 128,-1,33
 453 150 453 150 565 150 c 0,34,35
 625 150 625 150 681 167 c 128,-1,36
 737 184 737 184 780 216.5 c 128,-1,37
 823 249 823 249 849 296.5 c 128,-1,38
 875 344 875 344 875 405 c 0,39,40
 875 444 875 444 862.5 479.5 c 128,-1,41
 850 515 850 515 812 549 c 128,-1,42
 774 583 774 583 703 616.5 c 128,-1,43
 632 650 632 650 515 685 c 256,44,45
 398 720 398 720 324 762 c 128,-1,46
 250 804 250 804 208 853.5 c 128,-1,47
 166 903 166 903 150.5 959.5 c 128,-1,48
 135 1016 135 1016 135 1080 c 256,49,50
 135 1144 135 1144 161.5 1215 c 128,-1,51
 188 1286 188 1286 245 1346 c 128,-1,52
 302 1406 302 1406 391 1445.5 c 128,-1,53
 480 1485 480 1485 605 1485 c 0,54,55
 663 1485 663 1485 713.5 1480 c 128,-1,56
 764 1475 764 1475 811.5 1464 c 128,-1,57
 859 1453 859 1453 905 1436 c 128,-1,58
 951 1419 951 1419 1000 1395 c 1,59,-1
 960 1200 l 1,0,1
EndSplineSet
EndChar

StartChar: T
Encoding: 84 84 55
Width: 1265
GlyphClass: 2
Flags: W
AnchorPoint: "Anchor-4" 1265 1000 basechar 0
AnchorPoint: "Anchor-3" 622 -100 basechar 0
AnchorPoint: "Anchor-2" 622 0 basechar 0
AnchorPoint: "Anchor-1" 622 -100 basechar 0
AnchorPoint: "Anchor-0" 622 1530 basechar 0
LayerCount: 2
Fore
SplineSet
1200 1460 m 1,0,-1
 1200 1275 l 1,1,2
 1140 1288 1140 1288 1081.5 1291.5 c 128,-1,3
 1023 1295 1023 1295 955 1295 c 2,4,-1
 715 1295 l 1,5,-1
 715 435 l 2,6,7
 715 287 715 287 718.5 173.5 c 128,-1,8
 722 60 722 60 735 0 c 1,9,-1
 505 0 l 1,10,11
 518 60 518 60 521.5 173.5 c 128,-1,12
 525 287 525 287 525 435 c 2,13,-1
 525 1295 l 1,14,-1
 290 1295 l 2,15,16
 223 1295 223 1295 164 1291.5 c 128,-1,17
 105 1288 105 1288 45 1275 c 1,18,-1
 45 1460 l 1,19,-1
 1200 1460 l 1,0,-1
EndSplineSet
EndChar

StartChar: U
Encoding: 85 85 56
Width: 1440
GlyphClass: 2
Flags: W
AnchorPoint: "Anchor-4" 1440 1000 basechar 0
AnchorPoint: "Anchor-3" 925 0 basechar 0
AnchorPoint: "Anchor-2" 707 0 basechar 0
AnchorPoint: "Anchor-1" 707 -100 basechar 0
AnchorPoint: "Anchor-0" 707 1530 basechar 0
LayerCount: 2
Fore
SplineSet
1255 1460 m 1,0,1
 1245 1400 1245 1400 1242.5 1290.5 c 128,-1,2
 1240 1181 1240 1181 1240 1025 c 2,3,-1
 1240 515 l 2,4,5
 1240 393 1240 393 1208 293.5 c 128,-1,6
 1176 194 1176 194 1110.5 123 c 128,-1,7
 1045 52 1045 52 945 13.5 c 128,-1,8
 845 -25 845 -25 710 -25 c 0,9,10
 573 -25 573 -25 472.5 13.5 c 128,-1,11
 372 52 372 52 306 123 c 128,-1,12
 240 194 240 194 207.5 293.5 c 128,-1,13
 175 393 175 393 175 515 c 2,14,-1
 175 1025 l 2,15,16
 175 1173 175 1173 172.5 1286.5 c 128,-1,17
 170 1400 170 1400 160 1460 c 1,18,-1
 365 1460 l 1,19,-1
 365 560 l 2,20,21
 365 462 365 462 382 383.5 c 128,-1,22
 399 305 399 305 439 249.5 c 128,-1,23
 479 194 479 194 545 164.5 c 128,-1,24
 611 135 611 135 710 135 c 0,25,26
 807 135 807 135 872 164.5 c 128,-1,27
 937 194 937 194 976.5 249.5 c 128,-1,28
 1016 305 1016 305 1033 383.5 c 128,-1,29
 1050 462 1050 462 1050 560 c 2,30,-1
 1050 1460 l 1,31,-1
 1255 1460 l 1,0,1
EndSplineSet
EndChar

StartChar: V
Encoding: 86 86 57
Width: 1365
GlyphClass: 2
Flags: W
AnchorPoint: "Anchor-4" 1365 1000 basechar 0
AnchorPoint: "Anchor-3" 850 0 basechar 0
AnchorPoint: "Anchor-2" 680 0 basechar 0
AnchorPoint: "Anchor-1" 672 -100 basechar 0
AnchorPoint: "Anchor-0" 672 1530 basechar 0
LayerCount: 2
Fore
SplineSet
1095 1460 m 1,0,-1
 1310 1460 l 1,1,2
 1296 1429 1296 1429 1282 1395.5 c 128,-1,3
 1268 1362 1268 1362 1251.5 1319.5 c 128,-1,4
 1235 1277 1235 1277 1215 1222.5 c 128,-1,5
 1195 1168 1195 1168 1170 1095 c 2,6,-1
 785 0 l 1,7,-1
 560 0 l 1,8,-1
 170 1095 l 2,9,10
 144 1167 144 1167 124.5 1221.5 c 128,-1,11
 105 1276 105 1276 89 1319 c 128,-1,12
 73 1362 73 1362 60 1395.5 c 128,-1,13
 47 1429 47 1429 35 1460 c 1,14,-1
 250 1460 l 1,15,-1
 672 195 l 1,16,-1
 1095 1460 l 1,0,-1
EndSplineSet
EndChar

StartChar: W
Encoding: 87 87 58
Width: 2080
GlyphClass: 2
Flags: W
AnchorPoint: "Anchor-4" 2080 1000 basechar 0
AnchorPoint: "Anchor-3" 1027 -100 basechar 0
AnchorPoint: "Anchor-2" 1027 -100 basechar 0
AnchorPoint: "Anchor-1" 1027 -100 basechar 0
AnchorPoint: "Anchor-0" 1027 1530 basechar 0
LayerCount: 2
Fore
SplineSet
1484 186 m 1,0,-1
 1795 1460 l 1,1,-1
 2015 1460 l 1,2,3
 2003 1429 2003 1429 1991 1395.5 c 128,-1,4
 1979 1362 1979 1362 1965.5 1319.5 c 128,-1,5
 1952 1277 1952 1277 1936 1222.5 c 128,-1,6
 1920 1168 1920 1168 1900 1095 c 2,7,-1
 1595 0 l 1,8,-1
 1370 0 l 1,9,-1
 1027 1176 l 1,10,-1
 685 0 l 1,11,-1
 460 0 l 1,12,-1
 155 1095 l 2,13,14
 135 1167 135 1167 119 1221.5 c 128,-1,15
 103 1276 103 1276 89.5 1319.5 c 128,-1,16
 76 1363 76 1363 64 1396.5 c 128,-1,17
 52 1430 52 1430 40 1460 c 1,18,-1
 260 1460 l 1,19,-1
 576 186 l 1,20,-1
 935 1460 l 1,21,-1
 1120 1460 l 1,22,-1
 1484 186 l 1,0,-1
EndSplineSet
EndChar

StartChar: X
Encoding: 88 88 59
Width: 1325
GlyphClass: 2
Flags: W
AnchorPoint: "Anchor-4" 1325 1000 basechar 0
AnchorPoint: "Anchor-3" 650 -100 basechar 0
AnchorPoint: "Anchor-2" 650 -100 basechar 0
AnchorPoint: "Anchor-1" 650 -100 basechar 0
AnchorPoint: "Anchor-0" 650 1530 basechar 0
LayerCount: 2
Fore
SplineSet
642 614 m 1,0,-1
 270 0 l 1,1,-1
 40 0 l 1,2,3
 64 32 64 32 84 60 c 128,-1,4
 104 88 104 88 128 124 c 128,-1,5
 152 160 152 160 184.5 211 c 128,-1,6
 217 262 217 262 265 340 c 2,7,-1
 537 781 l 1,8,-1
 330 1110 l 2,9,10
 282 1187 282 1187 247.5 1239.5 c 128,-1,11
 213 1292 213 1292 186 1330.5 c 128,-1,12
 159 1369 159 1369 136.5 1398.5 c 128,-1,13
 114 1428 114 1428 90 1460 c 1,14,-1
 325 1460 l 1,15,-1
 656 934 l 1,16,-1
 975 1460 l 1,17,-1
 1210 1460 l 1,18,19
 1187 1431 1187 1431 1164.5 1401.5 c 128,-1,20
 1142 1372 1142 1372 1115 1332.5 c 128,-1,21
 1088 1293 1088 1293 1053.5 1239.5 c 128,-1,22
 1019 1186 1019 1186 972 1110 c 2,23,-1
 761 767 l 1,24,-1
 1033 336 l 2,25,26
 1082 258 1082 258 1115.5 207 c 128,-1,27
 1149 156 1149 156 1173.5 120.5 c 128,-1,28
 1198 85 1198 85 1217.5 58 c 128,-1,29
 1237 31 1237 31 1260 0 c 1,30,-1
 1030 0 l 1,31,-1
 642 614 l 1,0,-1
EndSplineSet
EndChar

StartChar: Y
Encoding: 89 89 60
Width: 1320
GlyphClass: 2
Flags: W
AnchorPoint: "Anchor-4" 1320 1000 basechar 0
AnchorPoint: "Anchor-3" 650 -100 basechar 0
AnchorPoint: "Anchor-2" 650 -100 basechar 0
AnchorPoint: "Anchor-1" 650 -100 basechar 0
AnchorPoint: "Anchor-0" 650 1530 basechar 0
LayerCount: 2
Fore
SplineSet
265 1460 m 1,0,-1
 660 799 l 1,1,-1
 1035 1460 l 1,2,-1
 1265 1460 l 1,3,4
 1221 1397 1221 1397 1187 1345.5 c 128,-1,5
 1153 1294 1153 1294 1124.5 1248 c 128,-1,6
 1096 1202 1096 1202 1069.5 1158 c 128,-1,7
 1043 1114 1043 1114 1015 1065 c 2,8,-1
 745 603 l 1,9,-1
 745 435 l 2,10,11
 745 287 745 287 747 173.5 c 128,-1,12
 749 60 749 60 760 0 c 1,13,-1
 540 0 l 1,14,15
 551 60 551 60 553 173.5 c 128,-1,16
 555 287 555 287 555 435 c 2,17,-1
 555 611 l 1,18,-1
 290 1065 l 2,19,20
 261 1114 261 1114 233.5 1161 c 128,-1,21
 206 1208 206 1208 176 1256 c 128,-1,22
 146 1304 146 1304 111.5 1354 c 128,-1,23
 77 1404 77 1404 35 1460 c 1,24,-1
 265 1460 l 1,0,-1
EndSplineSet
EndChar

StartChar: Z
Encoding: 90 90 61
Width: 1230
GlyphClass: 2
Flags: W
AnchorPoint: "Anchor-4" 1230 1000 basechar 0
AnchorPoint: "Anchor-3" 605 -100 basechar 0
AnchorPoint: "Anchor-2" 605 -100 basechar 0
AnchorPoint: "Anchor-1" 605 -100 basechar 0
AnchorPoint: "Anchor-0" 605 1530 basechar 0
LayerCount: 2
Fore
SplineSet
1105 1330 m 1,0,-1
 310 165 l 1,1,-1
 700 165 l 2,2,3
 847 165 847 165 961 169.5 c 128,-1,4
 1075 174 1075 174 1135 185 c 1,5,-1
 1135 0 l 1,6,-1
 75 0 l 1,7,-1
 75 125 l 1,8,-1
 870 1295 l 1,9,-1
 530 1295 l 2,10,11
 456 1295 456 1295 396.5 1294.5 c 128,-1,12
 337 1294 337 1294 289 1291.5 c 128,-1,13
 241 1289 241 1289 203 1285 c 128,-1,14
 165 1281 165 1281 135 1275 c 1,15,-1
 135 1460 l 1,16,-1
 1105 1460 l 1,17,-1
 1105 1330 l 1,0,-1
EndSplineSet
EndChar

StartChar: bracketleft
Encoding: 91 91 62
Width: 790
Flags: W
LayerCount: 2
Fore
SplineSet
200 -410 m 1,0,-1
 200 1600 l 1,1,-1
 640 1600 l 1,2,-1
 640 1450 l 1,3,-1
 385 1450 l 1,4,-1
 385 -260 l 1,5,-1
 640 -260 l 1,6,-1
 640 -410 l 1,7,-1
 200 -410 l 1,0,-1
EndSplineSet
EndChar

StartChar: backslash
Encoding: 92 92 63
Width: 1025
Flags: W
LayerCount: 2
Fore
SplineSet
360 1600 m 1,0,-1
 830 -85 l 1,1,-1
 685 -115 l 1,2,-1
 210 1570 l 1,3,-1
 360 1600 l 1,0,-1
EndSplineSet
EndChar

StartChar: bracketright
Encoding: 93 93 64
Width: 790
Flags: W
LayerCount: 2
Fore
SplineSet
150 -410 m 1,0,-1
 150 -260 l 1,1,-1
 405 -260 l 1,2,-1
 405 1450 l 1,3,-1
 150 1450 l 1,4,-1
 150 1600 l 1,5,-1
 590 1600 l 1,6,-1
 590 -410 l 1,7,-1
 150 -410 l 1,0,-1
EndSplineSet
EndChar

StartChar: asciicircum
Encoding: 94 94 65
Width: 1120
Flags: W
LayerCount: 2
Fore
SplineSet
95 850 m 1,0,-1
 475 1600 l 1,1,-1
 645 1600 l 1,2,-1
 1025 850 l 1,3,-1
 845 850 l 1,4,-1
 560 1430 l 1,5,-1
 275 850 l 1,6,-1
 95 850 l 1,0,-1
EndSplineSet
EndChar

StartChar: underscore
Encoding: 95 95 66
Width: 1274
Flags: W
LayerCount: 2
Fore
SplineSet
0 -170 m 1,0,-1
 1274 -170 l 1,1,-1
 1274 -335 l 1,2,-1
 0 -335 l 1,3,-1
 0 -170 l 1,0,-1
EndSplineSet
EndChar

StartChar: grave
Encoding: 96 96 67
Width: 580
Flags: W
LayerCount: 2
Fore
SplineSet
230 1600 m 1,0,-1
 580 1170 l 1,1,-1
 420 1170 l 1,2,-1
 0 1600 l 1,3,-1
 230 1600 l 1,0,-1
EndSplineSet
EndChar

StartChar: a.SngStory
Encoding: 97 97 68
Width: 1150
GlyphClass: 2
Flags: W
AnchorPoint: "Anchor-4" 1150 1000 basechar 0
AnchorPoint: "Anchor-3" 968 0 basechar 0
AnchorPoint: "Anchor-2" 970 0 basechar 0
AnchorPoint: "Anchor-1" 615 -100 basechar 0
AnchorPoint: "Anchor-0" 615 1100 basechar 0
LayerCount: 2
Fore
SplineSet
595 870 m 0,0,1
 563 870 563 870 530.5 862.5 c 128,-1,2
 498 855 498 855 466.5 837 c 128,-1,3
 435 819 435 819 405.5 789.5 c 128,-1,4
 376 760 376 760 350 715 c 0,5,6
 323 669 323 669 306.5 600.5 c 128,-1,7
 290 532 290 532 290 460 c 0,8,9
 290 377 290 377 305.5 317.5 c 128,-1,10
 321 258 321 258 346.5 219.5 c 128,-1,11
 372 181 372 181 404.5 163 c 128,-1,12
 437 145 437 145 470 145 c 0,13,14
 512 145 512 145 561.5 171 c 128,-1,15
 611 197 611 197 658 240 c 128,-1,16
 705 283 705 283 746.5 339 c 128,-1,17
 788 395 788 395 815 455 c 1,18,-1
 815 830 l 1,19,20
 800 837 800 837 776.5 844 c 128,-1,21
 753 851 753 851 724.5 857 c 128,-1,22
 696 863 696 863 662.5 866.5 c 128,-1,23
 629 870 629 870 595 870 c 0,0,1
1000 530 m 2,24,25
 1000 341 1000 341 1021 212.5 c 128,-1,26
 1042 84 1042 84 1075 0 c 1,27,-1
 900 0 l 1,28,29
 895 13 895 13 886 36 c 128,-1,30
 877 59 877 59 867.5 88.5 c 128,-1,31
 858 118 858 118 849.5 152 c 128,-1,32
 841 186 841 186 835 220 c 1,33,34
 796 170 796 170 752.5 126 c 128,-1,35
 709 82 709 82 661 48 c 128,-1,36
 613 14 613 14 561 -5.5 c 128,-1,37
 509 -25 509 -25 455 -25 c 0,38,39
 392 -25 392 -25 329.5 2 c 128,-1,40
 267 29 267 29 217 83 c 128,-1,41
 167 137 167 137 136 218.5 c 128,-1,42
 105 300 105 300 105 410 c 0,43,44
 105 525 105 525 130.5 618.5 c 128,-1,45
 156 712 156 712 200 785 c 0,46,47
 239 849 239 849 283 897 c 128,-1,48
 327 945 327 945 379.5 976.5 c 128,-1,49
 432 1008 432 1008 495 1024 c 128,-1,50
 558 1040 558 1040 635 1040 c 0,51,52
 673 1040 673 1040 719.5 1034.5 c 128,-1,53
 766 1029 766 1029 814.5 1019 c 128,-1,54
 863 1009 863 1009 911 995 c 128,-1,55
 959 981 959 981 1000 965 c 1,56,-1
 1000 530 l 2,24,25
EndSplineSet
EndChar

StartChar: b
Encoding: 98 98 69
Width: 1155
GlyphClass: 2
Flags: W
AnchorPoint: "Anchor-4" 1155 1000 basechar 0
AnchorPoint: "Anchor-3" 590 -100 basechar 0
AnchorPoint: "Anchor-2" 590 0 basechar 0
AnchorPoint: "Anchor-1" 590 -100 basechar 0
AnchorPoint: "Anchor-0" 590 1590 basechar 0
LayerCount: 2
Fore
SplineSet
145 65 m 1,0,-1
 145 1248 l 2,1,2
 145 1312 145 1312 143.5 1376.5 c 128,-1,3
 142 1441 142 1441 139 1499.5 c 128,-1,4
 136 1558 136 1558 130 1600 c 1,5,-1
 330 1600 l 1,6,-1
 330 825 l 1,7,8
 365 871 365 871 406 910 c 128,-1,9
 447 949 447 949 494.5 978 c 128,-1,10
 542 1007 542 1007 597 1023.5 c 128,-1,11
 652 1040 652 1040 715 1040 c 0,12,13
 791 1040 791 1040 854 1003 c 128,-1,14
 917 966 917 966 963 899.5 c 128,-1,15
 1009 833 1009 833 1034.5 741 c 128,-1,16
 1060 649 1060 649 1060 540 c 0,17,18
 1060 411 1060 411 1025.5 307 c 128,-1,19
 991 203 991 203 928 129 c 128,-1,20
 865 55 865 55 775.5 15 c 128,-1,21
 686 -25 686 -25 575 -25 c 0,22,23
 514 -25 514 -25 457 -16.5 c 128,-1,24
 400 -8 400 -8 346.5 5.5 c 128,-1,25
 293 19 293 19 243 34.5 c 128,-1,26
 193 50 193 50 145 65 c 1,0,-1
575 130 m 0,27,28
 641 130 641 130 697 157 c 128,-1,29
 753 184 753 184 793.5 233 c 128,-1,30
 834 282 834 282 857 351.5 c 128,-1,31
 880 421 880 421 880 505 c 0,32,33
 880 588 880 588 865 655 c 128,-1,34
 850 722 850 722 821.5 768.5 c 128,-1,35
 793 815 793 815 751 840 c 128,-1,36
 709 865 709 865 655 865 c 0,37,38
 608 865 608 865 561 844.5 c 128,-1,39
 514 824 514 824 471.5 787 c 128,-1,40
 429 750 429 750 392 698.5 c 128,-1,41
 355 647 355 647 330 585 c 1,42,-1
 330 185 l 1,43,44
 367 170 367 170 397.5 159.5 c 128,-1,45
 428 149 428 149 457 142.5 c 128,-1,46
 486 136 486 136 514.5 133 c 128,-1,47
 543 130 543 130 575 130 c 0,27,28
EndSplineSet
EndChar

StartChar: c
Encoding: 99 99 70
Width: 1020
GlyphClass: 2
Flags: W
AnchorPoint: "Anchor-4" 1020 1000 basechar 0
AnchorPoint: "Anchor-3" 580 -100 basechar 0
AnchorPoint: "Anchor-2" 580 0 basechar 0
AnchorPoint: "Anchor-1" 580 -100 basechar 0
AnchorPoint: "Anchor-0" 570 1100 basechar 0
LayerCount: 2
Fore
SplineSet
615 1040 m 0,0,1
 715 1040 715 1040 787.5 1016.5 c 128,-1,2
 860 993 860 993 915 955 c 1,3,-1
 880 775 l 1,4,5
 812 825 812 825 745 850 c 128,-1,6
 678 875 678 875 600 875 c 0,7,8
 533 875 533 875 475.5 849.5 c 128,-1,9
 418 824 418 824 375.5 776 c 128,-1,10
 333 728 333 728 309 658 c 128,-1,11
 285 588 285 588 285 500 c 0,12,13
 285 419 285 419 307 353 c 128,-1,14
 329 287 329 287 370 239.5 c 128,-1,15
 411 192 411 192 469 166 c 128,-1,16
 527 140 527 140 600 140 c 0,17,18
 691 140 691 140 765 171 c 128,-1,19
 839 202 839 202 905 260 c 1,20,-1
 925 85 l 1,21,22
 887 56 887 56 849.5 35.5 c 128,-1,23
 812 15 812 15 771 1.5 c 128,-1,24
 730 -12 730 -12 683 -18.5 c 128,-1,25
 636 -25 636 -25 580 -25 c 0,26,27
 479 -25 479 -25 391 10.5 c 128,-1,28
 303 46 303 46 237 113 c 128,-1,29
 171 180 171 180 133 275 c 128,-1,30
 95 370 95 370 95 490 c 0,31,32
 95 603 95 603 131.5 703 c 128,-1,33
 168 803 168 803 235.5 878 c 128,-1,34
 303 953 303 953 399.5 996.5 c 128,-1,35
 496 1040 496 1040 615 1040 c 0,0,1
EndSplineSet
EndChar

StartChar: d
Encoding: 100 100 71
Width: 1190
GlyphClass: 2
Flags: W
AnchorPoint: "Anchor-4" 1136 1000 basechar 0
AnchorPoint: "Anchor-3" 605 -100 basechar 0
AnchorPoint: "Anchor-2" 605 0 basechar 0
AnchorPoint: "Anchor-1" 605 -100 basechar 0
AnchorPoint: "Anchor-0" 605 1635 basechar 0
LayerCount: 2
Fore
SplineSet
580 870 m 0,0,1
 523 870 523 870 471 844 c 128,-1,2
 419 818 419 818 378.5 769 c 128,-1,3
 338 720 338 720 314 649.5 c 128,-1,4
 290 579 290 579 290 490 c 0,5,6
 290 315 290 315 349.5 225 c 128,-1,7
 409 135 409 135 540 135 c 0,8,9
 586 135 586 135 631.5 158 c 128,-1,10
 677 181 677 181 717.5 218 c 128,-1,11
 758 255 758 255 791 302.5 c 128,-1,12
 824 350 824 350 845 400 c 1,13,-1
 845 795 l 1,14,15
 808 815 808 815 776 829 c 128,-1,16
 744 843 744 843 713 852 c 128,-1,17
 682 861 682 861 650 865.5 c 128,-1,18
 618 870 618 870 580 870 c 0,0,1
1030 530 m 2,19,20
 1030 341 1030 341 1051.5 212.5 c 128,-1,21
 1073 84 1073 84 1105 0 c 1,22,-1
 925 0 l 1,23,24
 914 26 914 26 898.5 77.5 c 128,-1,25
 883 129 883 129 870 185 c 1,26,27
 798 83 798 83 707 29 c 128,-1,28
 616 -25 616 -25 505 -25 c 0,29,30
 413 -25 413 -25 339.5 9.5 c 128,-1,31
 266 44 266 44 213.5 107.5 c 128,-1,32
 161 171 161 171 133 260.5 c 128,-1,33
 105 350 105 350 105 460 c 0,34,35
 105 593 105 593 141.5 700 c 128,-1,36
 178 807 178 807 242 882.5 c 128,-1,37
 306 958 306 958 392.5 999 c 128,-1,38
 479 1040 479 1040 580 1040 c 0,39,40
 612 1040 612 1040 646.5 1033 c 128,-1,41
 681 1026 681 1026 715.5 1014 c 128,-1,42
 750 1002 750 1002 783 986.5 c 128,-1,43
 816 971 816 971 845 955 c 1,44,-1
 845 1235 l 2,45,46
 845 1356 845 1356 839.5 1446.5 c 128,-1,47
 834 1537 834 1537 820 1600 c 1,48,-1
 1030 1600 l 1,49,-1
 1030 530 l 2,19,20
EndSplineSet
EndChar

StartChar: e
Encoding: 101 101 72
Width: 1095
GlyphClass: 2
Flags: W
AnchorPoint: "Anchor-4" 1095 1000 basechar 0
AnchorPoint: "Anchor-3" 900 0 basechar 0
AnchorPoint: "Anchor-2" 545 0 basechar 0
AnchorPoint: "Anchor-1" 569 -100 basechar 0
AnchorPoint: "Anchor-0" 569 1100 basechar 0
LayerCount: 2
Fore
SplineSet
575 1040 m 0,0,1
 657 1040 657 1040 720 1020.5 c 128,-1,2
 783 1001 783 1001 829 966.5 c 128,-1,3
 875 932 875 932 906 886 c 128,-1,4
 937 840 937 840 955.5 787 c 128,-1,5
 974 734 974 734 982 676.5 c 128,-1,6
 990 619 990 619 990 563 c 2,7,-1
 990 524 l 2,8,9
 990 499 990 499 989 485 c 1,10,-1
 280 485 l 1,11,12
 283 397 283 397 307.5 332 c 128,-1,13
 332 267 332 267 374.5 224.5 c 128,-1,14
 417 182 417 182 474.5 161 c 128,-1,15
 532 140 532 140 600 140 c 0,16,17
 697 140 697 140 790 162 c 128,-1,18
 883 184 883 184 975 240 c 1,19,-1
 995 75 l 1,20,21
 942 48 942 48 891 29 c 128,-1,22
 840 10 840 10 789 -2 c 128,-1,23
 738 -14 738 -14 685.5 -19.5 c 128,-1,24
 633 -25 633 -25 575 -25 c 0,25,26
 479 -25 479 -25 392 8.5 c 128,-1,27
 305 42 305 42 239 107.5 c 128,-1,28
 173 173 173 173 134 270 c 128,-1,29
 95 367 95 367 95 495 c 0,30,31
 95 619 95 619 128.5 719.5 c 128,-1,32
 162 820 162 820 224 891.5 c 128,-1,33
 286 963 286 963 375 1001.5 c 128,-1,34
 464 1040 464 1040 575 1040 c 0,0,1
560 890 m 0,35,36
 450 890 450 890 380 825.5 c 128,-1,37
 310 761 310 761 288 625 c 1,38,-1
 810 625 l 1,39,40
 810 689 810 689 791.5 738.5 c 128,-1,41
 773 788 773 788 739.5 822 c 128,-1,42
 706 856 706 856 660 873 c 128,-1,43
 614 890 614 890 560 890 c 0,35,36
EndSplineSet
EndChar

StartChar: f
Encoding: 102 102 73
Width: 750
GlyphClass: 2
Flags: W
AnchorPoint: "Anchor-4" 750 1000 basechar 0
AnchorPoint: "Anchor-3" 335 -100 basechar 0
AnchorPoint: "Anchor-2" 370 0 basechar 0
AnchorPoint: "Anchor-1" 335 -100 basechar 0
AnchorPoint: "Anchor-0" 560 1635 basechar 0
LayerCount: 2
Fore
SplineSet
40 995 m 1,0,-1
 240 995 l 1,1,-1
 240 1170 l 2,2,3
 240 1395 240 1395 331.5 1507.5 c 128,-1,4
 423 1620 423 1620 585 1620 c 0,5,6
 644 1620 644 1620 701 1601.5 c 128,-1,7
 758 1583 758 1583 805 1550 c 1,8,-1
 759 1400 l 1,9,10
 721 1428 721 1428 675 1444 c 128,-1,11
 629 1460 629 1460 585 1460 c 0,12,13
 546 1460 546 1460 516 1446.5 c 128,-1,14
 486 1433 486 1433 466 1403 c 128,-1,15
 446 1373 446 1373 435.5 1325.5 c 128,-1,16
 425 1278 425 1278 425 1210 c 2,17,-1
 425 995 l 1,18,-1
 695 995 l 1,19,-1
 695 850 l 1,20,-1
 425 850 l 1,21,-1
 425 494 l 2,22,23
 425 421 425 421 426.5 349.5 c 128,-1,24
 428 278 428 278 431.5 213.5 c 128,-1,25
 435 149 435 149 441 94 c 128,-1,26
 447 39 447 39 455 0 c 1,27,-1
 240 0 l 1,28,-1
 240 850 l 1,29,-1
 40 850 l 1,30,-1
 40 995 l 1,0,-1
EndSplineSet
EndChar

StartChar: g.SngBowl
Encoding: 103 103 74
Width: 1125
GlyphClass: 2
Flags: W
AnchorPoint: "Anchor-4" 1125 1000 basechar 0
AnchorPoint: "Anchor-3" 555 -500 basechar 0
AnchorPoint: "Anchor-2" 555 -432 basechar 0
AnchorPoint: "Anchor-1" 555 -500 basechar 0
AnchorPoint: "Anchor-0" 595 1100 basechar 0
LayerCount: 2
Fore
SplineSet
595 870 m 0,0,1
 513 870 513 870 455 836.5 c 128,-1,2
 397 803 397 803 360.5 748.5 c 128,-1,3
 324 694 324 694 307 625 c 128,-1,4
 290 556 290 556 290 485 c 0,5,6
 290 392 290 392 304.5 330.5 c 128,-1,7
 319 269 319 269 344.5 232.5 c 128,-1,8
 370 196 370 196 404.5 180.5 c 128,-1,9
 439 165 439 165 480 165 c 0,10,11
 518 165 518 165 561 180.5 c 128,-1,12
 604 196 604 196 647.5 225 c 128,-1,13
 691 254 691 254 731.5 297 c 128,-1,14
 772 340 772 340 805 395 c 1,15,-1
 805 830 l 1,16,17
 781 839 781 839 754 846.5 c 128,-1,18
 727 854 727 854 699 859 c 128,-1,19
 671 864 671 864 644.5 867 c 128,-1,20
 618 870 618 870 595 870 c 0,0,1
990 25 m 2,21,22
 990 -107 990 -107 951.5 -201 c 128,-1,23
 913 -295 913 -295 850.5 -354.5 c 128,-1,24
 788 -414 788 -414 708 -442 c 128,-1,25
 628 -470 628 -470 545 -470 c 0,26,27
 449 -470 449 -470 354.5 -437 c 128,-1,28
 260 -404 260 -404 180 -350 c 1,29,-1
 245 -195 l 1,30,31
 316 -246 316 -246 388 -278 c 128,-1,32
 460 -310 460 -310 535 -310 c 0,33,34
 574 -310 574 -310 621 -296 c 128,-1,35
 668 -282 668 -282 709 -247.5 c 128,-1,36
 750 -213 750 -213 777.5 -155 c 128,-1,37
 805 -97 805 -97 805 -10 c 2,38,-1
 805 175 l 1,39,40
 766 126 766 126 722.5 91.5 c 128,-1,41
 679 57 679 57 634.5 35.5 c 128,-1,42
 590 14 590 14 545.5 4.5 c 128,-1,43
 501 -5 501 -5 460 -5 c 0,44,45
 391 -5 391 -5 327 19 c 128,-1,46
 263 43 263 43 213.5 95.5 c 128,-1,47
 164 148 164 148 134.5 232 c 128,-1,48
 105 316 105 316 105 435 c 0,49,50
 105 550 105 550 135 659 c 128,-1,51
 165 768 165 768 228 852.5 c 128,-1,52
 291 937 291 937 389.5 988.5 c 128,-1,53
 488 1040 488 1040 625 1040 c 0,54,55
 670 1040 670 1040 717.5 1033.5 c 128,-1,56
 765 1027 765 1027 812 1016 c 128,-1,57
 859 1005 859 1005 904 991.5 c 128,-1,58
 949 978 949 978 990 965 c 1,59,-1
 990 25 l 2,21,22
EndSplineSet
EndChar

StartChar: h
Encoding: 104 104 75
Width: 1175
GlyphClass: 2
Flags: W
AnchorPoint: "Anchor-4" 1175 1000 basechar 0
AnchorPoint: "Anchor-3" 585 -100 basechar 0
AnchorPoint: "Anchor-2" 585 0 basechar 0
AnchorPoint: "Anchor-1" 585 -100 basechar 0
AnchorPoint: "Anchor-0" 585 1635 basechar 0
LayerCount: 2
Fore
SplineSet
710 1040 m 0,0,1
 870 1040 870 1040 955 935.5 c 128,-1,2
 1040 831 1040 831 1040 625 c 2,3,-1
 1040 0 l 1,4,-1
 855 0 l 1,5,-1
 855 550 l 2,6,7
 855 644 855 644 842.5 705 c 128,-1,8
 830 766 830 766 805 801.5 c 128,-1,9
 780 837 780 837 742.5 851 c 128,-1,10
 705 865 705 865 655 865 c 0,11,12
 601 865 601 865 549.5 839.5 c 128,-1,13
 498 814 498 814 455 773.5 c 128,-1,14
 412 733 412 733 379 682 c 128,-1,15
 346 631 346 631 330 580 c 1,16,-1
 330 0 l 1,17,-1
 145 0 l 1,18,-1
 145 1130 l 2,19,20
 145 1292 145 1292 143 1413.5 c 128,-1,21
 141 1535 141 1535 130 1600 c 1,22,-1
 330 1600 l 1,23,-1
 330 830 l 1,24,25
 404 935 404 935 504 987.5 c 128,-1,26
 604 1040 604 1040 710 1040 c 0,0,1
EndSplineSet
EndChar

StartChar: i
Encoding: 105 105 76
Width: 565
GlyphClass: 2
Flags: W
AnchorPoint: "Anchor-4" 565 1000 basechar 0
AnchorPoint: "Anchor-3" 365 0 basechar 0
AnchorPoint: "Anchor-2" 282 0 basechar 0
AnchorPoint: "Anchor-1" 285 -100 basechar 0
AnchorPoint: "Anchor-0" 282 1100 basechar 0
LayerCount: 2
Fore
SplineSet
155 1345 m 256,0,1
 155 1373 155 1373 164 1397.5 c 128,-1,2
 173 1422 173 1422 189.5 1440.5 c 128,-1,3
 206 1459 206 1459 229 1469.5 c 128,-1,4
 252 1480 252 1480 280 1480 c 256,5,6
 308 1480 308 1480 332 1469.5 c 128,-1,7
 356 1459 356 1459 373 1440.5 c 128,-1,8
 390 1422 390 1422 400 1397.5 c 128,-1,9
 410 1373 410 1373 410 1345 c 256,10,11
 410 1317 410 1317 400 1292.5 c 128,-1,12
 390 1268 390 1268 373 1249.5 c 128,-1,13
 356 1231 356 1231 332 1220.5 c 128,-1,14
 308 1210 308 1210 280 1210 c 256,15,16
 252 1210 252 1210 229 1220.5 c 128,-1,17
 206 1231 206 1231 189.5 1249.5 c 128,-1,18
 173 1268 173 1268 164 1292.5 c 128,-1,19
 155 1317 155 1317 155 1345 c 256,0,1
375 475 m 2,20,21
 375 427 375 427 376.5 361.5 c 128,-1,22
 378 296 378 296 380.5 229 c 128,-1,23
 383 162 383 162 386.5 101 c 128,-1,24
 390 40 390 40 395 0 c 1,25,-1
 190 0 l 1,26,-1
 190 530 l 2,27,28
 190 603 190 603 189.5 674 c 128,-1,29
 189 745 189 745 187.5 808.5 c 128,-1,30
 186 872 186 872 183 926.5 c 128,-1,31
 180 981 180 981 175 1020 c 1,32,-1
 375 1020 l 1,33,-1
 375 475 l 2,20,21
EndSplineSet
Substitution2: "'aalt' Access All Alternates lookup 7 subtable" i.TailI
Substitution2: "Single Substitution lookup 1 subtable" i.Dotless
EndChar

StartChar: j
Encoding: 106 106 77
Width: 595
GlyphClass: 2
Flags: W
AnchorPoint: "Anchor-4" 595 1000 basechar 0
AnchorPoint: "Anchor-3" 125 -500 basechar 0
AnchorPoint: "Anchor-2" 125 -500 basechar 0
AnchorPoint: "Anchor-1" 125 -500 basechar 0
AnchorPoint: "Anchor-0" 313 1100 basechar 0
LayerCount: 2
Fore
SplineSet
185 1345 m 256,0,1
 185 1373 185 1373 194 1397.5 c 128,-1,2
 203 1422 203 1422 219.5 1440.5 c 128,-1,3
 236 1459 236 1459 259 1469.5 c 128,-1,4
 282 1480 282 1480 310 1480 c 256,5,6
 338 1480 338 1480 362 1469.5 c 128,-1,7
 386 1459 386 1459 403 1440.5 c 128,-1,8
 420 1422 420 1422 430 1397.5 c 128,-1,9
 440 1373 440 1373 440 1345 c 256,10,11
 440 1317 440 1317 430 1292.5 c 128,-1,12
 420 1268 420 1268 403 1249.5 c 128,-1,13
 386 1231 386 1231 362 1220.5 c 128,-1,14
 338 1210 338 1210 310 1210 c 256,15,16
 282 1210 282 1210 259 1220.5 c 128,-1,17
 236 1231 236 1231 219.5 1249.5 c 128,-1,18
 203 1268 203 1268 194 1292.5 c 128,-1,19
 185 1317 185 1317 185 1345 c 256,0,1
405 25 m 2,20,21
 405 -115 405 -115 378.5 -210 c 128,-1,22
 352 -305 352 -305 303 -362.5 c 128,-1,23
 254 -420 254 -420 184.5 -445 c 128,-1,24
 115 -470 115 -470 30 -470 c 0,25,26
 9 -470 9 -470 -19.5 -465.5 c 128,-1,27
 -48 -461 -48 -461 -78.5 -453 c 128,-1,28
 -109 -445 -109 -445 -138.5 -432.5 c 128,-1,29
 -168 -420 -168 -420 -190 -405 c 1,30,-1
 -155 -240 l 1,31,32
 -139 -252 -139 -252 -114 -263 c 128,-1,33
 -89 -274 -89 -274 -62 -282.5 c 128,-1,34
 -35 -291 -35 -291 -8 -295.5 c 128,-1,35
 19 -300 19 -300 40 -300 c 0,36,37
 80 -300 80 -300 113 -284.5 c 128,-1,38
 146 -269 146 -269 170 -236 c 128,-1,39
 194 -203 194 -203 207 -151 c 128,-1,40
 220 -99 220 -99 220 -25 c 2,41,-1
 220 530 l 2,42,43
 220 603 220 603 219.5 674 c 128,-1,44
 219 745 219 745 217.5 808.5 c 128,-1,45
 216 872 216 872 213 926.5 c 128,-1,46
 210 981 210 981 205 1020 c 1,47,-1
 405 1020 l 1,48,-1
 405 25 l 2,20,21
EndSplineSet
Substitution2: "'aalt' Access All Alternates lookup 7 subtable" j.TopLftSerif
Substitution2: "Single Substitution lookup 1 subtable" j.Dotless
EndChar

StartChar: k
Encoding: 107 107 78
Width: 1035
GlyphClass: 2
Flags: W
AnchorPoint: "Anchor-4" 1035 1000 basechar 0
AnchorPoint: "Anchor-3" 572 -100 basechar 0
AnchorPoint: "Anchor-2" 797 0 basechar 0
AnchorPoint: "Anchor-1" 572 -100 basechar 0
AnchorPoint: "Anchor-0" 572 1635 basechar 0
LayerCount: 2
Fore
SplineSet
145 0 m 1,0,-1
 145 1130 l 2,1,2
 145 1292 145 1292 143 1413.5 c 128,-1,3
 141 1535 141 1535 130 1600 c 1,4,-1
 330 1600 l 1,5,-1
 330 601 l 1,6,-1
 735 1020 l 1,7,-1
 985 1020 l 1,8,-1
 490 573 l 1,9,-1
 1015 0 l 1,10,-1
 770 0 l 1,11,-1
 330 520 l 1,12,-1
 330 0 l 1,13,-1
 145 0 l 1,0,-1
EndSplineSet
EndChar

StartChar: l
Encoding: 108 108 79
Width: 565
GlyphClass: 2
Flags: W
AnchorPoint: "Anchor-4" 465 1000 basechar 0
AnchorPoint: "Anchor-3" 282 -100 basechar 0
AnchorPoint: "Anchor-2" 282 0 basechar 0
AnchorPoint: "Anchor-1" 282 -100 basechar 0
AnchorPoint: "Anchor-0" 282 1635 basechar 0
LayerCount: 2
Fore
SplineSet
375 475 m 2,0,1
 375 427 375 427 376.5 362 c 128,-1,2
 378 297 378 297 380.5 230 c 128,-1,3
 383 163 383 163 386.5 102 c 128,-1,4
 390 41 390 41 395 0 c 1,5,-1
 190 0 l 1,6,-1
 190 1130 l 2,7,8
 190 1276 190 1276 185 1394.5 c 128,-1,9
 180 1513 180 1513 170 1600 c 1,10,-1
 375 1600 l 1,11,-1
 375 475 l 2,0,1
EndSplineSet
Substitution2: "'aalt' Access All Alternates lookup 7 subtable" l.TailL
EndChar

StartChar: m
Encoding: 109 109 80
Width: 1685
GlyphClass: 2
Flags: W
AnchorPoint: "Anchor-4" 1685 1000 basechar 0
AnchorPoint: "Anchor-3" 865 -100 basechar 0
AnchorPoint: "Anchor-2" 865 0 basechar 0
AnchorPoint: "Anchor-1" 865 -100 basechar 0
AnchorPoint: "Anchor-0" 865 1100 basechar 0
LayerCount: 2
Fore
SplineSet
945 0 m 1,0,-1
 760 0 l 1,1,-1
 760 570 l 2,2,3
 760 663 760 663 753 720.5 c 128,-1,4
 746 778 746 778 729.5 810.5 c 128,-1,5
 713 843 713 843 685 854 c 128,-1,6
 657 865 657 865 615 865 c 0,7,8
 578 865 578 865 541 850 c 128,-1,9
 504 835 504 835 470.5 807.5 c 128,-1,10
 437 780 437 780 408.5 742.5 c 128,-1,11
 380 705 380 705 360 660 c 1,12,-1
 360 0 l 1,13,-1
 175 0 l 1,14,-1
 175 615 l 2,15,16
 175 763 175 763 158 865.5 c 128,-1,17
 141 968 141 968 125 1020 c 1,18,-1
 305 1020 l 1,19,20
 316 988 316 988 324 944.5 c 128,-1,21
 332 901 332 901 337 865 c 1,22,23
 383 918 383 918 425 952 c 128,-1,24
 467 986 467 986 508.5 1005.5 c 128,-1,25
 550 1025 550 1025 591 1032.5 c 128,-1,26
 632 1040 632 1040 675 1040 c 0,27,28
 724 1040 724 1040 764 1026 c 128,-1,29
 804 1012 804 1012 834.5 989 c 128,-1,30
 865 966 865 966 887 935.5 c 128,-1,31
 909 905 909 905 921 872 c 1,32,33
 968 923 968 923 1012 955.5 c 128,-1,34
 1056 988 1056 988 1098 1006.5 c 128,-1,35
 1140 1025 1140 1025 1180.5 1032.5 c 128,-1,36
 1221 1040 1221 1040 1260 1040 c 0,37,38
 1336 1040 1336 1040 1388 1015.5 c 128,-1,39
 1440 991 1440 991 1471.5 943 c 128,-1,40
 1503 895 1503 895 1516.5 824 c 128,-1,41
 1530 753 1530 753 1530 660 c 2,42,-1
 1530 0 l 1,43,-1
 1345 0 l 1,44,-1
 1345 550 l 2,45,46
 1345 647 1345 647 1338 708 c 128,-1,47
 1331 769 1331 769 1314.5 804 c 128,-1,48
 1298 839 1298 839 1270 852 c 128,-1,49
 1242 865 1242 865 1200 865 c 0,50,51
 1163 865 1163 865 1127 850.5 c 128,-1,52
 1091 836 1091 836 1057.5 809.5 c 128,-1,53
 1024 783 1024 783 995.5 745 c 128,-1,54
 967 707 967 707 945 660 c 1,55,-1
 945 0 l 1,0,-1
EndSplineSet
EndChar

StartChar: n
Encoding: 110 110 81
Width: 1185
GlyphClass: 2
Flags: W
AnchorPoint: "Anchor-4" 1185 1000 basechar 0
AnchorPoint: "Anchor-3" 599 -100 basechar 0
AnchorPoint: "Anchor-2" 833 0 basechar 0
AnchorPoint: "Anchor-1" 599 -100 basechar 0
AnchorPoint: "Anchor-0" 599 1100 basechar 0
LayerCount: 2
Fore
SplineSet
719 1040 m 0,0,1
 879 1040 879 1040 964 935.5 c 128,-1,2
 1049 831 1049 831 1049 625 c 2,3,-1
 1049 0 l 1,4,-1
 864 0 l 1,5,-1
 864 550 l 2,6,7
 864 644 864 644 851.5 705 c 128,-1,8
 839 766 839 766 814.5 801.5 c 128,-1,9
 790 837 790 837 752.5 851 c 128,-1,10
 715 865 715 865 664 865 c 0,11,12
 610 865 610 865 558.5 839.5 c 128,-1,13
 507 814 507 814 464 773.5 c 128,-1,14
 421 733 421 733 388 682 c 128,-1,15
 355 631 355 631 339 580 c 1,16,-1
 339 0 l 1,17,-1
 154 0 l 1,18,-1
 154 615 l 2,19,20
 154 763 154 763 137.5 865.5 c 128,-1,21
 121 968 121 968 104 1020 c 1,22,-1
 284 1020 l 1,23,24
 290 1004 290 1004 296 978.5 c 128,-1,25
 302 953 302 953 307 925 c 128,-1,26
 312 897 312 897 316 870 c 2,27,-1
 324 825 l 1,28,29
 419 939 419 939 516 989.5 c 128,-1,30
 613 1040 613 1040 719 1040 c 0,0,1
EndSplineSet
EndChar

StartChar: o
Encoding: 111 111 82
Width: 1140
GlyphClass: 2
Flags: W
AnchorPoint: "Anchor-4" 1140 1000 basechar 0
AnchorPoint: "Anchor-3" 790 0 basechar 0
AnchorPoint: "Anchor-2" 570 0 basechar 0
AnchorPoint: "Anchor-1" 570 -100 basechar 0
AnchorPoint: "Anchor-0" 570 1100 basechar 0
LayerCount: 2
Fore
SplineSet
280 505 m 0,0,1
 280 418 280 418 301 349 c 128,-1,2
 322 280 322 280 360.5 232.5 c 128,-1,3
 399 185 399 185 452 160 c 128,-1,4
 505 135 505 135 570 135 c 0,5,6
 630 135 630 135 683 160 c 128,-1,7
 736 185 736 185 775.5 232.5 c 128,-1,8
 815 280 815 280 837.5 349 c 128,-1,9
 860 418 860 418 860 505 c 0,10,11
 860 593 860 593 839 662.5 c 128,-1,12
 818 732 818 732 779.5 780.5 c 128,-1,13
 741 829 741 829 687.5 854.5 c 128,-1,14
 634 880 634 880 570 880 c 0,15,16
 509 880 509 880 456 854.5 c 128,-1,17
 403 829 403 829 364 780.5 c 128,-1,18
 325 732 325 732 302.5 662.5 c 128,-1,19
 280 593 280 593 280 505 c 0,0,1
95 505 m 256,20,21
 95 634 95 634 134 733.5 c 128,-1,22
 173 833 173 833 239 901.5 c 128,-1,23
 305 970 305 970 393 1005 c 128,-1,24
 481 1040 481 1040 580 1040 c 0,25,26
 683 1040 683 1040 768.5 1005 c 128,-1,27
 854 970 854 970 915.5 901.5 c 128,-1,28
 977 833 977 833 1011 733.5 c 128,-1,29
 1045 634 1045 634 1045 505 c 256,30,31
 1045 376 1045 376 1006 277 c 128,-1,32
 967 178 967 178 901 111 c 128,-1,33
 835 44 835 44 747 9.5 c 128,-1,34
 659 -25 659 -25 560 -25 c 0,35,36
 457 -25 457 -25 371.5 9.5 c 128,-1,37
 286 44 286 44 224.5 111 c 128,-1,38
 163 178 163 178 129 277 c 128,-1,39
 95 376 95 376 95 505 c 256,20,21
EndSplineSet
EndChar

StartChar: p
Encoding: 112 112 83
Width: 1170
GlyphClass: 2
Flags: W
AnchorPoint: "Anchor-4" 1170 1000 basechar 0
AnchorPoint: "Anchor-3" 620 -500 basechar 0
AnchorPoint: "Anchor-2" 315 -435 basechar 0
AnchorPoint: "Anchor-1" 620 -500 basechar 0
AnchorPoint: "Anchor-0" 620 1100 basechar 0
LayerCount: 2
Fore
SplineSet
620 140 m 0,0,1
 673 140 673 140 721.5 165 c 128,-1,2
 770 190 770 190 807.5 237.5 c 128,-1,3
 845 285 845 285 867.5 352.5 c 128,-1,4
 890 420 890 420 890 505 c 0,5,6
 890 588 890 588 874.5 655.5 c 128,-1,7
 859 723 859 723 829 770.5 c 128,-1,8
 799 818 799 818 756.5 844 c 128,-1,9
 714 870 714 870 660 870 c 0,10,11
 617 870 617 870 572 851 c 128,-1,12
 527 832 527 832 484.5 795 c 128,-1,13
 442 758 442 758 405 702.5 c 128,-1,14
 368 647 368 647 340 575 c 1,15,-1
 340 260 l 1,16,17
 391 224 391 224 428.5 200.5 c 128,-1,18
 466 177 466 177 497 163.5 c 128,-1,19
 528 150 528 150 556.5 145 c 128,-1,20
 585 140 585 140 620 140 c 0,0,1
155 485 m 2,21,22
 155 578 155 578 153.5 657.5 c 128,-1,23
 152 737 152 737 147 803.5 c 128,-1,24
 142 870 142 870 132 924 c 128,-1,25
 122 978 122 978 105 1020 c 1,26,-1
 285 1020 l 1,27,28
 296 994 296 994 307 946.5 c 128,-1,29
 318 899 318 899 325 830 c 1,30,31
 360 876 360 876 401.5 915 c 128,-1,32
 443 954 443 954 489.5 981.5 c 128,-1,33
 536 1009 536 1009 587.5 1024.5 c 128,-1,34
 639 1040 639 1040 695 1040 c 0,35,36
 780 1040 780 1040 850.5 1002.5 c 128,-1,37
 921 965 921 965 970.5 897.5 c 128,-1,38
 1020 830 1020 830 1047.5 737.5 c 128,-1,39
 1075 645 1075 645 1075 535 c 0,40,41
 1075 407 1075 407 1039 303.5 c 128,-1,42
 1003 200 1003 200 941.5 127 c 128,-1,43
 880 54 880 54 797 14.5 c 128,-1,44
 714 -25 714 -25 620 -25 c 0,45,46
 580 -25 580 -25 544.5 -17 c 128,-1,47
 509 -9 509 -9 475.5 5 c 128,-1,48
 442 19 442 19 409 39.5 c 128,-1,49
 376 60 376 60 340 85 c 1,50,-1
 340 -150 l 2,51,52
 340 -210 340 -210 341.5 -258.5 c 128,-1,53
 343 -307 343 -307 346 -348 c 128,-1,54
 349 -389 349 -389 354 -423.5 c 128,-1,55
 359 -458 359 -458 365 -490 c 1,56,-1
 155 -490 l 1,57,-1
 155 485 l 2,21,22
EndSplineSet
EndChar

StartChar: q
Encoding: 113 113 84
Width: 1130
GlyphClass: 2
Flags: W
AnchorPoint: "Anchor-4" 1130 1000 basechar 0
AnchorPoint: "Anchor-3" 555 -500 basechar 0
AnchorPoint: "Anchor-2" 555 -500 basechar 0
AnchorPoint: "Anchor-1" 555 -500 basechar 0
AnchorPoint: "Anchor-0" 555 1100 basechar 0
LayerCount: 2
Fore
SplineSet
595 870 m 0,0,1
 513 870 513 870 455 836.5 c 128,-1,2
 397 803 397 803 360.5 748.5 c 128,-1,3
 324 694 324 694 307 625 c 128,-1,4
 290 556 290 556 290 485 c 0,5,6
 290 392 290 392 310.5 327 c 128,-1,7
 331 262 331 262 364 221.5 c 128,-1,8
 397 181 397 181 438 163 c 128,-1,9
 479 145 479 145 520 145 c 0,10,11
 589 145 589 145 661 200 c 128,-1,12
 733 255 733 255 795 365 c 1,13,-1
 795 830 l 1,14,15
 750 847 750 847 695.5 858.5 c 128,-1,16
 641 870 641 870 595 870 c 0,0,1
980 -150 m 2,17,18
 980 -210 980 -210 981.5 -258.5 c 128,-1,19
 983 -307 983 -307 986 -348 c 128,-1,20
 989 -389 989 -389 994 -423.5 c 128,-1,21
 999 -458 999 -458 1005 -490 c 1,22,-1
 795 -490 l 1,23,-1
 795 140 l 1,24,25
 717 49 717 49 646 12 c 128,-1,26
 575 -25 575 -25 505 -25 c 0,27,28
 436 -25 436 -25 365 2 c 128,-1,29
 294 29 294 29 236 85.5 c 128,-1,30
 178 142 178 142 141.5 229 c 128,-1,31
 105 316 105 316 105 435 c 0,32,33
 105 550 105 550 135 659 c 128,-1,34
 165 768 165 768 228 852.5 c 128,-1,35
 291 937 291 937 389.5 988.5 c 128,-1,36
 488 1040 488 1040 625 1040 c 0,37,38
 670 1040 670 1040 716 1033.5 c 128,-1,39
 762 1027 762 1027 807 1016 c 128,-1,40
 852 1005 852 1005 895.5 991.5 c 128,-1,41
 939 978 939 978 980 965 c 1,42,-1
 980 -150 l 2,17,18
EndSplineSet
Substitution2: "'aalt' Access All Alternates lookup 7 subtable" q.Point
EndChar

StartChar: r
Encoding: 114 114 85
Width: 890
GlyphClass: 2
Flags: W
AnchorPoint: "Anchor-4" 890 1000 basechar 0
AnchorPoint: "Anchor-3" 255 -100 basechar 0
AnchorPoint: "Anchor-2" 320 0 basechar 0
AnchorPoint: "Anchor-1" 255 -100 basechar 0
AnchorPoint: "Anchor-0" 455 1100 basechar 0
LayerCount: 2
Fore
SplineSet
155 0 m 1,0,-1
 155 615 l 2,1,2
 155 763 155 763 138.5 865.5 c 128,-1,3
 122 968 122 968 105 1020 c 1,4,-1
 285 1020 l 1,5,6
 297 992 297 992 306.5 949.5 c 128,-1,7
 316 907 316 907 322.5 855 c 128,-1,8
 329 803 329 803 332 744 c 128,-1,9
 335 685 335 685 335 625 c 2,10,-1
 335 560 l 1,11,12
 386 701 386 701 435 793.5 c 128,-1,13
 484 886 484 886 532.5 941 c 128,-1,14
 581 996 581 996 630 1018 c 128,-1,15
 679 1040 679 1040 730 1040 c 0,16,17
 768 1040 768 1040 800 1033 c 128,-1,18
 832 1026 832 1026 865 1010 c 1,19,-1
 835 825 l 1,20,21
 806 837 806 837 784 841 c 128,-1,22
 762 845 762 845 730 845 c 0,23,24
 689 845 689 845 644 810.5 c 128,-1,25
 599 776 599 776 555.5 719 c 128,-1,26
 512 662 512 662 473 590 c 128,-1,27
 434 518 434 518 404.5 442.5 c 128,-1,28
 375 367 375 367 357.5 295 c 128,-1,29
 340 223 340 223 340 167 c 0,30,31
 340 142 340 142 340.5 121 c 128,-1,32
 341 100 341 100 343.5 80.5 c 128,-1,33
 346 61 346 61 350 41.5 c 128,-1,34
 354 22 354 22 360 0 c 1,35,-1
 155 0 l 1,0,-1
EndSplineSet
EndChar

StartChar: s
Encoding: 115 115 86
Width: 965
GlyphClass: 2
Flags: W
AnchorPoint: "Anchor-4" 965 1000 basechar 0
AnchorPoint: "Anchor-3" 495 -100 basechar 0
AnchorPoint: "Anchor-2" 495 0 basechar 0
AnchorPoint: "Anchor-1" 495 -100 basechar 0
AnchorPoint: "Anchor-0" 495 1100 basechar 0
LayerCount: 2
Fore
SplineSet
515 1040 m 0,0,1
 569 1040 569 1040 616.5 1033 c 128,-1,2
 664 1026 664 1026 703.5 1014.5 c 128,-1,3
 743 1003 743 1003 776 988.5 c 128,-1,4
 809 974 809 974 835 960 c 1,5,-1
 800 785 l 1,6,7
 775 800 775 800 743 816.5 c 128,-1,8
 711 833 711 833 673.5 847 c 128,-1,9
 636 861 636 861 593.5 870.5 c 128,-1,10
 551 880 551 880 505 880 c 0,11,12
 450 880 450 880 412.5 868 c 128,-1,13
 375 856 375 856 352.5 837.5 c 128,-1,14
 330 819 330 819 320 795.5 c 128,-1,15
 310 772 310 772 310 750 c 0,16,17
 310 724 310 724 318 704 c 128,-1,18
 326 684 326 684 351.5 667 c 128,-1,19
 377 650 377 650 424 634 c 128,-1,20
 471 618 471 618 550 600 c 0,21,22
 618 585 618 585 678 561.5 c 128,-1,23
 738 538 738 538 783 502 c 128,-1,24
 828 466 828 466 854 415.5 c 128,-1,25
 880 365 880 365 880 295 c 0,26,27
 880 227 880 227 850 169 c 128,-1,28
 820 111 820 111 768 67.5 c 128,-1,29
 716 24 716 24 646 -0.5 c 128,-1,30
 576 -25 576 -25 495 -25 c 0,31,32
 434 -25 434 -25 377.5 -16 c 128,-1,33
 321 -7 321 -7 271.5 9 c 128,-1,34
 222 25 222 25 181 46 c 128,-1,35
 140 67 140 67 110 90 c 1,36,-1
 160 270 l 1,37,38
 194 240 194 240 236.5 215 c 128,-1,39
 279 190 279 190 324 172 c 128,-1,40
 369 154 369 154 414.5 144.5 c 128,-1,41
 460 135 460 135 500 135 c 0,42,43
 544 135 544 135 580.5 146.5 c 128,-1,44
 617 158 617 158 643.5 176.5 c 128,-1,45
 670 195 670 195 685 219.5 c 128,-1,46
 700 244 700 244 700 270 c 0,47,48
 700 298 700 298 688.5 322.5 c 128,-1,49
 677 347 677 347 646.5 369.5 c 128,-1,50
 616 392 616 392 562.5 413 c 128,-1,51
 509 434 509 434 425 455 c 0,52,53
 334 477 334 477 276.5 507 c 128,-1,54
 219 537 219 537 186.5 573 c 128,-1,55
 154 609 154 609 142 651 c 128,-1,56
 130 693 130 693 130 740 c 0,57,58
 130 763 130 763 137.5 794 c 128,-1,59
 145 825 145 825 162.5 858.5 c 128,-1,60
 180 892 180 892 208.5 924.5 c 128,-1,61
 237 957 237 957 280 982.5 c 128,-1,62
 323 1008 323 1008 381 1024 c 128,-1,63
 439 1040 439 1040 515 1040 c 0,0,1
EndSplineSet
EndChar

StartChar: t
Encoding: 116 116 87
Width: 835
GlyphClass: 2
Flags: W
AnchorPoint: "Anchor-4" 835 1000 basechar 0
AnchorPoint: "Anchor-3" 475 -100 basechar 0
AnchorPoint: "Anchor-2" 475 0 basechar 0
AnchorPoint: "Anchor-1" 475 -100 basechar 0
AnchorPoint: "Anchor-0" 325 1360 basechar 0
LayerCount: 2
Fore
SplineSet
30 995 m 1,0,-1
 230 995 l 1,1,-1
 230 1320 l 1,2,-1
 415 1320 l 1,3,-1
 415 995 l 1,4,-1
 740 995 l 1,5,-1
 740 850 l 1,6,-1
 415 850 l 1,7,-1
 415 390 l 2,8,9
 415 313 415 313 422.5 264 c 128,-1,10
 430 215 430 215 445.5 187.5 c 128,-1,11
 461 160 461 160 485 150 c 128,-1,12
 509 140 509 140 543 140 c 0,13,14
 586 140 586 140 640 159 c 128,-1,15
 694 178 694 178 760 215 c 1,16,-1
 760 55 l 1,17,18
 691 10 691 10 628 -7.5 c 128,-1,19
 565 -25 565 -25 512 -25 c 0,20,21
 453 -25 453 -25 402 -11.5 c 128,-1,22
 351 2 351 2 312.5 36 c 128,-1,23
 274 70 274 70 252 126.5 c 128,-1,24
 230 183 230 183 230 270 c 2,25,-1
 230 850 l 1,26,-1
 30 850 l 1,27,-1
 30 995 l 1,0,-1
EndSplineSet
Substitution2: "'aalt' Access All Alternates lookup 7 subtable" t.NoTailT
EndChar

StartChar: u
Encoding: 117 117 88
Width: 1185
GlyphClass: 2
Flags: W
AnchorPoint: "Anchor-4" 1185 1000 basechar 0
AnchorPoint: "Anchor-3" 658 0 basechar 0
AnchorPoint: "Anchor-2" 589 0 basechar 0
AnchorPoint: "Anchor-1" 589 -100 basechar 0
AnchorPoint: "Anchor-0" 589 1100 basechar 0
LayerCount: 2
Fore
SplineSet
475 -25 m 0,0,1
 155 -25 155 -25 155 405 c 2,2,-1
 155 700 l 2,3,4
 155 748 155 748 154.5 787 c 128,-1,5
 154 826 154 826 152 862.5 c 128,-1,6
 150 899 150 899 146 937 c 128,-1,7
 142 975 142 975 135 1020 c 1,8,-1
 340 1020 l 1,9,-1
 340 465 l 2,10,11
 340 380 340 380 348.5 318.5 c 128,-1,12
 357 257 357 257 377 217.5 c 128,-1,13
 397 178 397 178 429.5 159 c 128,-1,14
 462 140 462 140 510 140 c 0,15,16
 554 140 554 140 604 166.5 c 128,-1,17
 654 193 654 193 699.5 234 c 128,-1,18
 745 275 745 275 782.5 324.5 c 128,-1,19
 820 374 820 374 840 420 c 1,20,-1
 840 700 l 2,21,22
 840 749 840 749 839.5 788.5 c 128,-1,23
 839 828 839 828 837 864 c 128,-1,24
 835 900 835 900 831 937 c 128,-1,25
 827 974 827 974 820 1020 c 1,26,-1
 1025 1020 l 1,27,-1
 1025 450 l 2,28,29
 1025 304 1025 304 1041.5 194.5 c 128,-1,30
 1058 85 1058 85 1090 0 c 1,31,-1
 920 0 l 1,32,33
 913 17 913 17 905 40 c 128,-1,34
 897 63 897 63 889.5 89 c 128,-1,35
 882 115 882 115 875.5 143.5 c 128,-1,36
 869 172 869 172 865 200 c 1,37,38
 774 89 774 89 677.5 32 c 128,-1,39
 581 -25 581 -25 475 -25 c 0,0,1
EndSplineSet
EndChar

StartChar: v
Encoding: 118 118 89
Width: 1070
GlyphClass: 2
Flags: W
AnchorPoint: "Anchor-4" 1070 1000 basechar 0
AnchorPoint: "Anchor-3" 725 0 basechar 0
AnchorPoint: "Anchor-2" 549 0 basechar 0
AnchorPoint: "Anchor-1" 535 -100 basechar 0
AnchorPoint: "Anchor-0" 535 1100 basechar 0
LayerCount: 2
Fore
SplineSet
1050 1020 m 1,0,1
 1029 977 1029 977 1006.5 927 c 128,-1,2
 984 877 984 877 963.5 829 c 128,-1,3
 943 781 943 781 925 738 c 128,-1,4
 907 695 907 695 895 665 c 0,5,6
 885 641 885 641 868.5 599.5 c 128,-1,7
 852 558 852 558 831.5 506.5 c 128,-1,8
 811 455 811 455 788 397.5 c 128,-1,9
 765 340 765 340 743 284 c 0,10,11
 690 152 690 152 630 0 c 1,12,-1
 440 0 l 1,13,14
 382 145 382 145 331 274 c 0,15,16
 309 329 309 329 286 386 c 128,-1,17
 263 443 263 443 242.5 495.5 c 128,-1,18
 222 548 222 548 204.5 592 c 128,-1,19
 187 636 187 636 175 665 c 0,20,21
 163 695 163 695 145 738.5 c 128,-1,22
 127 782 127 782 106 830 c 128,-1,23
 85 878 85 878 63 927.5 c 128,-1,24
 41 977 41 977 20 1020 c 1,25,-1
 230 1020 l 1,26,-1
 535 200 l 1,27,-1
 840 1020 l 1,28,-1
 1050 1020 l 1,0,1
EndSplineSet
EndChar

StartChar: w
Encoding: 119 119 90
Width: 1550
GlyphClass: 2
Flags: W
AnchorPoint: "Anchor-4" 1550 1000 basechar 0
AnchorPoint: "Anchor-3" 775 -100 basechar 0
AnchorPoint: "Anchor-2" 775 -100 basechar 0
AnchorPoint: "Anchor-1" 775 -100 basechar 0
AnchorPoint: "Anchor-0" 775 1100 basechar 0
LayerCount: 2
Fore
SplineSet
850 1020 m 1,0,-1
 1110 215 l 1,1,-1
 1320 1020 l 1,2,-1
 1505 1020 l 1,3,4
 1487 963 1487 963 1473.5 917.5 c 128,-1,5
 1460 872 1460 872 1448 830.5 c 128,-1,6
 1436 789 1436 789 1424.5 749.5 c 128,-1,7
 1413 710 1413 710 1400 665 c 2,8,-1
 1215 0 l 1,9,-1
 1025 0 l 1,10,-1
 775 785 l 1,11,-1
 525 0 l 1,12,-1
 335 0 l 1,13,-1
 150 665 l 2,14,15
 139 705 139 705 127.5 744 c 128,-1,16
 116 783 116 783 103.5 825 c 128,-1,17
 91 867 91 867 77 915 c 128,-1,18
 63 963 63 963 45 1020 c 1,19,-1
 230 1020 l 1,20,-1
 440 215 l 1,21,-1
 700 1020 l 1,22,-1
 850 1020 l 1,0,-1
EndSplineSet
EndChar

StartChar: x
Encoding: 120 120 91
Width: 1085
GlyphClass: 2
Flags: W
AnchorPoint: "Anchor-4" 1085 1000 basechar 0
AnchorPoint: "Anchor-3" 542 -100 basechar 0
AnchorPoint: "Anchor-2" 801 0 basechar 0
AnchorPoint: "Anchor-1" 542 -100 basechar 0
AnchorPoint: "Anchor-0" 542 1100 basechar 0
LayerCount: 2
Fore
SplineSet
536 376 m 1,0,-1
 275 0 l 1,1,-1
 50 0 l 1,2,3
 91 54 91 54 119 90.5 c 128,-1,4
 147 127 147 127 168.5 156 c 128,-1,5
 190 185 190 185 208.5 211 c 128,-1,6
 227 237 227 237 250 270 c 2,7,-1
 428 528 l 1,8,-1
 270 750 l 2,9,10
 245 785 245 785 224 813 c 128,-1,11
 203 841 203 841 180 870 c 128,-1,12
 157 899 157 899 128.5 934.5 c 128,-1,13
 100 970 100 970 60 1020 c 1,14,-1
 290 1020 l 1,15,-1
 550 659 l 1,16,-1
 795 1020 l 1,17,-1
 1020 1020 l 1,18,19
 981 970 981 970 954 934.5 c 128,-1,20
 927 899 927 899 905 869.5 c 128,-1,21
 883 840 883 840 863.5 812 c 128,-1,22
 844 784 844 784 820 750 c 2,23,-1
 657 510 l 1,24,-1
 830 270 l 2,25,26
 857 232 857 232 877 205.5 c 128,-1,27
 897 179 897 179 919 151 c 128,-1,28
 941 123 941 123 967.5 88 c 128,-1,29
 994 53 994 53 1035 0 c 1,30,-1
 805 0 l 1,31,-1
 536 376 l 1,0,-1
EndSplineSet
EndChar

StartChar: y
Encoding: 121 121 92
Width: 1060
GlyphClass: 2
Flags: W
AnchorPoint: "Anchor-4" 1060 1000 basechar 0
AnchorPoint: "Anchor-3" 795 -100 basechar 0
AnchorPoint: "Anchor-2" 795 -100 basechar 0
AnchorPoint: "Anchor-1" 795 -100 basechar 0
AnchorPoint: "Anchor-0" 535 1100 basechar 0
LayerCount: 2
Fore
SplineSet
655 0 m 2,0,1
 603 -144 603 -144 553 -235 c 128,-1,2
 503 -326 503 -326 451.5 -378.5 c 128,-1,3
 400 -431 400 -431 344.5 -450.5 c 128,-1,4
 289 -470 289 -470 225 -470 c 0,5,6
 156 -470 156 -470 95.5 -448 c 128,-1,7
 35 -426 35 -426 -20 -385 c 1,8,-1
 40 -225 l 1,9,10
 56 -238 56 -238 77.5 -251.5 c 128,-1,11
 99 -265 99 -265 123.5 -275.5 c 128,-1,12
 148 -286 148 -286 174 -293 c 128,-1,13
 200 -300 200 -300 225 -300 c 0,14,15
 255 -300 255 -300 284 -289.5 c 128,-1,16
 313 -279 313 -279 342.5 -249.5 c 128,-1,17
 372 -220 372 -220 403 -166.5 c 128,-1,18
 434 -113 434 -113 469 -26 c 1,19,-1
 190 665 l 2,20,21
 162 733 162 733 125 818 c 128,-1,22
 88 903 88 903 30 1020 c 1,23,-1
 230 1020 l 1,24,-1
 553 203 l 1,25,26
 572 257 572 257 594.5 320.5 c 128,-1,27
 617 384 617 384 641 451.5 c 128,-1,28
 665 519 665 519 689 587.5 c 128,-1,29
 713 656 713 656 735 719 c 0,30,31
 787 867 787 867 840 1020 c 1,32,-1
 1040 1020 l 1,33,34
 1014 962 1014 962 993 912.5 c 128,-1,35
 972 863 972 863 954 819.5 c 128,-1,36
 936 776 936 776 921.5 738 c 128,-1,37
 907 700 907 700 895 665 c 2,38,-1
 655 0 l 2,0,1
EndSplineSet
Substitution2: "'aalt' Access All Alternates lookup 7 subtable" y.NoTailY
EndChar

StartChar: z
Encoding: 122 122 93
Width: 1040
GlyphClass: 2
Flags: W
AnchorPoint: "Anchor-4" 1040 1000 basechar 0
AnchorPoint: "Anchor-3" 525 -100 basechar 0
AnchorPoint: "Anchor-2" 525 0 basechar 0
AnchorPoint: "Anchor-1" 525 -100 basechar 0
AnchorPoint: "Anchor-0" 525 1100 basechar 0
LayerCount: 2
Fore
SplineSet
930 1020 m 1,0,-1
 930 925 l 1,1,-1
 335 150 l 1,2,-1
 765 150 l 2,3,4
 809 150 809 150 854.5 152 c 128,-1,5
 900 154 900 154 945 165 c 1,6,-1
 945 0 l 1,7,-1
 105 0 l 1,8,-1
 105 110 l 1,9,-1
 680 870 l 1,10,-1
 290 870 l 2,11,12
 245 870 245 870 204 868 c 128,-1,13
 163 866 163 866 135 855 c 1,14,-1
 135 1020 l 1,15,-1
 930 1020 l 1,0,-1
EndSplineSet
EndChar

StartChar: braceleft
Encoding: 123 123 94
Width: 1000
Flags: W
LayerCount: 2
Fore
SplineSet
210 615 m 0,0,1
 210 627 210 627 237.5 649 c 128,-1,2
 265 671 265 671 300 696 c 128,-1,3
 335 721 335 721 367.5 743.5 c 128,-1,4
 400 766 400 766 410 780 c 0,5,6
 416 788 416 788 419.5 840 c 128,-1,7
 423 892 423 892 426.5 967 c 128,-1,8
 430 1042 430 1042 434.5 1129.5 c 128,-1,9
 439 1217 439 1217 446.5 1296 c 128,-1,10
 454 1375 454 1375 465.5 1435 c 128,-1,11
 477 1495 477 1495 495 1515 c 0,12,13
 510 1532 510 1532 545 1550 c 128,-1,14
 580 1568 580 1568 623.5 1584.5 c 128,-1,15
 667 1601 667 1601 714 1615.5 c 128,-1,16
 761 1630 761 1630 800 1640 c 1,17,-1
 840 1500 l 1,18,19
 815 1491 815 1491 782 1478.5 c 128,-1,20
 749 1466 749 1466 717.5 1452 c 128,-1,21
 686 1438 686 1438 661.5 1424 c 128,-1,22
 637 1410 637 1410 630 1400 c 0,23,24
 624 1391 624 1391 619.5 1360 c 128,-1,25
 615 1329 615 1329 612.5 1283.5 c 128,-1,26
 610 1238 610 1238 608 1182.5 c 128,-1,27
 606 1127 606 1127 605 1069.5 c 128,-1,28
 604 1012 604 1012 603 956.5 c 128,-1,29
 602 901 602 901 600 856.5 c 128,-1,30
 598 812 598 812 596 782 c 128,-1,31
 594 752 594 752 590 745 c 0,32,33
 583 731 583 731 557.5 712.5 c 128,-1,34
 532 694 532 694 504.5 675 c 128,-1,35
 477 656 477 656 454 639.5 c 128,-1,36
 431 623 431 623 430 615 c 1,37,38
 431 607 431 607 454 590.5 c 128,-1,39
 477 574 477 574 504.5 555 c 128,-1,40
 532 536 532 536 557.5 517 c 128,-1,41
 583 498 583 498 590 485 c 0,42,43
 594 478 594 478 596 448 c 128,-1,44
 598 418 598 418 600 373.5 c 128,-1,45
 602 329 602 329 603 273.5 c 128,-1,46
 604 218 604 218 605 160.5 c 128,-1,47
 606 103 606 103 608 47.5 c 128,-1,48
 610 -8 610 -8 612.5 -53.5 c 128,-1,49
 615 -99 615 -99 619.5 -130 c 128,-1,50
 624 -161 624 -161 630 -170 c 0,51,52
 637 -181 637 -181 661.5 -194.5 c 128,-1,53
 686 -208 686 -208 717.5 -222 c 128,-1,54
 749 -236 749 -236 782 -248.5 c 128,-1,55
 815 -261 815 -261 840 -270 c 1,56,-1
 800 -410 l 1,57,58
 761 -400 761 -400 714 -385.5 c 128,-1,59
 667 -371 667 -371 623.5 -354.5 c 128,-1,60
 580 -338 580 -338 545 -320 c 128,-1,61
 510 -302 510 -302 495 -285 c 0,62,63
 477 -265 477 -265 465.5 -205 c 128,-1,64
 454 -145 454 -145 446.5 -66 c 128,-1,65
 439 13 439 13 434.5 100.5 c 128,-1,66
 430 188 430 188 426.5 263 c 128,-1,67
 423 338 423 338 419.5 390 c 128,-1,68
 416 442 416 442 410 450 c 0,69,70
 403 459 403 459 385.5 472.5 c 128,-1,71
 368 486 368 486 346 501.5 c 128,-1,72
 324 517 324 517 300 534 c 128,-1,73
 276 551 276 551 256 566 c 128,-1,74
 236 581 236 581 223 594 c 128,-1,75
 210 607 210 607 210 615 c 0,0,1
EndSplineSet
EndChar

StartChar: bar
Encoding: 124 124 95
Width: 690
Flags: W
LayerCount: 2
Fore
SplineSet
420 1600 m 1,0,-1
 420 -390 l 1,1,-1
 270 -390 l 1,2,-1
 270 1600 l 1,3,-1
 420 1600 l 1,0,-1
EndSplineSet
EndChar

StartChar: braceright
Encoding: 125 125 96
Width: 1000
Flags: W
LayerCount: 2
Fore
SplineSet
790 615 m 0,0,1
 790 607 790 607 777 594 c 128,-1,2
 764 581 764 581 744 566 c 128,-1,3
 724 551 724 551 700 534 c 128,-1,4
 676 517 676 517 654 501.5 c 128,-1,5
 632 486 632 486 614.5 472.5 c 128,-1,6
 597 459 597 459 590 450 c 0,7,8
 584 442 584 442 580.5 390 c 128,-1,9
 577 338 577 338 573.5 263 c 128,-1,10
 570 188 570 188 565.5 100.5 c 128,-1,11
 561 13 561 13 553.5 -66 c 128,-1,12
 546 -145 546 -145 534.5 -205 c 128,-1,13
 523 -265 523 -265 505 -285 c 0,14,15
 490 -302 490 -302 455 -320 c 128,-1,16
 420 -338 420 -338 376.5 -354.5 c 128,-1,17
 333 -371 333 -371 286 -385.5 c 128,-1,18
 239 -400 239 -400 200 -410 c 1,19,-1
 160 -270 l 1,20,21
 185 -261 185 -261 218 -248.5 c 128,-1,22
 251 -236 251 -236 282.5 -222 c 128,-1,23
 314 -208 314 -208 338 -194.5 c 128,-1,24
 362 -181 362 -181 370 -170 c 0,25,26
 376 -161 376 -161 380.5 -130 c 128,-1,27
 385 -99 385 -99 387.5 -53.5 c 128,-1,28
 390 -8 390 -8 392 47.5 c 128,-1,29
 394 103 394 103 395 160.5 c 128,-1,30
 396 218 396 218 397 273.5 c 128,-1,31
 398 329 398 329 400 373.5 c 128,-1,32
 402 418 402 418 404 448 c 128,-1,33
 406 478 406 478 410 485 c 0,34,35
 415 494 415 494 428.5 505.5 c 128,-1,36
 442 517 442 517 459 529.5 c 128,-1,37
 476 542 476 542 495.5 555 c 128,-1,38
 515 568 515 568 531 579.5 c 128,-1,39
 547 591 547 591 558 600 c 128,-1,40
 569 609 569 609 570 615 c 1,41,42
 569 620 569 620 558 629.5 c 128,-1,43
 547 639 547 639 531 650.5 c 128,-1,44
 515 662 515 662 495.5 675 c 128,-1,45
 476 688 476 688 459 700.5 c 128,-1,46
 442 713 442 713 428.5 724.5 c 128,-1,47
 415 736 415 736 410 745 c 0,48,49
 406 752 406 752 404 782 c 128,-1,50
 402 812 402 812 400 856.5 c 128,-1,51
 398 901 398 901 397 956.5 c 128,-1,52
 396 1012 396 1012 395 1069.5 c 128,-1,53
 394 1127 394 1127 392 1182.5 c 128,-1,54
 390 1238 390 1238 387.5 1283.5 c 128,-1,55
 385 1329 385 1329 380.5 1360 c 128,-1,56
 376 1391 376 1391 370 1400 c 0,57,58
 362 1410 362 1410 338 1424 c 128,-1,59
 314 1438 314 1438 282.5 1452 c 128,-1,60
 251 1466 251 1466 218 1478.5 c 128,-1,61
 185 1491 185 1491 160 1500 c 1,62,-1
 200 1640 l 1,63,64
 239 1630 239 1630 286 1615.5 c 128,-1,65
 333 1601 333 1601 376.5 1584.5 c 128,-1,66
 420 1568 420 1568 455 1550 c 128,-1,67
 490 1532 490 1532 505 1515 c 0,68,69
 523 1495 523 1495 534.5 1435 c 128,-1,70
 546 1375 546 1375 553.5 1296 c 128,-1,71
 561 1217 561 1217 565.5 1129.5 c 128,-1,72
 570 1042 570 1042 573.5 967 c 128,-1,73
 577 892 577 892 580.5 840 c 128,-1,74
 584 788 584 788 590 780 c 0,75,76
 600 766 600 766 632.5 743.5 c 128,-1,77
 665 721 665 721 700 696 c 128,-1,78
 735 671 735 671 762.5 649 c 128,-1,79
 790 627 790 627 790 615 c 0,0,1
EndSplineSet
EndChar

StartChar: asciitilde
Encoding: 126 126 97
Width: 1080
Flags: W
LayerCount: 2
Fore
SplineSet
15 520 m 1,0,1
 15 571 15 571 31.5 624.5 c 128,-1,2
 48 678 48 678 80 721 c 128,-1,3
 112 764 112 764 158 791.5 c 128,-1,4
 204 819 204 819 264 819 c 0,5,6
 309 819 309 819 382.5 802.5 c 128,-1,7
 456 786 456 786 569 747 c 0,8,9
 598 737 598 737 632 725.5 c 128,-1,10
 666 714 666 714 700.5 704.5 c 128,-1,11
 735 695 735 695 769 689 c 128,-1,12
 803 683 803 683 833 683 c 0,13,14
 861 683 861 683 881 690 c 128,-1,15
 901 697 901 697 914 710.5 c 128,-1,16
 927 724 927 724 934 745 c 128,-1,17
 941 766 941 766 945 795 c 1,18,-1
 1065 795 l 1,19,20
 1065 741 1065 741 1049.5 688.5 c 128,-1,21
 1034 636 1034 636 1002.5 595 c 128,-1,22
 971 554 971 554 924.5 529 c 128,-1,23
 878 504 878 504 817 504 c 0,24,25
 785 504 785 504 749.5 510 c 128,-1,26
 714 516 714 516 678 525 c 128,-1,27
 642 534 642 534 607 545 c 128,-1,28
 572 556 572 556 542 566 c 0,29,30
 488 584 488 584 446.5 598 c 128,-1,31
 405 612 405 612 371.5 621.5 c 128,-1,32
 338 631 338 631 311.5 635.5 c 128,-1,33
 285 640 285 640 261 640 c 0,34,35
 230 640 230 640 206.5 629.5 c 128,-1,36
 183 619 183 619 167 602.5 c 128,-1,37
 151 586 151 586 143 564 c 128,-1,38
 135 542 135 542 135 520 c 1,39,-1
 15 520 l 1,0,1
EndSplineSet
EndChar

StartChar: Ccedilla
Encoding: 199 199 100
Width: 1355
GlyphClass: 2
Flags: W
AnchorPoint: "Anchor-4" 1355 1000 basechar 0
AnchorPoint: "Anchor-3" 720 -520 basechar 0
AnchorPoint: "Anchor-2" 720 -520 basechar 0
AnchorPoint: "Anchor-1" 720 -520 basechar 0
AnchorPoint: "Anchor-0" 750 1530 basechar 0
LayerCount: 2
Fore
SplineSet
1230 140 m 1,0,1
 1186 99 1186 99 1127 68.5 c 128,-1,2
 1068 38 1068 38 1003.5 17 c 128,-1,3
 939 -4 939 -4 873 -14.5 c 128,-1,4
 807 -25 807 -25 750 -25 c 1,5,-1
 750 -95 l 1,6,7
 760 -93 760 -93 770.5 -91.5 c 128,-1,8
 781 -90 781 -90 798 -90 c 0,9,10
 832 -90 832 -90 861 -102.5 c 128,-1,11
 890 -115 890 -115 911 -137.5 c 128,-1,12
 932 -160 932 -160 943.5 -191.5 c 128,-1,13
 955 -223 955 -223 955 -260 c 0,14,15
 955 -311 955 -311 932 -352 c 128,-1,16
 909 -393 909 -393 872 -421.5 c 128,-1,17
 835 -450 835 -450 790 -465 c 128,-1,18
 745 -480 745 -480 700 -480 c 0,19,20
 661 -480 661 -480 628.5 -468.5 c 128,-1,21
 596 -457 596 -457 565 -440 c 1,22,-1
 575 -340 l 1,23,24
 597 -356 597 -356 620 -363 c 128,-1,25
 643 -370 643 -370 675 -370 c 0,26,27
 697 -370 697 -370 720.5 -365 c 128,-1,28
 744 -360 744 -360 763.5 -348 c 128,-1,29
 783 -336 783 -336 796 -317 c 128,-1,30
 809 -298 809 -298 810 -270 c 1,31,32
 809 -231 809 -231 781.5 -205.5 c 128,-1,33
 754 -180 754 -180 713 -180 c 0,34,35
 689 -180 689 -180 665 -187.5 c 128,-1,36
 641 -195 641 -195 625 -205 c 1,37,-1
 625 -15 l 1,38,39
 501 5 501 5 403 64 c 128,-1,40
 305 123 305 123 236.5 216.5 c 128,-1,41
 168 310 168 310 131.5 434.5 c 128,-1,42
 95 559 95 559 95 710 c 0,43,44
 95 903 95 903 151 1048.5 c 128,-1,45
 207 1194 207 1194 300.5 1291 c 128,-1,46
 394 1388 394 1388 516 1436.5 c 128,-1,47
 638 1485 638 1485 770 1485 c 0,48,49
 824 1485 824 1485 880 1478 c 128,-1,50
 936 1471 936 1471 992.5 1455 c 128,-1,51
 1049 1439 1049 1439 1105 1412 c 128,-1,52
 1161 1385 1161 1385 1215 1345 c 1,53,-1
 1155 1165 l 1,54,55
 1108 1207 1108 1207 1059 1236 c 128,-1,56
 1010 1265 1010 1265 961 1282.5 c 128,-1,57
 912 1300 912 1300 863.5 1307.5 c 128,-1,58
 815 1315 815 1315 770 1315 c 0,59,60
 665 1315 665 1315 577 1278.5 c 128,-1,61
 489 1242 489 1242 425.5 1169 c 128,-1,62
 362 1096 362 1096 326 987.5 c 128,-1,63
 290 879 290 879 290 735 c 0,64,65
 290 619 290 619 321 513 c 128,-1,66
 352 407 352 407 412 326.5 c 128,-1,67
 472 246 472 246 559.5 198 c 128,-1,68
 647 150 647 150 760 150 c 0,69,70
 817 150 817 150 875.5 163 c 128,-1,71
 934 176 934 176 990 200.5 c 128,-1,72
 1046 225 1046 225 1097 259 c 128,-1,73
 1148 293 1148 293 1190 335 c 1,74,-1
 1230 140 l 1,0,1
EndSplineSet
Ligature2: "'ccmp' Glyph Composition/Decomposition lookup 3 subtable" C uni0327
EndChar

StartChar: ccedilla
Encoding: 231 231 111
Width: 1020
GlyphClass: 2
Flags: W
AnchorPoint: "Anchor-4" 1020 1000 basechar 0
AnchorPoint: "Anchor-3" 530 -520 basechar 0
AnchorPoint: "Anchor-2" 530 -520 basechar 0
AnchorPoint: "Anchor-1" 530 -520 basechar 0
AnchorPoint: "Anchor-0" 570 1100 basechar 0
LayerCount: 2
Fore
SplineSet
615 1040 m 0,0,1
 715 1040 715 1040 787.5 1016.5 c 128,-1,2
 860 993 860 993 915 955 c 1,3,-1
 880 775 l 1,4,5
 812 825 812 825 745 850 c 128,-1,6
 678 875 678 875 600 875 c 0,7,8
 533 875 533 875 475.5 849.5 c 128,-1,9
 418 824 418 824 375.5 776 c 128,-1,10
 333 728 333 728 309 658 c 128,-1,11
 285 588 285 588 285 500 c 0,12,13
 285 419 285 419 307 353 c 128,-1,14
 329 287 329 287 370 239.5 c 128,-1,15
 411 192 411 192 469 166 c 128,-1,16
 527 140 527 140 600 140 c 0,17,18
 691 140 691 140 765 171 c 128,-1,19
 839 202 839 202 905 260 c 1,20,-1
 925 85 l 1,21,22
 887 56 887 56 849.5 35.5 c 128,-1,23
 812 15 812 15 771 1.5 c 128,-1,24
 730 -12 730 -12 683 -18.5 c 128,-1,25
 636 -25 636 -25 580 -25 c 0,26,27
 575 -25 575 -25 570 -24.5 c 128,-1,28
 565 -24 565 -24 560 -24 c 1,29,-1
 560 -95 l 1,30,31
 570 -93 570 -93 580.5 -91.5 c 128,-1,32
 591 -90 591 -90 608 -90 c 0,33,34
 642 -90 642 -90 671 -102.5 c 128,-1,35
 700 -115 700 -115 721 -137.5 c 128,-1,36
 742 -160 742 -160 753.5 -191.5 c 128,-1,37
 765 -223 765 -223 765 -260 c 0,38,39
 765 -311 765 -311 742 -352 c 128,-1,40
 719 -393 719 -393 682 -421.5 c 128,-1,41
 645 -450 645 -450 600 -465 c 128,-1,42
 555 -480 555 -480 510 -480 c 0,43,44
 471 -480 471 -480 438.5 -468.5 c 128,-1,45
 406 -457 406 -457 375 -440 c 1,46,-1
 385 -340 l 1,47,48
 407 -356 407 -356 430 -363 c 128,-1,49
 453 -370 453 -370 485 -370 c 0,50,51
 507 -370 507 -370 530.5 -365 c 128,-1,52
 554 -360 554 -360 573.5 -348 c 128,-1,53
 593 -336 593 -336 606 -317 c 128,-1,54
 619 -298 619 -298 620 -270 c 1,55,56
 619 -231 619 -231 591.5 -205.5 c 128,-1,57
 564 -180 564 -180 523 -180 c 0,58,59
 499 -180 499 -180 475 -187.5 c 128,-1,60
 451 -195 451 -195 435 -205 c 1,61,-1
 435 -4 l 1,62,63
 361 17 361 17 298.5 60.5 c 128,-1,64
 236 104 236 104 191 167 c 128,-1,65
 146 230 146 230 120.5 311.5 c 128,-1,66
 95 393 95 393 95 490 c 0,67,68
 95 603 95 603 131.5 703 c 128,-1,69
 168 803 168 803 235.5 878 c 128,-1,70
 303 953 303 953 399.5 996.5 c 128,-1,71
 496 1040 496 1040 615 1040 c 0,0,1
EndSplineSet
Ligature2: "'ccmp' Glyph Composition/Decomposition lookup 3 subtable" c uni0327
EndChar

StartChar: dagger
Encoding: 8224 8224 130
Width: 1025
Flags: W
LayerCount: 2
Fore
SplineSet
590 835 m 2,0,1
 590 726 590 726 590.5 606.5 c 128,-1,2
 591 487 591 487 592.5 354 c 128,-1,3
 594 221 594 221 598 74.5 c 128,-1,4
 602 -72 602 -72 610 -235 c 1,5,-1
 415 -235 l 1,6,7
 422 -72 422 -72 426.5 74.5 c 128,-1,8
 431 221 431 221 432.5 354 c 128,-1,9
 434 487 434 487 434.5 606.5 c 128,-1,10
 435 726 435 726 435 835 c 2,11,-1
 435 915 l 1,12,13
 392 915 392 915 347.5 914 c 128,-1,14
 303 913 303 913 254 911.5 c 128,-1,15
 205 910 205 910 150 908.5 c 128,-1,16
 95 907 95 907 30 904 c 1,17,-1
 30 1069 l 1,18,19
 94 1066 94 1066 149.5 1064 c 128,-1,20
 205 1062 205 1062 253.5 1061.5 c 128,-1,21
 302 1061 302 1061 346.5 1060.5 c 128,-1,22
 391 1060 391 1060 434 1060 c 1,23,24
 432 1172 432 1172 428.5 1289 c 128,-1,25
 425 1406 425 1406 415 1510 c 1,26,-1
 610 1510 l 1,27,28
 600 1406 600 1406 596 1289 c 128,-1,29
 592 1172 592 1172 591 1060 c 1,30,31
 642 1060 642 1060 686 1060.5 c 128,-1,32
 730 1061 730 1061 776 1061.5 c 128,-1,33
 822 1062 822 1062 874.5 1064 c 128,-1,34
 927 1066 927 1066 995 1069 c 1,35,-1
 995 904 l 1,36,37
 929 907 929 907 873.5 908.5 c 128,-1,38
 818 910 818 910 769.5 911.5 c 128,-1,39
 721 913 721 913 677 914 c 128,-1,40
 633 915 633 915 590 915 c 1,41,-1
 590 835 l 2,0,1
EndSplineSet
EndChar

StartChar: degree
Encoding: 176 176 131
Width: 640
Flags: W
LayerCount: 2
Fore
SplineSet
70 1235 m 0,0,1
 70 1287 70 1287 89.5 1333 c 128,-1,2
 109 1379 109 1379 142.5 1412.5 c 128,-1,3
 176 1446 176 1446 221.5 1465.5 c 128,-1,4
 267 1485 267 1485 320 1485 c 0,5,6
 372 1485 372 1485 418 1465.5 c 128,-1,7
 464 1446 464 1446 497.5 1412.5 c 128,-1,8
 531 1379 531 1379 550.5 1333 c 128,-1,9
 570 1287 570 1287 570 1235 c 0,10,11
 570 1182 570 1182 550.5 1136.5 c 128,-1,12
 531 1091 531 1091 497.5 1057.5 c 128,-1,13
 464 1024 464 1024 418 1004.5 c 128,-1,14
 372 985 372 985 320 985 c 0,15,16
 267 985 267 985 221.5 1004.5 c 128,-1,17
 176 1024 176 1024 142.5 1057.5 c 128,-1,18
 109 1091 109 1091 89.5 1136.5 c 128,-1,19
 70 1182 70 1182 70 1235 c 0,0,1
455 1235 m 256,20,21
 455 1263 455 1263 444.5 1287.5 c 128,-1,22
 434 1312 434 1312 415.5 1330.5 c 128,-1,23
 397 1349 397 1349 372.5 1359.5 c 128,-1,24
 348 1370 348 1370 320 1370 c 256,25,26
 292 1370 292 1370 267.5 1359.5 c 128,-1,27
 243 1349 243 1349 224.5 1330.5 c 128,-1,28
 206 1312 206 1312 195.5 1287.5 c 128,-1,29
 185 1263 185 1263 185 1235 c 256,30,31
 185 1207 185 1207 195.5 1182.5 c 128,-1,32
 206 1158 206 1158 224.5 1139.5 c 128,-1,33
 243 1121 243 1121 267.5 1110.5 c 128,-1,34
 292 1100 292 1100 320 1100 c 256,35,36
 348 1100 348 1100 372.5 1110.5 c 128,-1,37
 397 1121 397 1121 415.5 1139.5 c 128,-1,38
 434 1158 434 1158 444.5 1182.5 c 128,-1,39
 455 1207 455 1207 455 1235 c 256,20,21
EndSplineSet
EndChar

StartChar: cent
Encoding: 162 162 132
Width: 1200
Flags: W
LayerCount: 2
Fore
SplineSet
386 549 m 0,0,1
 386 484 386 484 401 429 c 128,-1,2
 416 374 416 374 444 331 c 128,-1,3
 472 288 472 288 513 258.5 c 128,-1,4
 554 229 554 229 605 216 c 1,5,-1
 605 894 l 1,6,7
 557 880 557 880 517 851 c 128,-1,8
 477 822 477 822 447.5 778 c 128,-1,9
 418 734 418 734 402 676.5 c 128,-1,10
 386 619 386 619 386 549 c 0,0,1
735 1320 m 1,11,-1
 735 1061 l 1,12,13
 816 1056 816 1056 876 1034.5 c 128,-1,14
 936 1013 936 1013 984 981 c 1,15,-1
 951 810 l 1,16,17
 897 849 897 849 844.5 872 c 128,-1,18
 792 895 792 895 735 902 c 1,19,-1
 735 209 l 1,20,21
 804 217 804 217 862.5 245.5 c 128,-1,22
 921 274 921 274 975 321 c 1,23,-1
 994 155 l 1,24,25
 934 110 934 110 873.5 85 c 128,-1,26
 813 60 813 60 735 53 c 1,27,-1
 735 -210 l 1,28,-1
 605 -210 l 1,29,-1
 605 53 l 1,30,31
 520 63 520 63 447 101.5 c 128,-1,32
 374 140 374 140 320 202 c 128,-1,33
 266 264 266 264 235.5 349.5 c 128,-1,34
 205 435 205 435 205 540 c 0,35,36
 205 636 205 636 233 722 c 128,-1,37
 261 808 261 808 312.5 876 c 128,-1,38
 364 944 364 944 438 990.5 c 128,-1,39
 512 1037 512 1037 605 1054 c 1,40,-1
 605 1320 l 1,41,-1
 735 1320 l 1,11,-1
EndSplineSet
EndChar

StartChar: sterling
Encoding: 163 163 133
Width: 1200
Flags: W
LayerCount: 2
Fore
SplineSet
155 835 m 1,0,-1
 268 835 l 1,1,2
 264 889 264 889 262 939 c 128,-1,3
 260 989 260 989 260 1035 c 0,4,5
 260 1147 260 1147 288.5 1231.5 c 128,-1,6
 317 1316 317 1316 369 1372.5 c 128,-1,7
 421 1429 421 1429 493.5 1457 c 128,-1,8
 566 1485 566 1485 655 1485 c 0,9,10
 684 1485 684 1485 718 1480 c 128,-1,11
 752 1475 752 1475 785 1466 c 128,-1,12
 818 1457 818 1457 849 1444 c 128,-1,13
 880 1431 880 1431 903 1415 c 1,14,-1
 857 1265 l 1,15,16
 838 1279 838 1279 812.5 1290 c 128,-1,17
 787 1301 787 1301 759 1309 c 128,-1,18
 731 1317 731 1317 704 1321 c 128,-1,19
 677 1325 677 1325 655 1325 c 0,20,21
 608 1325 608 1325 569.5 1311.5 c 128,-1,22
 531 1298 531 1298 503.5 1268 c 128,-1,23
 476 1238 476 1238 460.5 1190.5 c 128,-1,24
 445 1143 445 1143 445 1075 c 0,25,26
 445 1022 445 1022 448 961 c 128,-1,27
 451 900 451 900 456 835 c 1,28,-1
 765 835 l 1,29,-1
 765 690 l 1,30,-1
 468 690 l 1,31,32
 473 628 473 628 476 571 c 128,-1,33
 479 514 479 514 479 465 c 0,34,35
 479 371 479 371 456.5 297.5 c 128,-1,36
 434 224 434 224 376 165 c 1,37,-1
 579 165 l 2,38,39
 653 165 653 165 719 165.5 c 128,-1,40
 785 166 785 166 841 167.5 c 128,-1,41
 897 169 897 169 941 172 c 128,-1,42
 985 175 985 175 1015 180 c 1,43,-1
 1015 0 l 1,44,-1
 145 0 l 1,45,-1
 145 130 l 1,46,47
 175 152 175 152 202 180 c 128,-1,48
 229 208 229 208 249.5 241 c 128,-1,49
 270 274 270 274 282 312 c 128,-1,50
 294 350 294 350 294 392 c 0,51,52
 294 462 294 462 289.5 537.5 c 128,-1,53
 285 613 285 613 279 690 c 1,54,-1
 155 690 l 1,55,-1
 155 835 l 1,0,-1
EndSplineSet
EndChar

StartChar: section
Encoding: 167 167 134
Width: 1024
Flags: W
LayerCount: 2
Fore
SplineSet
700 480 m 0,0,1
 700 508 700 508 690.5 536.5 c 128,-1,2
 681 565 681 565 658 596 c 128,-1,3
 635 627 635 627 596.5 661 c 128,-1,4
 558 695 558 695 501 735 c 1,5,6
 459 734 459 734 424 722 c 128,-1,7
 389 710 389 710 363.5 689.5 c 128,-1,8
 338 669 338 669 324 640 c 128,-1,9
 310 611 310 611 310 575 c 0,10,11
 310 544 310 544 320 514.5 c 128,-1,12
 330 485 330 485 354.5 453.5 c 128,-1,13
 379 422 379 422 419.5 387 c 128,-1,14
 460 352 460 352 522 311 c 1,15,16
 561 314 561 314 594 329 c 128,-1,17
 627 344 627 344 650.5 366.5 c 128,-1,18
 674 389 674 389 687 418 c 128,-1,19
 700 447 700 447 700 480 c 0,0,1
880 512 m 0,20,21
 880 405 880 405 829 322.5 c 128,-1,22
 778 240 778 240 690 195 c 1,23,24
 788 115 788 115 834 33 c 128,-1,25
 880 -49 880 -49 880 -140 c 0,26,27
 880 -208 880 -208 850 -268 c 128,-1,28
 820 -328 820 -328 768 -373 c 128,-1,29
 716 -418 716 -418 646 -444 c 128,-1,30
 576 -470 576 -470 495 -470 c 0,31,32
 434 -470 434 -470 377.5 -461 c 128,-1,33
 321 -452 321 -452 271.5 -436 c 128,-1,34
 222 -420 222 -420 181 -399 c 128,-1,35
 140 -378 140 -378 110 -355 c 1,36,-1
 160 -175 l 1,37,38
 194 -205 194 -205 236.5 -230 c 128,-1,39
 279 -255 279 -255 324 -273 c 128,-1,40
 369 -291 369 -291 414.5 -300.5 c 128,-1,41
 460 -310 460 -310 500 -310 c 0,42,43
 544 -310 544 -310 580.5 -297 c 128,-1,44
 617 -284 617 -284 643.5 -263.5 c 128,-1,45
 670 -243 670 -243 685 -217 c 128,-1,46
 700 -191 700 -191 700 -165 c 0,47,48
 700 -117 700 -117 679 -76 c 128,-1,49
 658 -35 658 -35 619 4.5 c 128,-1,50
 580 44 580 44 525.5 84 c 128,-1,51
 471 124 471 124 405 170 c 0,52,53
 337 217 337 217 286 260.5 c 128,-1,54
 235 304 235 304 200 351 c 128,-1,55
 165 398 165 398 147.5 451.5 c 128,-1,56
 130 505 130 505 130 571 c 0,57,58
 130 674 130 674 182 746 c 128,-1,59
 234 818 234 818 320 856 c 1,60,61
 222 931 222 931 176 1001 c 128,-1,62
 130 1071 130 1071 130 1145 c 0,63,64
 130 1206 130 1206 150 1266.5 c 128,-1,65
 170 1327 170 1327 216 1375.5 c 128,-1,66
 262 1424 262 1424 335 1454.5 c 128,-1,67
 408 1485 408 1485 515 1485 c 0,68,69
 569 1485 569 1485 616.5 1478 c 128,-1,70
 664 1471 664 1471 703.5 1459.5 c 128,-1,71
 743 1448 743 1448 776 1433.5 c 128,-1,72
 809 1419 809 1419 835 1405 c 1,73,-1
 800 1230 l 1,74,75
 775 1245 775 1245 743 1261.5 c 128,-1,76
 711 1278 711 1278 673.5 1292 c 128,-1,77
 636 1306 636 1306 593.5 1315.5 c 128,-1,78
 551 1325 551 1325 505 1325 c 0,79,80
 454 1325 454 1325 417 1313 c 128,-1,81
 380 1301 380 1301 356 1281.5 c 128,-1,82
 332 1262 332 1262 321 1237 c 128,-1,83
 310 1212 310 1212 310 1187 c 0,84,85
 310 1149 310 1149 331 1115 c 128,-1,86
 352 1081 352 1081 391 1046 c 128,-1,87
 430 1011 430 1011 484.5 972 c 128,-1,88
 539 933 539 933 605 885 c 0,89,90
 672 836 672 836 723.5 793 c 128,-1,91
 775 750 775 750 810 706 c 128,-1,92
 845 662 845 662 862.5 615 c 128,-1,93
 880 568 880 568 880 512 c 0,20,21
EndSplineSet
EndChar

StartChar: bullet
Encoding: 8226 8226 135
Width: 940
Flags: W
LayerCount: 2
Fore
SplineSet
250 733 m 256,0,1
 250 778 250 778 267.5 818 c 128,-1,2
 285 858 285 858 314.5 887.5 c 128,-1,3
 344 917 344 917 384 934.5 c 128,-1,4
 424 952 424 952 469 952 c 256,5,6
 514 952 514 952 554 934.5 c 128,-1,7
 594 917 594 917 624.5 887.5 c 128,-1,8
 655 858 655 858 672.5 818 c 128,-1,9
 690 778 690 778 690 733 c 256,10,11
 690 688 690 688 672.5 648 c 128,-1,12
 655 608 655 608 624.5 577.5 c 128,-1,13
 594 547 594 547 554 529.5 c 128,-1,14
 514 512 514 512 469 512 c 256,15,16
 424 512 424 512 384 529.5 c 128,-1,17
 344 547 344 547 314.5 577.5 c 128,-1,18
 285 608 285 608 267.5 648 c 128,-1,19
 250 688 250 688 250 733 c 256,0,1
EndSplineSet
EndChar

StartChar: paragraph
Encoding: 182 182 136
Width: 1025
Flags: W
LayerCount: 2
Fore
SplineSet
850 1345 m 1,0,-1
 850 0 l 1,1,-1
 715 0 l 1,2,-1
 715 1345 l 1,3,-1
 555 1345 l 1,4,-1
 555 0 l 1,5,-1
 420 0 l 1,6,-1
 420 765 l 1,7,8
 386 765 386 765 345 772 c 128,-1,9
 304 779 304 779 263 795.5 c 128,-1,10
 222 812 222 812 183.5 838.5 c 128,-1,11
 145 865 145 865 115.5 903.5 c 128,-1,12
 86 942 86 942 68 994 c 128,-1,13
 50 1046 50 1046 50 1113 c 256,14,15
 50 1180 50 1180 68 1232 c 128,-1,16
 86 1284 86 1284 116 1322.5 c 128,-1,17
 146 1361 146 1361 185.5 1387.5 c 128,-1,18
 225 1414 225 1414 268.5 1430 c 128,-1,19
 312 1446 312 1446 356.5 1453 c 128,-1,20
 401 1460 401 1460 440 1460 c 2,21,-1
 965 1460 l 1,22,-1
 965 1345 l 1,23,-1
 850 1345 l 1,0,-1
EndSplineSet
EndChar

StartChar: germandbls
Encoding: 223 223 137
Width: 1238
GlyphClass: 2
Flags: W
AnchorPoint: "Anchor-4" 1238 1000 basechar 0
AnchorPoint: "Anchor-3" 590 -100 basechar 0
AnchorPoint: "Anchor-2" 590 -100 basechar 0
AnchorPoint: "Anchor-1" 590 -100 basechar 0
AnchorPoint: "Anchor-0" 590 1635 basechar 0
LayerCount: 2
Fore
SplineSet
762 845 m 0,0,1
 762 806 762 806 779.5 779 c 128,-1,2
 797 752 797 752 824 731 c 128,-1,3
 851 710 851 710 885 692.5 c 128,-1,4
 919 675 919 675 952 656 c 0,5,6
 990 633 990 633 1031 604 c 128,-1,7
 1072 575 1072 575 1105.5 535.5 c 128,-1,8
 1139 496 1139 496 1161 445 c 128,-1,9
 1183 394 1183 394 1183 328 c 0,10,11
 1183 245 1183 245 1154 179.5 c 128,-1,12
 1125 114 1125 114 1073 68.5 c 128,-1,13
 1021 23 1021 23 949.5 -1 c 128,-1,14
 878 -25 878 -25 793 -25 c 0,15,16
 757 -25 757 -25 718.5 -18.5 c 128,-1,17
 680 -12 680 -12 645 -2 c 128,-1,18
 610 8 610 8 580 21 c 128,-1,19
 550 34 550 34 531 48 c 1,20,-1
 581 228 l 1,21,22
 599 210 599 210 623.5 193 c 128,-1,23
 648 176 648 176 676 163.5 c 128,-1,24
 704 151 704 151 734 143 c 128,-1,25
 764 135 764 135 793 135 c 0,26,27
 839 135 839 135 878.5 147.5 c 128,-1,28
 918 160 918 160 946.5 183.5 c 128,-1,29
 975 207 975 207 991 241 c 128,-1,30
 1007 275 1007 275 1007 319 c 0,31,32
 1007 353 1007 353 993 382.5 c 128,-1,33
 979 412 979 412 955 438 c 128,-1,34
 931 464 931 464 899 485.5 c 128,-1,35
 867 507 867 507 832 525 c 0,36,37
 788 547 788 547 743.5 575.5 c 128,-1,38
 699 604 699 604 663 642.5 c 128,-1,39
 627 681 627 681 604.5 730.5 c 128,-1,40
 582 780 582 780 582 845 c 0,41,42
 582 907 582 907 605.5 949 c 128,-1,43
 629 991 629 991 664.5 1021 c 128,-1,44
 700 1051 700 1051 741 1074.5 c 128,-1,45
 782 1098 782 1098 817.5 1123.5 c 128,-1,46
 853 1149 853 1149 876.5 1182 c 128,-1,47
 900 1215 900 1215 900 1264 c 0,48,49
 900 1307 900 1307 877.5 1343 c 128,-1,50
 855 1379 855 1379 819.5 1405 c 128,-1,51
 784 1431 784 1431 740.5 1445.5 c 128,-1,52
 697 1460 697 1460 655 1460 c 0,53,54
 603 1460 603 1460 548 1445 c 128,-1,55
 493 1430 493 1430 448 1395 c 128,-1,56
 403 1360 403 1360 374 1302.5 c 128,-1,57
 345 1245 345 1245 345 1160 c 2,58,-1
 345 0 l 1,59,-1
 130 0 l 1,60,61
 138 39 138 39 144 94 c 128,-1,62
 150 149 150 149 153.5 213.5 c 128,-1,63
 157 278 157 278 158.5 349.5 c 128,-1,64
 160 421 160 421 160 494 c 2,65,-1
 160 1120 l 2,66,67
 160 1255 160 1255 199 1350 c 128,-1,68
 238 1445 238 1445 302 1505 c 128,-1,69
 366 1565 366 1565 449 1592.5 c 128,-1,70
 532 1620 532 1620 619 1620 c 0,71,72
 734 1620 734 1620 821 1591.5 c 128,-1,73
 908 1563 908 1563 966.5 1516 c 128,-1,74
 1025 1469 1025 1469 1054 1408.5 c 128,-1,75
 1083 1348 1083 1348 1083 1284 c 0,76,77
 1083 1204 1083 1204 1059 1152.5 c 128,-1,78
 1035 1101 1035 1101 999.5 1067 c 128,-1,79
 964 1033 964 1033 922.5 1010.5 c 128,-1,80
 881 988 881 988 845.5 966 c 128,-1,81
 810 944 810 944 786 916.5 c 128,-1,82
 762 889 762 889 762 845 c 0,0,1
EndSplineSet
EndChar

StartChar: registered
Encoding: 174 174 138
Width: 1615
Flags: W
LayerCount: 2
Fore
SplineSet
675 767 m 1,0,-1
 790 767 l 2,1,2
 892 767 892 767 946 805 c 128,-1,3
 1000 843 1000 843 1000 915 c 0,4,5
 1000 990 1000 990 950.5 1033 c 128,-1,6
 901 1076 901 1076 790 1076 c 0,7,8
 757 1076 757 1076 729 1075 c 128,-1,9
 701 1074 701 1074 675 1072 c 1,10,-1
 675 767 l 1,0,-1
675 548 m 2,11,12
 675 454 675 454 676.5 391 c 128,-1,13
 678 328 678 328 685 290 c 1,14,-1
 545 290 l 1,15,16
 551 328 551 328 552 391 c 128,-1,17
 553 454 553 454 553 548 c 2,18,-1
 553 898 l 2,19,20
 553 992 553 992 552 1062 c 128,-1,21
 551 1132 551 1132 545 1170 c 1,22,23
 575 1172 575 1172 614 1175 c 0,24,25
 647 1177 647 1177 692.5 1178.5 c 128,-1,26
 738 1180 738 1180 795 1180 c 0,27,28
 867 1180 867 1180 927.5 1165 c 128,-1,29
 988 1150 988 1150 1032 1118.5 c 128,-1,30
 1076 1087 1076 1087 1100.5 1039 c 128,-1,31
 1125 991 1125 991 1125 925 c 0,32,33
 1125 870 1125 870 1107 828.5 c 128,-1,34
 1089 787 1089 787 1059.5 757 c 128,-1,35
 1030 727 1030 727 993.5 708.5 c 128,-1,36
 957 690 957 690 920 680 c 1,37,38
 937 657 937 657 963 621.5 c 128,-1,39
 989 586 989 586 1019 546 c 128,-1,40
 1049 506 1049 506 1080 464.5 c 128,-1,41
 1111 423 1111 423 1138 387.5 c 128,-1,42
 1165 352 1165 352 1185.5 325.5 c 128,-1,43
 1206 299 1206 299 1215 290 c 1,44,-1
 1060 290 l 1,45,-1
 799 668 l 1,46,-1
 675 668 l 1,47,-1
 675 548 l 2,11,12
855 1365 m 256,48,49
 743 1365 743 1365 638.5 1324 c 128,-1,50
 534 1283 534 1283 453 1203 c 128,-1,51
 372 1123 372 1123 323.5 1004.5 c 128,-1,52
 275 886 275 886 275 730 c 256,53,54
 275 574 275 574 323.5 455.5 c 128,-1,55
 372 337 372 337 453 257 c 128,-1,56
 534 177 534 177 638.5 136 c 128,-1,57
 743 95 743 95 855 95 c 256,58,59
 967 95 967 95 1072.5 136 c 128,-1,60
 1178 177 1178 177 1259.5 257 c 128,-1,61
 1341 337 1341 337 1390.5 455.5 c 128,-1,62
 1440 574 1440 574 1440 730 c 256,63,64
 1440 886 1440 886 1390.5 1004.5 c 128,-1,65
 1341 1123 1341 1123 1259.5 1203 c 128,-1,66
 1178 1283 1178 1283 1072.5 1324 c 128,-1,67
 967 1365 967 1365 855 1365 c 256,48,49
855 1485 m 0,68,69
 942 1485 942 1485 1028.5 1464 c 128,-1,70
 1115 1443 1115 1443 1194 1400.5 c 128,-1,71
 1273 1358 1273 1358 1340.5 1295 c 128,-1,72
 1408 1232 1408 1232 1458 1148 c 128,-1,73
 1508 1064 1508 1064 1536.5 959.5 c 128,-1,74
 1565 855 1565 855 1565 730 c 0,75,76
 1565 602 1565 602 1536.5 496.5 c 128,-1,77
 1508 391 1508 391 1458 307.5 c 128,-1,78
 1408 224 1408 224 1340.5 161.5 c 128,-1,79
 1273 99 1273 99 1194 57.5 c 128,-1,80
 1115 16 1115 16 1028.5 -4.5 c 128,-1,81
 942 -25 942 -25 855 -25 c 0,82,83
 765 -25 765 -25 678 -4.5 c 128,-1,84
 591 16 591 16 513 57.5 c 128,-1,85
 435 99 435 99 368.5 161.5 c 128,-1,86
 302 224 302 224 253.5 307.5 c 128,-1,87
 205 391 205 391 177.5 497 c 128,-1,88
 150 603 150 603 150 730 c 0,89,90
 150 855 150 855 177.5 959.5 c 128,-1,91
 205 1064 205 1064 253.5 1148 c 128,-1,92
 302 1232 302 1232 368.5 1295 c 128,-1,93
 435 1358 435 1358 513 1400.5 c 128,-1,94
 591 1443 591 1443 678.5 1464 c 128,-1,95
 766 1485 766 1485 855 1485 c 0,68,69
EndSplineSet
EndChar

StartChar: copyright
Encoding: 169 169 139
Width: 1515
Flags: W
LayerCount: 2
Fore
SplineSet
1035 375 m 1,0,1
 1007 349 1007 349 973 329.5 c 128,-1,2
 939 310 939 310 901.5 296.5 c 128,-1,3
 864 283 864 283 825 276.5 c 128,-1,4
 786 270 786 270 750 270 c 0,5,6
 661 270 661 270 588 302.5 c 128,-1,7
 515 335 515 335 463.5 394.5 c 128,-1,8
 412 454 412 454 383.5 536.5 c 128,-1,9
 355 619 355 619 355 720 c 0,10,11
 355 835 355 835 390.5 924 c 128,-1,12
 426 1013 426 1013 483.5 1073 c 128,-1,13
 541 1133 541 1133 614.5 1164 c 128,-1,14
 688 1195 688 1195 765 1195 c 0,15,16
 834 1195 834 1195 897.5 1175.5 c 128,-1,17
 961 1156 961 1156 1030 1105 c 1,18,-1
 990 985 l 1,19,20
 930 1040 930 1040 876.5 1062.5 c 128,-1,21
 823 1085 823 1085 765 1085 c 256,22,23
 707 1085 707 1085 655 1062 c 128,-1,24
 603 1039 603 1039 564 994.5 c 128,-1,25
 525 950 525 950 502.5 885 c 128,-1,26
 480 820 480 820 480 735 c 0,27,28
 480 669 480 669 500 606 c 128,-1,29
 520 543 520 543 556.5 494 c 128,-1,30
 593 445 593 445 644.5 415 c 128,-1,31
 696 385 696 385 760 385 c 0,32,33
 830 385 830 385 893.5 418 c 128,-1,34
 957 451 957 451 1010 505 c 1,35,-1
 1035 375 l 1,0,1
755 1485 m 0,36,37
 842 1485 842 1485 928.5 1464 c 128,-1,38
 1015 1443 1015 1443 1094 1400.5 c 128,-1,39
 1173 1358 1173 1358 1240.5 1295 c 128,-1,40
 1308 1232 1308 1232 1358 1148 c 128,-1,41
 1408 1064 1408 1064 1436.5 959.5 c 128,-1,42
 1465 855 1465 855 1465 730 c 0,43,44
 1465 602 1465 602 1436.5 496.5 c 128,-1,45
 1408 391 1408 391 1358 307.5 c 128,-1,46
 1308 224 1308 224 1240.5 161.5 c 128,-1,47
 1173 99 1173 99 1094 57.5 c 128,-1,48
 1015 16 1015 16 928.5 -4.5 c 128,-1,49
 842 -25 842 -25 755 -25 c 0,50,51
 665 -25 665 -25 578 -4.5 c 128,-1,52
 491 16 491 16 413 57.5 c 128,-1,53
 335 99 335 99 268.5 161.5 c 128,-1,54
 202 224 202 224 153.5 307.5 c 128,-1,55
 105 391 105 391 77.5 497 c 128,-1,56
 50 603 50 603 50 730 c 0,57,58
 50 855 50 855 77.5 959.5 c 128,-1,59
 105 1064 105 1064 153.5 1148 c 128,-1,60
 202 1232 202 1232 268.5 1295 c 128,-1,61
 335 1358 335 1358 413 1400.5 c 128,-1,62
 491 1443 491 1443 578.5 1464 c 128,-1,63
 666 1485 666 1485 755 1485 c 0,36,37
755 1365 m 256,64,65
 643 1365 643 1365 538.5 1324 c 128,-1,66
 434 1283 434 1283 353 1203 c 128,-1,67
 272 1123 272 1123 223.5 1004.5 c 128,-1,68
 175 886 175 886 175 730 c 256,69,70
 175 574 175 574 223.5 455.5 c 128,-1,71
 272 337 272 337 353 257 c 128,-1,72
 434 177 434 177 538.5 136 c 128,-1,73
 643 95 643 95 755 95 c 256,74,75
 867 95 867 95 972.5 136 c 128,-1,76
 1078 177 1078 177 1159.5 257 c 128,-1,77
 1241 337 1241 337 1290.5 455.5 c 128,-1,78
 1340 574 1340 574 1340 730 c 256,79,80
 1340 886 1340 886 1290.5 1004.5 c 128,-1,81
 1241 1123 1241 1123 1159.5 1203 c 128,-1,82
 1078 1283 1078 1283 972.5 1324 c 128,-1,83
 867 1365 867 1365 755 1365 c 256,64,65
EndSplineSet
EndChar

StartChar: trademark
Encoding: 8482 8482 140
Width: 1665
Flags: W
LayerCount: 2
Fore
SplineSet
695 1460 m 1,0,-1
 695 1355 l 1,1,2
 662 1363 662 1363 630 1365 c 128,-1,3
 598 1367 598 1367 560 1367 c 2,4,-1
 431 1367 l 1,5,-1
 431 896 l 2,6,7
 431 815 431 815 433 752.5 c 128,-1,8
 435 690 435 690 442 657 c 1,9,-1
 313 657 l 1,10,11
 320 690 320 690 322 752.5 c 128,-1,12
 324 815 324 815 324 896 c 2,13,-1
 324 1367 l 1,14,-1
 194 1367 l 2,15,16
 158 1367 158 1367 125.5 1365 c 128,-1,17
 93 1363 93 1363 60 1355 c 1,18,-1
 60 1460 l 1,19,-1
 695 1460 l 1,0,-1
1373 1460 m 1,20,-1
 1497 1460 l 1,21,22
 1503 1264 1503 1264 1510 1099 c 0,23,24
 1513 1029 1513 1029 1516 958.5 c 128,-1,25
 1519 888 1519 888 1522 828 c 128,-1,26
 1525 768 1525 768 1528.5 722.5 c 128,-1,27
 1532 677 1532 677 1535 657 c 1,28,-1
 1431 657 l 1,29,-1
 1415 1307 l 1,30,-1
 1191 657 l 1,31,-1
 1082 657 l 1,32,-1
 856 1308 l 1,33,-1
 840 657 l 1,34,-1
 735 657 l 1,35,36
 738 677 738 677 741 722.5 c 128,-1,37
 744 768 744 768 747 828 c 128,-1,38
 750 888 750 888 753 958.5 c 128,-1,39
 756 1029 756 1029 759 1099 c 0,40,41
 766 1264 766 1264 773 1460 c 1,42,-1
 900 1460 l 1,43,-1
 1136 770 l 1,44,-1
 1373 1460 l 1,20,-1
EndSplineSet
EndChar

StartChar: dieresis
Encoding: 168 168 142
Width: 675
Flags: W
LayerCount: 2
Fore
SplineSet
0 1345 m 256,0,1
 0 1373 0 1373 9.5 1397.5 c 128,-1,2
 19 1422 19 1422 36 1440.5 c 128,-1,3
 53 1459 53 1459 76 1469.5 c 128,-1,4
 99 1480 99 1480 127 1480 c 256,5,6
 155 1480 155 1480 178.5 1469.5 c 128,-1,7
 202 1459 202 1459 219 1440.5 c 128,-1,8
 236 1422 236 1422 245.5 1397.5 c 128,-1,9
 255 1373 255 1373 255 1345 c 256,10,11
 255 1317 255 1317 245.5 1292.5 c 128,-1,12
 236 1268 236 1268 219 1249.5 c 128,-1,13
 202 1231 202 1231 178.5 1220.5 c 128,-1,14
 155 1210 155 1210 127 1210 c 256,15,16
 99 1210 99 1210 76 1220.5 c 128,-1,17
 53 1231 53 1231 36 1249.5 c 128,-1,18
 19 1268 19 1268 9.5 1292.5 c 128,-1,19
 0 1317 0 1317 0 1345 c 256,0,1
420 1345 m 256,20,21
 420 1373 420 1373 429.5 1397.5 c 128,-1,22
 439 1422 439 1422 456 1440.5 c 128,-1,23
 473 1459 473 1459 496 1469.5 c 128,-1,24
 519 1480 519 1480 547 1480 c 256,25,26
 575 1480 575 1480 598.5 1469.5 c 128,-1,27
 622 1459 622 1459 639 1440.5 c 128,-1,28
 656 1422 656 1422 665.5 1397.5 c 128,-1,29
 675 1373 675 1373 675 1345 c 256,30,31
 675 1317 675 1317 665.5 1292.5 c 128,-1,32
 656 1268 656 1268 639 1249.5 c 128,-1,33
 622 1231 622 1231 598.5 1220.5 c 128,-1,34
 575 1210 575 1210 547 1210 c 256,35,36
 519 1210 519 1210 496 1220.5 c 128,-1,37
 473 1231 473 1231 456 1249.5 c 128,-1,38
 439 1268 439 1268 429.5 1292.5 c 128,-1,39
 420 1317 420 1317 420 1345 c 256,20,21
EndSplineSet
EndChar

StartChar: notequal
Encoding: 8800 8800 143
Width: 1200
Flags: W
LayerCount: 2
Fore
SplineSet
1005 1215 m 1,0,-1
 851 980 l 1,1,-1
 1075 980 l 1,2,-1
 1075 830 l 1,3,-1
 752 830 l 1,4,-1
 621 630 l 1,5,-1
 1075 630 l 1,6,-1
 1075 480 l 1,7,-1
 523 480 l 1,8,-1
 340 200 l 1,9,-1
 180 200 l 1,10,-1
 363 480 l 1,11,-1
 125 480 l 1,12,-1
 125 630 l 1,13,-1
 462 630 l 1,14,-1
 593 830 l 1,15,-1
 125 830 l 1,16,-1
 125 980 l 1,17,-1
 691 980 l 1,18,-1
 845 1215 l 1,19,-1
 1005 1215 l 1,0,-1
EndSplineSet
EndChar

StartChar: AE
Encoding: 198 198 144
Width: 1805
GlyphClass: 2
Flags: W
AnchorPoint: "Anchor-4" 1805 1000 basechar 0
AnchorPoint: "Anchor-3" 1015 -100 basechar 0
AnchorPoint: "Anchor-2" 1015 -100 basechar 0
AnchorPoint: "Anchor-1" 1015 -100 basechar 0
AnchorPoint: "Anchor-0" 1015 1530 basechar 0
LayerCount: 2
Fore
SplineSet
905 0 m 1,0,1
 908 17 908 17 910.5 42.5 c 128,-1,2
 913 68 913 68 914.5 111 c 128,-1,3
 916 154 916 154 917 220 c 128,-1,4
 918 286 918 286 919 385 c 1,5,-1
 470 385 l 1,6,-1
 280 0 l 1,7,-1
 80 0 l 1,8,9
 114 55 114 55 142 104.5 c 128,-1,10
 170 154 170 154 195.5 201.5 c 128,-1,11
 221 249 221 249 245 297.5 c 128,-1,12
 269 346 269 346 295 399 c 2,13,-1
 810 1460 l 1,14,-1
 1655 1460 l 1,15,-1
 1655 1295 l 1,16,-1
 1110 1295 l 1,17,-1
 1110 845 l 1,18,-1
 1580 845 l 1,19,-1
 1580 685 l 1,20,-1
 1110 685 l 1,21,-1
 1110 165 l 1,22,-1
 1274 165 l 2,23,24
 1423 165 1423 165 1524 167 c 128,-1,25
 1625 169 1625 169 1685 180 c 1,26,-1
 1685 0 l 1,27,-1
 905 0 l 1,0,1
547 540 m 1,28,-1
 919 540 l 1,29,30
 920 675 920 675 920 859 c 2,31,-1
 920 1295 l 1,32,-1
 547 540 l 1,28,-1
EndSplineSet
EndChar

StartChar: Oslash
Encoding: 216 216 145
Width: 1460
GlyphClass: 2
Flags: W
AnchorPoint: "Anchor-4" 1460 1000 basechar 0
AnchorPoint: "Anchor-3" 717 -100 basechar 0
AnchorPoint: "Anchor-2" 717 -100 basechar 0
AnchorPoint: "Anchor-1" 717 -100 basechar 0
AnchorPoint: "Anchor-0" 717 1530 basechar 0
LayerCount: 2
Fore
SplineSet
290 745 m 0,0,1
 290 608 290 608 319.5 500 c 128,-1,2
 349 392 349 392 405 314 c 1,3,-1
 913 1258 l 1,4,5
 827 1310 827 1310 720 1310 c 0,6,7
 625 1310 625 1310 546 1270.5 c 128,-1,8
 467 1231 467 1231 410 1157.5 c 128,-1,9
 353 1084 353 1084 321.5 979.5 c 128,-1,10
 290 875 290 875 290 745 c 0,0,1
1145 715 m 0,11,12
 1145 863 1145 863 1110.5 977.5 c 128,-1,13
 1076 1092 1076 1092 1013 1170 c 1,14,-1
 500 217 l 1,15,16
 594 150 594 150 720 150 c 0,17,18
 812 150 812 150 890 188.5 c 128,-1,19
 968 227 968 227 1024.5 299.5 c 128,-1,20
 1081 372 1081 372 1113 477 c 128,-1,21
 1145 582 1145 582 1145 715 c 0,11,12
1206 1530 m 1,22,-1
 1105 1341 l 1,23,24
 1157 1294 1157 1294 1200.5 1232.5 c 128,-1,25
 1244 1171 1244 1171 1275 1096 c 128,-1,26
 1306 1021 1306 1021 1323 931.5 c 128,-1,27
 1340 842 1340 842 1340 740 c 0,28,29
 1340 560 1340 560 1286.5 418 c 128,-1,30
 1233 276 1233 276 1144.5 177.5 c 128,-1,31
 1056 79 1056 79 943 27 c 128,-1,32
 830 -25 830 -25 710 -25 c 0,33,34
 551 -25 551 -25 414 57 c 1,35,-1
 343 -75 l 1,36,-1
 195 -75 l 1,37,-1
 310 138 l 1,38,39
 212 233 212 233 153.5 379 c 128,-1,40
 95 525 95 525 95 720 c 0,41,42
 95 840 95 840 119.5 943 c 128,-1,43
 144 1046 144 1046 187.5 1131 c 128,-1,44
 231 1216 231 1216 291 1282 c 128,-1,45
 351 1348 351 1348 421.5 1393 c 128,-1,46
 492 1438 492 1438 570.5 1461.5 c 128,-1,47
 649 1485 649 1485 730 1485 c 0,48,49
 801 1485 801 1485 868.5 1467.5 c 128,-1,50
 936 1450 936 1450 998 1416 c 1,51,-1
 1060 1530 l 1,52,-1
 1206 1530 l 1,22,-1
EndSplineSet
EndChar

StartChar: infinity
Encoding: 8734 8734 146
Width: 1200
Flags: W
LayerCount: 2
Fore
SplineSet
1160 730 m 0,0,1
 1160 670 1160 670 1137.5 621 c 128,-1,2
 1115 572 1115 572 1077.5 537.5 c 128,-1,3
 1040 503 1040 503 992.5 484 c 128,-1,4
 945 465 945 465 895 465 c 0,5,6
 859 465 859 465 821.5 472 c 128,-1,7
 784 479 784 479 746.5 495.5 c 128,-1,8
 709 512 709 512 671.5 538.5 c 128,-1,9
 634 565 634 565 600 605 c 1,10,11
 531 531 531 531 454 498 c 128,-1,12
 377 465 377 465 305 465 c 0,13,14
 249 465 249 465 200.5 486.5 c 128,-1,15
 152 508 152 508 116.5 545 c 128,-1,16
 81 582 81 582 60.5 629.5 c 128,-1,17
 40 677 40 677 40 730 c 0,18,19
 40 790 40 790 62.5 839.5 c 128,-1,20
 85 889 85 889 122.5 925 c 128,-1,21
 160 961 160 961 207.5 980.5 c 128,-1,22
 255 1000 255 1000 305 1000 c 0,23,24
 377 1000 377 1000 454 962.5 c 128,-1,25
 531 925 531 925 600 845 c 1,26,27
 669 919 669 919 746 959.5 c 128,-1,28
 823 1000 823 1000 895 1000 c 0,29,30
 951 1000 951 1000 999.5 977.5 c 128,-1,31
 1048 955 1048 955 1083.5 917.5 c 128,-1,32
 1119 880 1119 880 1139.5 831 c 128,-1,33
 1160 782 1160 782 1160 730 c 0,0,1
670 730 m 1,34,35
 695 693 695 693 723.5 666.5 c 128,-1,36
 752 640 752 640 780.5 623 c 128,-1,37
 809 606 809 606 835.5 598 c 128,-1,38
 862 590 862 590 885 590 c 0,39,40
 913 590 913 590 937.5 600.5 c 128,-1,41
 962 611 962 611 980.5 630 c 128,-1,42
 999 649 999 649 1009.5 674.5 c 128,-1,43
 1020 700 1020 700 1020 730 c 0,44,45
 1020 756 1020 756 1009.5 780.5 c 128,-1,46
 999 805 999 805 980.5 823.5 c 128,-1,47
 962 842 962 842 937.5 853.5 c 128,-1,48
 913 865 913 865 885 865 c 0,49,50
 862 865 862 865 834 855.5 c 128,-1,51
 806 846 806 846 776.5 828.5 c 128,-1,52
 747 811 747 811 719 786 c 128,-1,53
 691 761 691 761 670 730 c 1,34,35
530 730 m 1,54,55
 504 767 504 767 476 793.5 c 128,-1,56
 448 820 448 820 419.5 837 c 128,-1,57
 391 854 391 854 364 862 c 128,-1,58
 337 870 337 870 315 870 c 0,59,60
 287 870 287 870 262.5 859.5 c 128,-1,61
 238 849 238 849 219.5 830 c 128,-1,62
 201 811 201 811 190.5 785.5 c 128,-1,63
 180 760 180 760 180 730 c 0,64,65
 180 704 180 704 190.5 679.5 c 128,-1,66
 201 655 201 655 219.5 636 c 128,-1,67
 238 617 238 617 262.5 606 c 128,-1,68
 287 595 287 595 315 595 c 0,69,70
 337 595 337 595 365.5 604.5 c 128,-1,71
 394 614 394 614 423.5 631.5 c 128,-1,72
 453 649 453 649 481 674 c 128,-1,73
 509 699 509 699 530 730 c 1,54,55
EndSplineSet
EndChar

StartChar: plusminus
Encoding: 177 177 147
Width: 1200
Flags: W
LayerCount: 2
Fore
SplineSet
155 350 m 1,0,-1
 1045 350 l 1,1,-1
 1045 200 l 1,2,-1
 155 200 l 1,3,-1
 155 350 l 1,0,-1
155 985 m 1,4,-1
 525 985 l 1,5,-1
 525 1365 l 1,6,-1
 675 1365 l 1,7,-1
 675 985 l 1,8,-1
 1045 985 l 1,9,-1
 1045 835 l 1,10,-1
 675 835 l 1,11,-1
 675 470 l 1,12,-1
 525 470 l 1,13,-1
 525 835 l 1,14,-1
 155 835 l 1,15,-1
 155 985 l 1,4,-1
EndSplineSet
EndChar

StartChar: lessequal
Encoding: 8804 8804 148
Width: 1200
Flags: W
LayerCount: 2
Fore
SplineSet
1080 245 m 1,0,-1
 100 645 l 1,1,-1
 100 815 l 1,2,-1
 1080 1215 l 1,3,-1
 1080 1035 l 1,4,-1
 290 730 l 1,5,-1
 1080 425 l 1,6,-1
 1080 245 l 1,0,-1
100 150 m 1,7,-1
 1080 150 l 1,8,-1
 1080 0 l 1,9,-1
 100 0 l 1,10,-1
 100 150 l 1,7,-1
EndSplineSet
EndChar

StartChar: greaterequal
Encoding: 8805 8805 149
Width: 1200
Flags: W
LayerCount: 2
Fore
SplineSet
120 150 m 1,0,-1
 1100 150 l 1,1,-1
 1100 0 l 1,2,-1
 120 0 l 1,3,-1
 120 150 l 1,0,-1
120 1215 m 1,4,-1
 1100 815 l 1,5,-1
 1100 645 l 1,6,-1
 120 245 l 1,7,-1
 120 425 l 1,8,-1
 910 730 l 1,9,-1
 120 1035 l 1,10,-1
 120 1215 l 1,4,-1
EndSplineSet
EndChar

StartChar: yen
Encoding: 165 165 150
Width: 1200
Flags: W
LayerCount: 2
Fore
SplineSet
200 715 m 1,0,-1
 445 715 l 1,1,-1
 286 1012 l 2,2,3
 261 1059 261 1059 237.5 1103.5 c 128,-1,4
 214 1148 214 1148 187.5 1193 c 128,-1,5
 161 1238 161 1238 131 1286 c 128,-1,6
 101 1334 101 1334 64 1387 c 1,7,-1
 265 1387 l 1,8,-1
 608 759 l 1,9,-1
 934 1387 l 1,10,-1
 1135 1387 l 1,11,12
 1096 1327 1096 1327 1066.5 1278 c 128,-1,13
 1037 1229 1037 1229 1012 1185.5 c 128,-1,14
 987 1142 987 1142 964.5 1100 c 128,-1,15
 942 1058 942 1058 917 1012 c 2,16,-1
 758 715 l 1,17,-1
 1008 715 l 1,18,-1
 1008 570 l 1,19,-1
 682 570 l 1,20,-1
 682 465 l 1,21,-1
 1008 465 l 1,22,-1
 1008 320 l 1,23,-1
 682 320 l 1,24,25
 682 212 682 212 684.5 129.5 c 128,-1,26
 687 47 687 47 695 0 c 1,27,-1
 504 0 l 1,28,29
 512 47 512 47 514 129.5 c 128,-1,30
 516 212 516 212 517 320 c 1,31,-1
 200 320 l 1,32,-1
 200 465 l 1,33,-1
 517 465 l 1,34,-1
 517 570 l 1,35,-1
 200 570 l 1,36,-1
 200 715 l 1,0,-1
EndSplineSet
EndChar

StartChar: mu
Encoding: 181 181 151
Width: 1185
Flags: W
LayerCount: 2
Fore
SplineSet
920 0 m 1,0,1
 913 17 913 17 905 40 c 128,-1,2
 897 63 897 63 889.5 89 c 128,-1,3
 882 115 882 115 875.5 143.5 c 128,-1,4
 869 172 869 172 865 200 c 1,5,6
 841 162 841 162 806.5 122.5 c 128,-1,7
 772 83 772 83 730 50 c 128,-1,8
 688 17 688 17 640.5 -4 c 128,-1,9
 593 -25 593 -25 545 -25 c 0,10,11
 510 -25 510 -25 479 -16 c 128,-1,12
 448 -7 448 -7 422 7.5 c 128,-1,13
 396 22 396 22 375 41 c 128,-1,14
 354 60 354 60 340 80 c 1,15,-1
 340 -150 l 2,16,17
 340 -210 340 -210 341.5 -258.5 c 128,-1,18
 343 -307 343 -307 346 -348 c 128,-1,19
 349 -389 349 -389 354 -423.5 c 128,-1,20
 359 -458 359 -458 365 -490 c 1,21,-1
 155 -490 l 1,22,-1
 155 700 l 2,23,24
 155 748 155 748 154.5 787 c 128,-1,25
 154 826 154 826 152 862.5 c 128,-1,26
 150 899 150 899 146 937 c 128,-1,27
 142 975 142 975 135 1020 c 1,28,-1
 340 1020 l 1,29,-1
 340 465 l 2,30,31
 340 380 340 380 359.5 318.5 c 128,-1,32
 379 257 379 257 410.5 217.5 c 128,-1,33
 442 178 442 178 482 159 c 128,-1,34
 522 140 522 140 564 140 c 0,35,36
 601 140 601 140 643 166 c 128,-1,37
 685 192 685 192 723.5 233 c 128,-1,38
 762 274 762 274 793 323.5 c 128,-1,39
 824 373 824 373 840 420 c 1,40,-1
 840 700 l 2,41,42
 840 749 840 749 839.5 788.5 c 128,-1,43
 839 828 839 828 837 864 c 128,-1,44
 835 900 835 900 831 937 c 128,-1,45
 827 974 827 974 820 1020 c 1,46,-1
 1025 1020 l 1,47,-1
 1025 450 l 2,48,49
 1025 304 1025 304 1041.5 194.5 c 128,-1,50
 1058 85 1058 85 1090 0 c 1,51,-1
 920 0 l 1,0,1
EndSplineSet
EndChar

StartChar: partialdiff
Encoding: 8706 8706 152
Width: 1110
Flags: W
LayerCount: 2
Fore
SplineSet
825 630 m 1,0,1
 808 648 808 648 778.5 668.5 c 128,-1,2
 749 689 749 689 712 706 c 128,-1,3
 675 723 675 723 633.5 734 c 128,-1,4
 592 745 592 745 550 745 c 0,5,6
 481 745 481 745 426 716.5 c 128,-1,7
 371 688 371 688 333 640 c 128,-1,8
 295 592 295 592 275 529.5 c 128,-1,9
 255 467 255 467 255 400 c 0,10,11
 255 358 255 358 269 310.5 c 128,-1,12
 283 263 283 263 310 223 c 128,-1,13
 337 183 337 183 377 156.5 c 128,-1,14
 417 130 417 130 470 130 c 0,15,16
 542 130 542 130 601 167 c 128,-1,17
 660 204 660 204 705 270.5 c 128,-1,18
 750 337 750 337 780 429 c 128,-1,19
 810 521 810 521 825 630 c 1,0,1
1025 840 m 0,20,21
 1025 737 1025 737 1010 633 c 128,-1,22
 995 529 995 529 965 433 c 128,-1,23
 935 337 935 337 890 253.5 c 128,-1,24
 845 170 845 170 784.5 108 c 128,-1,25
 724 46 724 46 648 10.5 c 128,-1,26
 572 -25 572 -25 480 -25 c 0,27,28
 386 -25 386 -25 312.5 12.5 c 128,-1,29
 239 50 239 50 188.5 112 c 128,-1,30
 138 174 138 174 111.5 255.5 c 128,-1,31
 85 337 85 337 85 425 c 0,32,33
 85 505 85 505 105 571 c 128,-1,34
 125 637 125 637 159 688.5 c 128,-1,35
 193 740 193 740 236.5 778 c 128,-1,36
 280 816 280 816 326.5 841 c 128,-1,37
 373 866 373 866 419.5 878 c 128,-1,38
 466 890 466 890 505 890 c 0,39,40
 599 890 599 890 683 864.5 c 128,-1,41
 767 839 767 839 845 770 c 1,42,43
 848 799 848 799 849 827.5 c 128,-1,44
 850 856 850 856 850 885 c 0,45,46
 850 963 850 963 830.5 1038 c 128,-1,47
 811 1113 811 1113 769.5 1171 c 128,-1,48
 728 1229 728 1229 662.5 1264.5 c 128,-1,49
 597 1300 597 1300 505 1300 c 0,50,51
 475 1300 475 1300 448 1296 c 128,-1,52
 421 1292 421 1292 394 1283.5 c 128,-1,53
 367 1275 367 1275 338 1262 c 128,-1,54
 309 1249 309 1249 275 1230 c 1,55,-1
 230 1380 l 1,56,57
 253 1394 253 1394 283 1407.5 c 128,-1,58
 313 1421 313 1421 348 1431.5 c 128,-1,59
 383 1442 383 1442 421.5 1448.5 c 128,-1,60
 460 1455 460 1455 500 1455 c 0,61,62
 607 1455 607 1455 687.5 1428.5 c 128,-1,63
 768 1402 768 1402 826.5 1357 c 128,-1,64
 885 1312 885 1312 923 1251.5 c 128,-1,65
 961 1191 961 1191 984 1122.5 c 128,-1,66
 1007 1054 1007 1054 1016 981.5 c 128,-1,67
 1025 909 1025 909 1025 840 c 0,20,21
EndSplineSet
EndChar

StartChar: product
Encoding: 8719 8719 154
Width: 1565
Flags: W
LayerCount: 2
Fore
SplineSet
1535 1460 m 1,0,-1
 1535 1275 l 1,1,2
 1474 1286 1474 1286 1410.5 1290.5 c 128,-1,3
 1347 1295 1347 1295 1270 1295 c 1,4,-1
 1270 430 l 2,5,6
 1270 281 1270 281 1272 170.5 c 128,-1,7
 1274 60 1274 60 1285 0 c 1,8,-1
 1080 0 l 1,9,-1
 1080 1295 l 1,10,-1
 470 1295 l 1,11,-1
 470 0 l 1,12,-1
 265 0 l 1,13,14
 276 60 276 60 278 170.5 c 128,-1,15
 280 281 280 281 280 430 c 2,16,-1
 280 1295 l 1,17,18
 204 1295 204 1295 142 1290 c 128,-1,19
 80 1285 80 1285 20 1275 c 1,20,-1
 20 1460 l 1,21,-1
 1535 1460 l 1,0,-1
EndSplineSet
EndChar

StartChar: pi
Encoding: 960 960 155
Width: 1317
GlyphClass: 2
Flags: W
AnchorPoint: "Anchor-4" 1317 1000 basechar 0
AnchorPoint: "Anchor-3" 650 -100 basechar 0
AnchorPoint: "Anchor-2" 650 -100 basechar 0
AnchorPoint: "Anchor-1" 650 -100 basechar 0
AnchorPoint: "Anchor-0" 650 1100 basechar 0
LayerCount: 2
Fore
SplineSet
1035 875 m 1,0,-1
 1035 400 l 2,1,2
 1035 327 1035 327 1037.5 271.5 c 128,-1,3
 1040 216 1040 216 1046.5 169.5 c 128,-1,4
 1053 123 1053 123 1063.5 82.5 c 128,-1,5
 1074 42 1074 42 1090 0 c 1,6,-1
 895 0 l 1,7,8
 876 46 876 46 867.5 104 c 128,-1,9
 859 162 859 162 855 237 c 0,10,11
 853 271 853 271 852.5 315 c 128,-1,12
 852 359 852 359 851 409 c 128,-1,13
 850 459 850 459 850 514 c 2,14,-1
 850 875 l 1,15,-1
 450 875 l 1,16,-1
 450 0 l 1,17,-1
 265 0 l 1,18,-1
 265 875 l 1,19,-1
 60 875 l 1,20,-1
 60 1020 l 1,21,-1
 1240 1020 l 1,22,-1
 1240 875 l 1,23,-1
 1035 875 l 1,0,-1
EndSplineSet
EndChar

StartChar: integral
Encoding: 8747 8747 156
Width: 985
Flags: W
LayerCount: 2
Fore
SplineSet
615 1280 m 0,0,1
 607 1244 607 1244 600 1171 c 128,-1,2
 593 1098 593 1098 587 1002 c 128,-1,3
 581 906 581 906 576 793 c 128,-1,4
 571 680 571 680 566 563 c 128,-1,5
 561 446 561 446 556 332.5 c 128,-1,6
 551 219 551 219 544.5 122 c 128,-1,7
 538 25 538 25 531 -49 c 128,-1,8
 524 -123 524 -123 515 -160 c 0,9,10
 494 -249 494 -249 458 -308.5 c 128,-1,11
 422 -368 422 -368 379.5 -404 c 128,-1,12
 337 -440 337 -440 290 -455 c 128,-1,13
 243 -470 243 -470 200 -470 c 0,14,15
 142 -470 142 -470 99.5 -452 c 128,-1,16
 57 -434 57 -434 25 -405 c 1,17,-1
 105 -255 l 1,18,19
 121 -278 121 -278 149.5 -289 c 128,-1,20
 178 -300 178 -300 210 -300 c 0,21,22
 229 -300 229 -300 248 -293 c 128,-1,23
 267 -286 267 -286 285.5 -266 c 128,-1,24
 304 -246 304 -246 320.5 -208.5 c 128,-1,25
 337 -171 337 -171 350 -110 c 0,26,27
 357 -76 357 -76 363 -5 c 128,-1,28
 369 66 369 66 374 160.5 c 128,-1,29
 379 255 379 255 383 366 c 128,-1,30
 387 477 387 477 391.5 591.5 c 128,-1,31
 396 706 396 706 400.5 818 c 128,-1,32
 405 930 405 930 411 1025.5 c 128,-1,33
 417 1121 417 1121 424 1194 c 128,-1,34
 431 1267 431 1267 440 1305 c 0,35,36
 458 1378 458 1378 490 1436.5 c 128,-1,37
 522 1495 522 1495 563 1535.5 c 128,-1,38
 604 1576 604 1576 653 1598 c 128,-1,39
 702 1620 702 1620 755 1620 c 0,40,41
 815 1620 815 1620 868 1601.5 c 128,-1,42
 921 1583 921 1583 960 1545 c 1,43,-1
 860 1390 l 1,44,45
 847 1411 847 1411 816.5 1428 c 128,-1,46
 786 1445 786 1445 755 1445 c 256,47,48
 724 1445 724 1445 701 1430 c 128,-1,49
 678 1415 678 1415 661 1391 c 128,-1,50
 644 1367 644 1367 633 1337.5 c 128,-1,51
 622 1308 622 1308 615 1280 c 0,0,1
EndSplineSet
EndChar

StartChar: ordfeminine
Encoding: 170 170 157
Width: 697
Flags: W
LayerCount: 2
Fore
SplineSet
45 740 m 1,0,-1
 677 740 l 1,1,-1
 677 640 l 1,2,-1
 45 640 l 1,3,-1
 45 740 l 1,0,-1
360 1375 m 0,4,5
 322 1375 322 1375 282 1354.5 c 128,-1,6
 242 1334 242 1334 210 1280 c 0,7,8
 193 1252 193 1252 184 1210.5 c 128,-1,9
 175 1169 175 1169 175 1125 c 0,10,11
 175 1075 175 1075 184.5 1040 c 128,-1,12
 194 1005 194 1005 210 982.5 c 128,-1,13
 226 960 226 960 245.5 950 c 128,-1,14
 265 940 265 940 285 940 c 0,15,16
 310 940 310 940 339.5 955.5 c 128,-1,17
 369 971 369 971 397 996.5 c 128,-1,18
 425 1022 425 1022 449.5 1055.5 c 128,-1,19
 474 1089 474 1089 490 1125 c 1,20,-1
 490 1350 l 1,21,22
 472 1358 472 1358 437 1366.5 c 128,-1,23
 402 1375 402 1375 360 1375 c 0,4,5
600 1170 m 2,24,25
 600 1056 600 1056 612.5 978.5 c 128,-1,26
 625 901 625 901 645 850 c 1,27,-1
 540 850 l 1,28,29
 537 857 537 857 532.5 871.5 c 128,-1,30
 528 886 528 886 523 904.5 c 128,-1,31
 518 923 518 923 513 943.5 c 128,-1,32
 508 964 508 964 505 985 c 1,33,34
 482 955 482 955 455.5 928 c 128,-1,35
 429 901 429 901 399.5 880.5 c 128,-1,36
 370 860 370 860 339 847.5 c 128,-1,37
 308 835 308 835 275 835 c 0,38,39
 237 835 237 835 199.5 851 c 128,-1,40
 162 867 162 867 132 899 c 128,-1,41
 102 931 102 931 83.5 980 c 128,-1,42
 65 1029 65 1029 65 1095 c 0,43,44
 65 1164 65 1164 79.5 1220 c 128,-1,45
 94 1276 94 1276 120 1320 c 0,46,47
 167 1398 167 1398 230 1436.5 c 128,-1,48
 293 1475 293 1475 385 1475 c 0,49,50
 408 1475 408 1475 435 1471.5 c 128,-1,51
 462 1468 462 1468 490.5 1462 c 128,-1,52
 519 1456 519 1456 547.5 1448 c 128,-1,53
 576 1440 576 1440 600 1430 c 1,54,-1
 600 1170 l 2,24,25
EndSplineSet
EndChar

StartChar: ordmasculine
Encoding: 186 186 158
Width: 680
Flags: W
LayerCount: 2
Fore
SplineSet
165 1155 m 256,0,1
 165 1102 165 1102 178 1060.5 c 128,-1,2
 191 1019 191 1019 214 990 c 128,-1,3
 237 961 237 961 269 945.5 c 128,-1,4
 301 930 301 930 340 930 c 0,5,6
 376 930 376 930 408 945.5 c 128,-1,7
 440 961 440 961 464 990 c 128,-1,8
 488 1019 488 1019 501.5 1060.5 c 128,-1,9
 515 1102 515 1102 515 1155 c 256,10,11
 515 1208 515 1208 502 1249.5 c 128,-1,12
 489 1291 489 1291 466 1320 c 128,-1,13
 443 1349 443 1349 411 1364.5 c 128,-1,14
 379 1380 379 1380 340 1380 c 0,15,16
 304 1380 304 1380 272 1364.5 c 128,-1,17
 240 1349 240 1349 216 1320 c 128,-1,18
 192 1291 192 1291 178.5 1249.5 c 128,-1,19
 165 1208 165 1208 165 1155 c 256,0,1
55 1155 m 0,20,21
 55 1233 55 1233 78 1292.5 c 128,-1,22
 101 1352 101 1352 140.5 1392.5 c 128,-1,23
 180 1433 180 1433 233 1454 c 128,-1,24
 286 1475 286 1475 345 1475 c 0,25,26
 407 1475 407 1475 458.5 1454 c 128,-1,27
 510 1433 510 1433 547 1392.5 c 128,-1,28
 584 1352 584 1352 604.5 1292.5 c 128,-1,29
 625 1233 625 1233 625 1155 c 0,30,31
 625 1078 625 1078 602 1018 c 128,-1,32
 579 958 579 958 539.5 917.5 c 128,-1,33
 500 877 500 877 447 856 c 128,-1,34
 394 835 394 835 335 835 c 0,35,36
 273 835 273 835 222 856 c 128,-1,37
 171 877 171 877 133.5 917.5 c 128,-1,38
 96 958 96 958 75.5 1018 c 128,-1,39
 55 1078 55 1078 55 1155 c 0,20,21
45 740 m 1,40,-1
 635 740 l 1,41,-1
 635 640 l 1,42,-1
 45 640 l 1,43,-1
 45 740 l 1,40,-1
EndSplineSet
EndChar

StartChar: Omega
Encoding: 8486 8486 159
Width: 1588
Flags: W
LayerCount: 2
Fore
SplineSet
983 165 m 1,0,1
 1030 210 1030 210 1083 272 c 128,-1,2
 1136 334 1136 334 1181 410.5 c 128,-1,3
 1226 487 1226 487 1255.5 578.5 c 128,-1,4
 1285 670 1285 670 1285 775 c 0,5,6
 1285 907 1285 907 1248 1007.5 c 128,-1,7
 1211 1108 1211 1108 1145 1175 c 128,-1,8
 1079 1242 1079 1242 989.5 1276 c 128,-1,9
 900 1310 900 1310 795 1310 c 0,10,11
 696 1310 696 1310 610.5 1274 c 128,-1,12
 525 1238 525 1238 463 1171.5 c 128,-1,13
 401 1105 401 1105 365.5 1010.5 c 128,-1,14
 330 916 330 916 330 800 c 0,15,16
 330 693 330 693 354.5 601.5 c 128,-1,17
 379 510 379 510 418 431.5 c 128,-1,18
 457 353 457 353 506 287 c 128,-1,19
 555 221 555 221 605 165 c 1,20,-1
 605 0 l 1,21,-1
 70 0 l 1,22,-1
 70 180 l 1,23,24
 91 176 91 176 128.5 173.5 c 128,-1,25
 166 171 166 171 213.5 169 c 128,-1,26
 261 167 261 167 316 166 c 128,-1,27
 371 165 371 165 428 165 c 1,28,29
 377 213 377 213 324.5 275 c 128,-1,30
 272 337 272 337 230 413 c 128,-1,31
 188 489 188 489 161.5 579.5 c 128,-1,32
 135 670 135 670 135 775 c 0,33,34
 135 946 135 946 190.5 1078 c 128,-1,35
 246 1210 246 1210 339 1300.5 c 128,-1,36
 432 1391 432 1391 553 1438 c 128,-1,37
 674 1485 674 1485 805 1485 c 0,38,39
 937 1485 937 1485 1059 1441 c 128,-1,40
 1181 1397 1181 1397 1274.5 1311.5 c 128,-1,41
 1368 1226 1368 1226 1424 1100 c 128,-1,42
 1480 974 1480 974 1480 810 c 0,43,44
 1480 691 1480 691 1450 593.5 c 128,-1,45
 1420 496 1420 496 1372 417 c 128,-1,46
 1324 338 1324 338 1265.5 276 c 128,-1,47
 1207 214 1207 214 1150 165 c 1,48,49
 1208 165 1208 165 1265 166 c 128,-1,50
 1322 167 1322 167 1370.5 169 c 128,-1,51
 1419 171 1419 171 1457.5 173.5 c 128,-1,52
 1496 176 1496 176 1518 180 c 1,53,-1
 1518 0 l 1,54,-1
 983 0 l 1,55,-1
 983 165 l 1,0,1
EndSplineSet
EndChar

StartChar: ae
Encoding: 230 230 160
Width: 1745
GlyphClass: 2
Flags: W
AnchorPoint: "Anchor-4" 1745 1000 basechar 0
AnchorPoint: "Anchor-3" 1060 0 basechar 0
AnchorPoint: "Anchor-2" 865 0 basechar 0
AnchorPoint: "Anchor-1" 865 -100 basechar 0
AnchorPoint: "Anchor-0" 865 1100 basechar 0
LayerCount: 2
Fore
SplineSet
1230 890 m 0,0,1
 1120 890 1120 890 1042.5 825.5 c 128,-1,2
 965 761 965 761 940 625 c 1,3,-1
 1460 625 l 1,4,5
 1460 689 1460 689 1441.5 738.5 c 128,-1,6
 1423 788 1423 788 1391.5 822 c 128,-1,7
 1360 856 1360 856 1318.5 873 c 128,-1,8
 1277 890 1277 890 1230 890 c 0,0,1
755 485 m 1,9,10
 736 484 736 484 702 483 c 128,-1,11
 668 482 668 482 630 480.5 c 128,-1,12
 592 479 592 479 555.5 476.5 c 128,-1,13
 519 474 519 474 495 470 c 0,14,15
 432 459 432 459 391 440.5 c 128,-1,16
 350 422 350 422 325 398 c 128,-1,17
 300 374 300 374 290 344 c 128,-1,18
 280 314 280 314 280 280 c 0,19,20
 280 250 280 250 292.5 224.5 c 128,-1,21
 305 199 305 199 327.5 180.5 c 128,-1,22
 350 162 350 162 381 151 c 128,-1,23
 412 140 412 140 450 140 c 256,24,25
 488 140 488 140 525 146.5 c 128,-1,26
 562 153 562 153 599 172.5 c 128,-1,27
 636 192 636 192 674.5 228.5 c 128,-1,28
 713 265 713 265 755 325 c 0,29,30
 760 331 760 331 764 336.5 c 128,-1,31
 768 342 768 342 770 350 c 1,32,33
 763 381 763 381 759 415 c 128,-1,34
 755 449 755 449 755 485 c 1,9,10
1245 1040 m 0,35,36
 1322 1040 1322 1040 1381.5 1020.5 c 128,-1,37
 1441 1001 1441 1001 1485 967 c 128,-1,38
 1529 933 1529 933 1558.5 887 c 128,-1,39
 1588 841 1588 841 1606.5 788 c 128,-1,40
 1625 735 1625 735 1632.5 678 c 128,-1,41
 1640 621 1640 621 1640 565 c 2,42,-1
 1640 485 l 1,43,-1
 930 485 l 1,44,45
 933 397 933 397 959.5 332 c 128,-1,46
 986 267 986 267 1030 224.5 c 128,-1,47
 1074 182 1074 182 1133 161 c 128,-1,48
 1192 140 1192 140 1260 140 c 0,49,50
 1308 140 1308 140 1354 145 c 128,-1,51
 1400 150 1400 150 1445 162 c 128,-1,52
 1490 174 1490 174 1534.5 193 c 128,-1,53
 1579 212 1579 212 1625 240 c 1,54,-1
 1645 75 l 1,55,56
 1592 48 1592 48 1543 29 c 128,-1,57
 1494 10 1494 10 1444.5 -2 c 128,-1,58
 1395 -14 1395 -14 1344 -19.5 c 128,-1,59
 1293 -25 1293 -25 1235 -25 c 0,60,61
 1173 -25 1173 -25 1114.5 -11 c 128,-1,62
 1056 3 1056 3 1003.5 30.5 c 128,-1,63
 951 58 951 58 907 99.5 c 128,-1,64
 863 141 863 141 830 196 c 1,65,66
 819 183 819 183 807.5 170.5 c 128,-1,67
 796 158 796 158 785 145 c 0,68,69
 741 98 741 98 695.5 65.5 c 128,-1,70
 650 33 650 33 604.5 13 c 128,-1,71
 559 -7 559 -7 512.5 -16 c 128,-1,72
 466 -25 466 -25 420 -25 c 0,73,74
 349 -25 349 -25 289.5 -2 c 128,-1,75
 230 21 230 21 187 59.5 c 128,-1,76
 144 98 144 98 119.5 148.5 c 128,-1,77
 95 199 95 199 95 255 c 0,78,79
 95 312 95 312 114 369 c 128,-1,80
 133 426 133 426 178 474.5 c 128,-1,81
 223 523 223 523 298 559 c 128,-1,82
 373 595 373 595 485 610 c 0,83,84
 511 613 511 613 550.5 615.5 c 128,-1,85
 590 618 590 618 630.5 619.5 c 128,-1,86
 671 621 671 621 705.5 622.5 c 128,-1,87
 740 624 740 624 755 625 c 1,88,-1
 755 710 l 2,89,90
 755 755 755 755 735.5 787.5 c 128,-1,91
 716 820 716 820 681.5 840.5 c 128,-1,92
 647 861 647 861 599 870.5 c 128,-1,93
 551 880 551 880 495 880 c 0,94,95
 455 880 455 880 420.5 872 c 128,-1,96
 386 864 386 864 351.5 848 c 128,-1,97
 317 832 317 832 280.5 809 c 128,-1,98
 244 786 244 786 200 755 c 1,99,100
 200 771 200 771 201 797.5 c 128,-1,101
 202 824 202 824 203 852.5 c 128,-1,102
 204 881 204 881 206 907.5 c 128,-1,103
 208 934 208 934 210 950 c 1,104,105
 249 966 249 966 284 982.5 c 128,-1,106
 319 999 319 999 357 1011.5 c 128,-1,107
 395 1024 395 1024 439 1032 c 128,-1,108
 483 1040 483 1040 540 1040 c 0,109,110
 591 1040 591 1040 640.5 1029 c 128,-1,111
 690 1018 690 1018 734.5 996.5 c 128,-1,112
 779 975 779 975 816.5 942 c 128,-1,113
 854 909 854 909 880 865 c 1,114,115
 948 948 948 948 1042 994 c 128,-1,116
 1136 1040 1136 1040 1245 1040 c 0,35,36
EndSplineSet
EndChar

StartChar: oslash
Encoding: 248 248 161
Width: 1140
GlyphClass: 2
Flags: W
AnchorPoint: "Anchor-4" 1140 1000 basechar 0
AnchorPoint: "Anchor-3" 620 0 basechar 0
AnchorPoint: "Anchor-2" 570 0 basechar 0
AnchorPoint: "Anchor-1" 570 -100 basechar 0
AnchorPoint: "Anchor-0" 570 1100 basechar 0
LayerCount: 2
Fore
SplineSet
280 507 m 0,0,1
 280 429 280 429 296.5 366.5 c 128,-1,2
 313 304 313 304 344 256 c 1,3,-1
 670 862 l 1,4,5
 623 880 623 880 570 880 c 0,6,7
 509 880 509 880 456 854.5 c 128,-1,8
 403 829 403 829 364 781 c 128,-1,9
 325 733 325 733 302.5 664 c 128,-1,10
 280 595 280 595 280 507 c 0,0,1
860 507 m 0,11,12
 860 597 860 597 838 667 c 128,-1,13
 816 737 816 737 776 785 c 1,14,-1
 442 165 l 1,15,16
 497 135 497 135 570 135 c 0,17,18
 630 135 630 135 683 160.5 c 128,-1,19
 736 186 736 186 775.5 234 c 128,-1,20
 815 282 815 282 837.5 351 c 128,-1,21
 860 420 860 420 860 507 c 0,11,12
948 1105 m 1,22,-1
 864 950 l 1,23,24
 949 884 949 884 997 773 c 128,-1,25
 1045 662 1045 662 1045 507 c 0,26,27
 1045 378 1045 378 1006 278.5 c 128,-1,28
 967 179 967 179 901 111.5 c 128,-1,29
 835 44 835 44 747 9.5 c 128,-1,30
 659 -25 659 -25 560 -25 c 0,31,32
 505 -25 505 -25 455.5 -15 c 128,-1,33
 406 -5 406 -5 361 14 c 1,34,-1
 313 -75 l 1,35,-1
 165 -75 l 1,36,-1
 251 85 l 1,37,38
 177 153 177 153 136 258.5 c 128,-1,39
 95 364 95 364 95 507 c 0,40,41
 95 636 95 636 134 735.5 c 128,-1,42
 173 835 173 835 239 902.5 c 128,-1,43
 305 970 305 970 393 1005 c 128,-1,44
 481 1040 481 1040 580 1040 c 0,45,46
 672 1040 672 1040 751 1011 c 1,47,-1
 802 1105 l 1,48,-1
 948 1105 l 1,22,-1
EndSplineSet
EndChar

StartChar: questiondown
Encoding: 191 191 162
Width: 1050
Flags: W
LayerCount: 2
Fore
SplineSet
662 979 m 256,0,1
 662 951 662 951 651.5 926.5 c 128,-1,2
 641 902 641 902 623 884 c 128,-1,3
 605 866 605 866 580.5 855.5 c 128,-1,4
 556 845 556 845 528 845 c 256,5,6
 500 845 500 845 475.5 855.5 c 128,-1,7
 451 866 451 866 433 884 c 128,-1,8
 415 902 415 902 404.5 926.5 c 128,-1,9
 394 951 394 951 394 979 c 256,10,11
 394 1007 394 1007 404.5 1031.5 c 128,-1,12
 415 1056 415 1056 433 1074 c 128,-1,13
 451 1092 451 1092 475.5 1102.5 c 128,-1,14
 500 1113 500 1113 528 1113 c 256,15,16
 556 1113 556 1113 580.5 1102.5 c 128,-1,17
 605 1092 605 1092 623 1074 c 128,-1,18
 641 1056 641 1056 651.5 1031.5 c 128,-1,19
 662 1007 662 1007 662 979 c 256,0,1
830 -300 m 1,20,21
 805 -324 805 -324 769.5 -344 c 128,-1,22
 734 -364 734 -364 692 -378.5 c 128,-1,23
 650 -393 650 -393 603.5 -401.5 c 128,-1,24
 557 -410 557 -410 510 -410 c 0,25,26
 430 -410 430 -410 362.5 -391.5 c 128,-1,27
 295 -373 295 -373 245.5 -335.5 c 128,-1,28
 196 -298 196 -298 168 -242 c 128,-1,29
 140 -186 140 -186 140 -110 c 0,30,31
 140 -71 140 -71 148 -38.5 c 128,-1,32
 156 -6 156 -6 174.5 28 c 128,-1,33
 193 62 193 62 223 101 c 128,-1,34
 253 140 253 140 296 190 c 0,35,36
 326 225 326 225 348.5 254.5 c 128,-1,37
 371 284 371 284 386.5 314 c 128,-1,38
 402 344 402 344 411.5 377.5 c 128,-1,39
 421 411 421 411 426 454.5 c 128,-1,40
 431 498 431 498 433 555.5 c 128,-1,41
 435 613 435 613 435 690 c 1,42,-1
 610 690 l 1,43,44
 610 567 610 567 605.5 483 c 128,-1,45
 601 399 601 399 588 339.5 c 128,-1,46
 575 280 575 280 550 236.5 c 128,-1,47
 525 193 525 193 485 150 c 0,48,49
 437 99 437 99 409.5 62 c 128,-1,50
 382 25 382 25 367.5 -3.5 c 128,-1,51
 353 -32 353 -32 349 -55 c 128,-1,52
 345 -78 345 -78 345 -100 c 256,53,54
 345 -122 345 -122 354.5 -146 c 128,-1,55
 364 -170 364 -170 386.5 -189.5 c 128,-1,56
 409 -209 409 -209 446 -222 c 128,-1,57
 483 -235 483 -235 538 -235 c 0,58,59
 598 -235 598 -235 663 -208 c 128,-1,60
 728 -181 728 -181 785 -121 c 1,61,-1
 830 -300 l 1,20,21
EndSplineSet
EndChar

StartChar: exclamdown
Encoding: 161 161 163
Width: 764
Flags: W
LayerCount: 2
Fore
SplineSet
227 978 m 256,0,1
 227 1006 227 1006 237.5 1030.5 c 128,-1,2
 248 1055 248 1055 266 1073 c 128,-1,3
 284 1091 284 1091 308.5 1101.5 c 128,-1,4
 333 1112 333 1112 361 1112 c 256,5,6
 389 1112 389 1112 413.5 1101.5 c 128,-1,7
 438 1091 438 1091 456 1073 c 128,-1,8
 474 1055 474 1055 484.5 1030.5 c 128,-1,9
 495 1006 495 1006 495 978 c 256,10,11
 495 950 495 950 484.5 925.5 c 128,-1,12
 474 901 474 901 456 883 c 128,-1,13
 438 865 438 865 413.5 854.5 c 128,-1,14
 389 844 389 844 361 844 c 256,15,16
 333 844 333 844 308.5 854.5 c 128,-1,17
 284 865 284 865 266 883 c 128,-1,18
 248 901 248 901 237.5 925.5 c 128,-1,19
 227 950 227 950 227 978 c 256,0,1
443 660 m 1,20,21
 445 551 445 551 447 431.5 c 128,-1,22
 449 312 449 312 453 179 c 128,-1,23
 457 46 457 46 465 -100.5 c 128,-1,24
 473 -247 473 -247 488 -410 c 1,25,-1
 233 -410 l 1,26,27
 247 -247 247 -247 255 -100.5 c 128,-1,28
 263 46 263 46 267 179 c 128,-1,29
 271 312 271 312 273 431.5 c 128,-1,30
 275 551 275 551 278 660 c 1,31,-1
 443 660 l 1,20,21
EndSplineSet
EndChar

StartChar: logicalnot
Encoding: 172 172 164
Width: 1200
Flags: W
LayerCount: 2
Fore
SplineSet
915 340 m 1,0,-1
 915 650 l 1,1,-1
 110 650 l 1,2,-1
 110 800 l 1,3,-1
 1065 800 l 1,4,-1
 1065 340 l 1,5,-1
 915 340 l 1,0,-1
EndSplineSet
EndChar

StartChar: radical
Encoding: 8730 8730 165
Width: 1200
Flags: W
LayerCount: 2
Fore
SplineSet
1180 1490 m 1,0,-1
 705 0 l 1,1,-1
 620 0 l 1,2,-1
 170 800 l 1,3,-1
 50 730 l 1,4,-1
 0 825 l 1,5,-1
 245 965 l 1,6,-1
 650 250 l 1,7,-1
 1085 1600 l 1,8,-1
 1325 1600 l 1,9,-1
 1325 1490 l 1,10,-1
 1180 1490 l 1,0,-1
EndSplineSet
EndChar

StartChar: florin
Encoding: 402 402 166
Width: 730
GlyphClass: 2
Flags: W
AnchorPoint: "Anchor-4" 730 1000 basechar 0
AnchorPoint: "Anchor-3" 297 -500 basechar 0
AnchorPoint: "Anchor-2" 297 -500 basechar 0
AnchorPoint: "Anchor-1" 297 -500 basechar 0
AnchorPoint: "Anchor-0" 540 1635 basechar 0
LayerCount: 2
Fore
SplineSet
20 995 m 1,0,-1
 220 995 l 1,1,-1
 220 1170 l 2,2,3
 220 1395 220 1395 311.5 1507.5 c 128,-1,4
 403 1620 403 1620 565 1620 c 0,5,6
 624 1620 624 1620 681 1601.5 c 128,-1,7
 738 1583 738 1583 785 1550 c 1,8,-1
 739 1400 l 1,9,10
 701 1428 701 1428 655 1444 c 128,-1,11
 609 1460 609 1460 565 1460 c 0,12,13
 526 1460 526 1460 496 1446.5 c 128,-1,14
 466 1433 466 1433 446 1403 c 128,-1,15
 426 1373 426 1373 415.5 1325.5 c 128,-1,16
 405 1278 405 1278 405 1210 c 2,17,-1
 405 995 l 1,18,-1
 675 995 l 1,19,-1
 675 850 l 1,20,-1
 405 850 l 1,21,-1
 405 494 l 2,22,23
 405 348 405 348 404 227 c 128,-1,24
 403 106 403 106 403 25 c 0,25,26
 403 -115 403 -115 376.5 -210 c 128,-1,27
 350 -305 350 -305 301.5 -362.5 c 128,-1,28
 253 -420 253 -420 183.5 -445 c 128,-1,29
 114 -470 114 -470 29 -470 c 0,30,31
 8 -470 8 -470 -20.5 -465.5 c 128,-1,32
 -49 -461 -49 -461 -79 -453 c 128,-1,33
 -109 -445 -109 -445 -138.5 -432.5 c 128,-1,34
 -168 -420 -168 -420 -190 -405 c 1,35,-1
 -155 -240 l 1,36,37
 -139 -252 -139 -252 -114.5 -263 c 128,-1,38
 -90 -274 -90 -274 -63 -282.5 c 128,-1,39
 -36 -291 -36 -291 -9.5 -295.5 c 128,-1,40
 17 -300 17 -300 38 -300 c 0,41,42
 78 -300 78 -300 111.5 -284.5 c 128,-1,43
 145 -269 145 -269 169 -236 c 128,-1,44
 193 -203 193 -203 206.5 -151 c 128,-1,45
 220 -99 220 -99 220 -25 c 2,46,-1
 220 850 l 1,47,-1
 20 850 l 1,48,-1
 20 995 l 1,0,-1
EndSplineSet
EndChar

StartChar: approxequal
Encoding: 8776 8776 167
Width: 1200
Flags: W
LayerCount: 2
Fore
SplineSet
1090 900 m 1,0,1
 1066 870 1066 870 1033 846 c 128,-1,2
 1000 822 1000 822 963.5 805 c 128,-1,3
 927 788 927 788 887.5 779 c 128,-1,4
 848 770 848 770 810 770 c 0,5,6
 775 770 775 770 736.5 779.5 c 128,-1,7
 698 789 698 789 658 803.5 c 128,-1,8
 618 818 618 818 578 835 c 128,-1,9
 538 852 538 852 501 866.5 c 128,-1,10
 464 881 464 881 430.5 890.5 c 128,-1,11
 397 900 397 900 370 900 c 0,12,13
 307 900 307 900 240 862.5 c 128,-1,14
 173 825 173 825 110 750 c 1,15,-1
 110 915 l 1,16,17
 131 944 131 944 163.5 968 c 128,-1,18
 196 992 196 992 233.5 1009 c 128,-1,19
 271 1026 271 1026 311.5 1035.5 c 128,-1,20
 352 1045 352 1045 390 1045 c 0,21,22
 425 1045 425 1045 463.5 1035.5 c 128,-1,23
 502 1026 502 1026 542 1011.5 c 128,-1,24
 582 997 582 997 622 980 c 128,-1,25
 662 963 662 963 699 948.5 c 128,-1,26
 736 934 736 934 769.5 924.5 c 128,-1,27
 803 915 803 915 830 915 c 0,28,29
 893 915 893 915 960 952.5 c 128,-1,30
 1027 990 1027 990 1090 1065 c 1,31,-1
 1090 900 l 1,0,1
1090 530 m 1,32,33
 1066 500 1066 500 1033 476 c 128,-1,34
 1000 452 1000 452 963.5 435 c 128,-1,35
 927 418 927 418 887.5 409 c 128,-1,36
 848 400 848 400 810 400 c 0,37,38
 775 400 775 400 736.5 409.5 c 128,-1,39
 698 419 698 419 658 433.5 c 128,-1,40
 618 448 618 448 578 465 c 128,-1,41
 538 482 538 482 501 496.5 c 128,-1,42
 464 511 464 511 430.5 520.5 c 128,-1,43
 397 530 397 530 370 530 c 0,44,45
 307 530 307 530 240 492.5 c 128,-1,46
 173 455 173 455 110 380 c 1,47,-1
 110 545 l 1,48,49
 131 574 131 574 163.5 598 c 128,-1,50
 196 622 196 622 233.5 639 c 128,-1,51
 271 656 271 656 311.5 665.5 c 128,-1,52
 352 675 352 675 390 675 c 0,53,54
 425 675 425 675 463.5 665.5 c 128,-1,55
 502 656 502 656 542 641.5 c 128,-1,56
 582 627 582 627 622 610 c 128,-1,57
 662 593 662 593 699 578.5 c 128,-1,58
 736 564 736 564 769.5 554.5 c 128,-1,59
 803 545 803 545 830 545 c 0,60,61
 893 545 893 545 960 582.5 c 128,-1,62
 1027 620 1027 620 1090 695 c 1,63,-1
 1090 530 l 1,32,33
EndSplineSet
EndChar

StartChar: Delta
Encoding: 8710 8710 168
Width: 1288
Flags: W
LayerCount: 2
Fore
SplineSet
655 1095 m 1,0,-1
 220 150 l 1,1,-1
 1035 150 l 1,2,-1
 655 1095 l 1,0,-1
0 0 m 1,3,-1
 685 1485 l 1,4,-1
 1290 0 l 1,5,-1
 0 0 l 1,3,-1
EndSplineSet
EndChar

StartChar: guillemotleft
Encoding: 171 171 169
Width: 1300
Flags: W
LayerCount: 2
Fore
SplineSet
1003 0 m 1,0,-1
 565 512 l 1,1,-1
 1000 1020 l 1,2,-1
 1185 1020 l 1,3,-1
 795 512 l 1,4,-1
 1185 0 l 1,5,-1
 1003 0 l 1,0,-1
513 0 m 1,6,-1
 75 512 l 1,7,-1
 510 1020 l 1,8,-1
 695 1020 l 1,9,-1
 305 512 l 1,10,-1
 695 0 l 1,11,-1
 513 0 l 1,6,-1
EndSplineSet
EndChar

StartChar: guillemotright
Encoding: 187 187 170
Width: 1300
Flags: W
LayerCount: 2
Fore
SplineSet
115 0 m 1,0,-1
 505 512 l 1,1,-1
 115 1020 l 1,2,-1
 300 1020 l 1,3,-1
 735 512 l 1,4,-1
 297 0 l 1,5,-1
 115 0 l 1,0,-1
605 0 m 1,6,-1
 995 512 l 1,7,-1
 605 1020 l 1,8,-1
 790 1020 l 1,9,-1
 1225 512 l 1,10,-1
 787 0 l 1,11,-1
 605 0 l 1,6,-1
EndSplineSet
EndChar

StartChar: ellipsis
Encoding: 8230 8230 171
Width: 1724
Flags: W
LayerCount: 2
Fore
SplineSet
1271 109 m 256,0,1
 1271 137 1271 137 1281.5 161.5 c 128,-1,2
 1292 186 1292 186 1310 204 c 128,-1,3
 1328 222 1328 222 1352.5 232.5 c 128,-1,4
 1377 243 1377 243 1405 243 c 256,5,6
 1433 243 1433 243 1457.5 232.5 c 128,-1,7
 1482 222 1482 222 1500 204 c 128,-1,8
 1518 186 1518 186 1528.5 161.5 c 128,-1,9
 1539 137 1539 137 1539 109 c 256,10,11
 1539 81 1539 81 1528.5 56.5 c 128,-1,12
 1518 32 1518 32 1500 14 c 128,-1,13
 1482 -4 1482 -4 1457.5 -14.5 c 128,-1,14
 1433 -25 1433 -25 1405 -25 c 256,15,16
 1377 -25 1377 -25 1352.5 -14.5 c 128,-1,17
 1328 -4 1328 -4 1310 14 c 128,-1,18
 1292 32 1292 32 1281.5 56.5 c 128,-1,19
 1271 81 1271 81 1271 109 c 256,0,1
728 109 m 256,20,21
 728 137 728 137 738.5 161.5 c 128,-1,22
 749 186 749 186 767 204 c 128,-1,23
 785 222 785 222 809.5 232.5 c 128,-1,24
 834 243 834 243 862 243 c 256,25,26
 890 243 890 243 914.5 232.5 c 128,-1,27
 939 222 939 222 957 204 c 128,-1,28
 975 186 975 186 985.5 161.5 c 128,-1,29
 996 137 996 137 996 109 c 256,30,31
 996 81 996 81 985.5 56.5 c 128,-1,32
 975 32 975 32 957 14 c 128,-1,33
 939 -4 939 -4 914.5 -14.5 c 128,-1,34
 890 -25 890 -25 862 -25 c 256,35,36
 834 -25 834 -25 809.5 -14.5 c 128,-1,37
 785 -4 785 -4 767 14 c 128,-1,38
 749 32 749 32 738.5 56.5 c 128,-1,39
 728 81 728 81 728 109 c 256,20,21
185 109 m 256,40,41
 185 137 185 137 195.5 161.5 c 128,-1,42
 206 186 206 186 224 204 c 128,-1,43
 242 222 242 222 266.5 232.5 c 128,-1,44
 291 243 291 243 319 243 c 256,45,46
 347 243 347 243 371.5 232.5 c 128,-1,47
 396 222 396 222 414 204 c 128,-1,48
 432 186 432 186 442.5 161.5 c 128,-1,49
 453 137 453 137 453 109 c 256,50,51
 453 81 453 81 442.5 56.5 c 128,-1,52
 432 32 432 32 414 14 c 128,-1,53
 396 -4 396 -4 371.5 -14.5 c 128,-1,54
 347 -25 347 -25 319 -25 c 256,55,56
 291 -25 291 -25 266.5 -14.5 c 128,-1,57
 242 -4 242 -4 224 14 c 128,-1,58
 206 32 206 32 195.5 56.5 c 128,-1,59
 185 81 185 81 185 109 c 256,40,41
EndSplineSet
EndChar

StartChar: OE
Encoding: 338 338 176
Width: 1950
GlyphClass: 2
Flags: W
AnchorPoint: "Anchor-4" 1950 1000 basechar 0
AnchorPoint: "Anchor-3" 962 -100 basechar 0
AnchorPoint: "Anchor-2" 962 -100 basechar 0
AnchorPoint: "Anchor-1" 962 -100 basechar 0
AnchorPoint: "Anchor-0" 962 1530 basechar 0
LayerCount: 2
Fore
SplineSet
1075 715 m 0,0,1
 1075 853 1075 853 1049 963.5 c 128,-1,2
 1023 1074 1023 1074 972.5 1151 c 128,-1,3
 922 1228 922 1228 848.5 1269 c 128,-1,4
 775 1310 775 1310 680 1310 c 0,5,6
 593 1310 593 1310 521 1270.5 c 128,-1,7
 449 1231 449 1231 397.5 1157.5 c 128,-1,8
 346 1084 346 1084 318 979.5 c 128,-1,9
 290 875 290 875 290 745 c 0,10,11
 290 608 290 608 317 498 c 128,-1,12
 344 388 344 388 395 310.5 c 128,-1,13
 446 233 446 233 518 191.5 c 128,-1,14
 590 150 590 150 680 150 c 0,15,16
 772 150 772 150 845 188.5 c 128,-1,17
 918 227 918 227 969 299.5 c 128,-1,18
 1020 372 1020 372 1047.5 477 c 128,-1,19
 1075 582 1075 582 1075 715 c 0,0,1
1063 165 m 1,20,21
 1024 122 1024 122 978.5 87 c 128,-1,22
 933 52 933 52 883 27 c 128,-1,23
 833 2 833 2 779.5 -11.5 c 128,-1,24
 726 -25 726 -25 670 -25 c 0,25,26
 553 -25 553 -25 448.5 24 c 128,-1,27
 344 73 344 73 265.5 168 c 128,-1,28
 187 263 187 263 141 401.5 c 128,-1,29
 95 540 95 540 95 720 c 256,30,31
 95 900 95 900 144 1042 c 128,-1,32
 193 1184 193 1184 275 1282.5 c 128,-1,33
 357 1381 357 1381 465 1433 c 128,-1,34
 573 1485 573 1485 690 1485 c 0,35,36
 751 1485 751 1485 804.5 1471 c 128,-1,37
 858 1457 858 1457 904.5 1432 c 128,-1,38
 951 1407 951 1407 990.5 1372.5 c 128,-1,39
 1030 1338 1030 1338 1063 1296 c 1,40,41
 1062 1316 1062 1316 1061 1340 c 128,-1,42
 1060 1364 1060 1364 1058 1386.5 c 128,-1,43
 1056 1409 1056 1409 1054 1428.5 c 128,-1,44
 1052 1448 1052 1448 1050 1460 c 1,45,-1
 1800 1460 l 1,46,-1
 1800 1295 l 1,47,-1
 1255 1295 l 1,48,-1
 1255 845 l 1,49,-1
 1725 845 l 1,50,-1
 1725 685 l 1,51,-1
 1255 685 l 1,52,-1
 1255 165 l 1,53,-1
 1419 165 l 2,54,55
 1568 165 1568 165 1669 167 c 128,-1,56
 1770 169 1770 169 1830 180 c 1,57,-1
 1830 0 l 1,58,-1
 1050 0 l 1,59,60
 1055 27 1055 27 1058 72 c 128,-1,61
 1061 117 1061 117 1063 165 c 1,20,21
EndSplineSet
EndChar

StartChar: oe
Encoding: 339 339 177
Width: 1860
GlyphClass: 2
Flags: W
AnchorPoint: "Anchor-4" 1860 1000 basechar 0
AnchorPoint: "Anchor-3" 989 0 basechar 0
AnchorPoint: "Anchor-2" 955 0 basechar 0
AnchorPoint: "Anchor-1" 955 -100 basechar 0
AnchorPoint: "Anchor-0" 955 1100 basechar 0
LayerCount: 2
Fore
SplineSet
95 507 m 256,0,1
 95 636 95 636 134 735.5 c 128,-1,2
 173 835 173 835 239 902.5 c 128,-1,3
 305 970 305 970 393 1005 c 128,-1,4
 481 1040 481 1040 580 1040 c 0,5,6
 702 1040 702 1040 798.5 991.5 c 128,-1,7
 895 943 895 943 956 849 c 1,8,9
 1019 940 1019 940 1115.5 990 c 128,-1,10
 1212 1040 1212 1040 1340 1040 c 0,11,12
 1422 1040 1422 1040 1485 1020.5 c 128,-1,13
 1548 1001 1548 1001 1594 966.5 c 128,-1,14
 1640 932 1640 932 1671 886 c 128,-1,15
 1702 840 1702 840 1720.5 787 c 128,-1,16
 1739 734 1739 734 1747 676.5 c 128,-1,17
 1755 619 1755 619 1755 563 c 2,18,-1
 1755 524 l 2,19,20
 1755 499 1755 499 1754 485 c 1,21,-1
 1045 485 l 1,22,23
 1048 397 1048 397 1072.5 332 c 128,-1,24
 1097 267 1097 267 1139.5 224.5 c 128,-1,25
 1182 182 1182 182 1239.5 161 c 128,-1,26
 1297 140 1297 140 1365 140 c 0,27,28
 1462 140 1462 140 1555 162 c 128,-1,29
 1648 184 1648 184 1740 240 c 1,30,-1
 1760 75 l 1,31,32
 1707 48 1707 48 1656 29 c 128,-1,33
 1605 10 1605 10 1554 -2 c 128,-1,34
 1503 -14 1503 -14 1450.5 -19.5 c 128,-1,35
 1398 -25 1398 -25 1340 -25 c 0,36,37
 1281 -25 1281 -25 1225.5 -12.5 c 128,-1,38
 1170 0 1170 0 1120 24.5 c 128,-1,39
 1070 49 1070 49 1026.5 86 c 128,-1,40
 983 123 983 123 950 172 c 1,41,42
 883 75 883 75 781 25 c 128,-1,43
 679 -25 679 -25 560 -25 c 0,44,45
 457 -25 457 -25 371.5 9.5 c 128,-1,46
 286 44 286 44 224.5 111.5 c 128,-1,47
 163 179 163 179 129 278.5 c 128,-1,48
 95 378 95 378 95 507 c 256,0,1
280 507 m 0,49,50
 280 420 280 420 301 351 c 128,-1,51
 322 282 322 282 360.5 234 c 128,-1,52
 399 186 399 186 452 160.5 c 128,-1,53
 505 135 505 135 570 135 c 0,54,55
 630 135 630 135 683 160.5 c 128,-1,56
 736 186 736 186 775.5 234 c 128,-1,57
 815 282 815 282 837.5 351 c 128,-1,58
 860 420 860 420 860 507 c 0,59,60
 860 595 860 595 839 664 c 128,-1,61
 818 733 818 733 779.5 781 c 128,-1,62
 741 829 741 829 687.5 854.5 c 128,-1,63
 634 880 634 880 570 880 c 0,64,65
 509 880 509 880 456 854.5 c 128,-1,66
 403 829 403 829 364 781 c 128,-1,67
 325 733 325 733 302.5 664 c 128,-1,68
 280 595 280 595 280 507 c 0,49,50
1325 890 m 0,69,70
 1215 890 1215 890 1145 825.5 c 128,-1,71
 1075 761 1075 761 1053 625 c 1,72,-1
 1575 625 l 1,73,74
 1575 689 1575 689 1556.5 738.5 c 128,-1,75
 1538 788 1538 788 1504.5 822 c 128,-1,76
 1471 856 1471 856 1425 873 c 128,-1,77
 1379 890 1379 890 1325 890 c 0,69,70
EndSplineSet
EndChar

StartChar: endash
Encoding: 8211 8211 178
Width: 1055
Flags: W
LayerCount: 2
Fore
SplineSet
80 705 m 1,0,-1
 975 705 l 1,1,-1
 975 555 l 1,2,-1
 80 555 l 1,3,-1
 80 705 l 1,0,-1
EndSplineSet
EndChar

StartChar: emdash
Encoding: 8212 8212 179
Width: 1735
Flags: W
LayerCount: 2
Fore
SplineSet
80 705 m 1,0,-1
 1655 705 l 1,1,-1
 1655 555 l 1,2,-1
 80 555 l 1,3,-1
 80 705 l 1,0,-1
EndSplineSet
EndChar

StartChar: quotedblleft
Encoding: 8220 8220 180
Width: 1050
Flags: W
LayerCount: 2
Fore
SplineSet
485 1165 m 1,0,1
 480 1141 480 1141 466.5 1122.5 c 128,-1,2
 453 1104 453 1104 434 1091.5 c 128,-1,3
 415 1079 415 1079 393 1072 c 128,-1,4
 371 1065 371 1065 350 1065 c 0,5,6
 320 1065 320 1065 293.5 1076.5 c 128,-1,7
 267 1088 267 1088 247.5 1109.5 c 128,-1,8
 228 1131 228 1131 216.5 1161.5 c 128,-1,9
 205 1192 205 1192 205 1230 c 0,10,11
 205 1322 205 1322 248.5 1412 c 128,-1,12
 292 1502 292 1502 380 1585 c 1,13,-1
 480 1545 l 1,14,15
 458 1523 458 1523 434.5 1491 c 128,-1,16
 411 1459 411 1459 391 1421.5 c 128,-1,17
 371 1384 371 1384 358 1343.5 c 128,-1,18
 345 1303 345 1303 345 1265 c 1,19,-1
 485 1265 l 1,20,-1
 485 1165 l 1,0,1
915 1165 m 1,21,22
 910 1141 910 1141 896.5 1122.5 c 128,-1,23
 883 1104 883 1104 864 1091.5 c 128,-1,24
 845 1079 845 1079 823 1072 c 128,-1,25
 801 1065 801 1065 780 1065 c 0,26,27
 750 1065 750 1065 723.5 1076.5 c 128,-1,28
 697 1088 697 1088 677.5 1109.5 c 128,-1,29
 658 1131 658 1131 646.5 1161.5 c 128,-1,30
 635 1192 635 1192 635 1230 c 0,31,32
 635 1322 635 1322 678.5 1412 c 128,-1,33
 722 1502 722 1502 810 1585 c 1,34,-1
 910 1545 l 1,35,36
 888 1523 888 1523 864.5 1491 c 128,-1,37
 841 1459 841 1459 821 1421.5 c 128,-1,38
 801 1384 801 1384 788 1343.5 c 128,-1,39
 775 1303 775 1303 775 1265 c 1,40,-1
 915 1265 l 1,41,-1
 915 1165 l 1,21,22
EndSplineSet
EndChar

StartChar: quotedblright
Encoding: 8221 8221 181
Width: 1010
Flags: W
LayerCount: 2
Fore
SplineSet
635 1485 m 1,0,1
 640 1509 640 1509 653.5 1527.5 c 128,-1,2
 667 1546 667 1546 686 1558.5 c 128,-1,3
 705 1571 705 1571 727 1578 c 128,-1,4
 749 1585 749 1585 770 1585 c 0,5,6
 800 1585 800 1585 826.5 1573.5 c 128,-1,7
 853 1562 853 1562 872.5 1540.5 c 128,-1,8
 892 1519 892 1519 903.5 1488.5 c 128,-1,9
 915 1458 915 1458 915 1420 c 0,10,11
 915 1328 915 1328 871.5 1238 c 128,-1,12
 828 1148 828 1148 740 1065 c 1,13,-1
 640 1105 l 1,14,15
 662 1127 662 1127 685.5 1159 c 128,-1,16
 709 1191 709 1191 729 1228.5 c 128,-1,17
 749 1266 749 1266 762 1306.5 c 128,-1,18
 775 1347 775 1347 775 1385 c 1,19,-1
 635 1385 l 1,20,-1
 635 1485 l 1,0,1
205 1485 m 1,21,22
 210 1509 210 1509 223.5 1527.5 c 128,-1,23
 237 1546 237 1546 256 1558.5 c 128,-1,24
 275 1571 275 1571 297 1578 c 128,-1,25
 319 1585 319 1585 340 1585 c 0,26,27
 370 1585 370 1585 396.5 1573.5 c 128,-1,28
 423 1562 423 1562 442.5 1540.5 c 128,-1,29
 462 1519 462 1519 473.5 1488.5 c 128,-1,30
 485 1458 485 1458 485 1420 c 0,31,32
 485 1328 485 1328 441.5 1238 c 128,-1,33
 398 1148 398 1148 310 1065 c 1,34,-1
 210 1105 l 1,35,36
 232 1127 232 1127 255.5 1159 c 128,-1,37
 279 1191 279 1191 299 1228.5 c 128,-1,38
 319 1266 319 1266 332 1306.5 c 128,-1,39
 345 1347 345 1347 345 1385 c 1,40,-1
 205 1385 l 1,41,-1
 205 1485 l 1,21,22
EndSplineSet
EndChar

StartChar: quoteleft
Encoding: 8216 8216 182
Width: 530
Flags: W
LayerCount: 2
Fore
SplineSet
435 1165 m 1,0,1
 430 1141 430 1141 416.5 1122.5 c 128,-1,2
 403 1104 403 1104 384 1091.5 c 128,-1,3
 365 1079 365 1079 343 1072 c 128,-1,4
 321 1065 321 1065 300 1065 c 0,5,6
 270 1065 270 1065 243.5 1076.5 c 128,-1,7
 217 1088 217 1088 197.5 1109.5 c 128,-1,8
 178 1131 178 1131 166.5 1161.5 c 128,-1,9
 155 1192 155 1192 155 1230 c 0,10,11
 155 1322 155 1322 198.5 1412 c 128,-1,12
 242 1502 242 1502 330 1585 c 1,13,-1
 430 1545 l 1,14,15
 408 1523 408 1523 384.5 1491 c 128,-1,16
 361 1459 361 1459 341 1421.5 c 128,-1,17
 321 1384 321 1384 308 1343.5 c 128,-1,18
 295 1303 295 1303 295 1265 c 1,19,-1
 435 1265 l 1,20,-1
 435 1165 l 1,0,1
EndSplineSet
EndChar

StartChar: quoteright
Encoding: 8217 8217 183
Width: 545
Flags: W
LayerCount: 2
Fore
SplineSet
165 1485 m 1,0,1
 170 1509 170 1509 183.5 1527.5 c 128,-1,2
 197 1546 197 1546 216 1558.5 c 128,-1,3
 235 1571 235 1571 257 1578 c 128,-1,4
 279 1585 279 1585 300 1585 c 0,5,6
 330 1585 330 1585 356.5 1573.5 c 128,-1,7
 383 1562 383 1562 402.5 1540.5 c 128,-1,8
 422 1519 422 1519 433.5 1488.5 c 128,-1,9
 445 1458 445 1458 445 1420 c 0,10,11
 445 1328 445 1328 401.5 1238 c 128,-1,12
 358 1148 358 1148 270 1065 c 1,13,-1
 170 1105 l 1,14,15
 192 1127 192 1127 215.5 1159 c 128,-1,16
 239 1191 239 1191 259 1228.5 c 128,-1,17
 279 1266 279 1266 292 1306.5 c 128,-1,18
 305 1347 305 1347 305 1385 c 1,19,-1
 165 1385 l 1,20,-1
 165 1485 l 1,0,1
EndSplineSet
EndChar

StartChar: divide
Encoding: 247 247 184
Width: 1200
Flags: W
LayerCount: 2
Fore
SplineSet
155 800 m 1,0,-1
 1045 800 l 1,1,-1
 1045 650 l 1,2,-1
 155 650 l 1,3,-1
 155 800 l 1,0,-1
458 1045 m 0,4,5
 458 1073 458 1073 469.5 1098.5 c 128,-1,6
 481 1124 481 1124 500.5 1143 c 128,-1,7
 520 1162 520 1162 545.5 1173 c 128,-1,8
 571 1184 571 1184 600 1184 c 0,9,10
 628 1184 628 1184 653 1173 c 128,-1,11
 678 1162 678 1162 697 1143 c 128,-1,12
 716 1124 716 1124 726.5 1098.5 c 128,-1,13
 737 1073 737 1073 737 1045 c 0,14,15
 737 1016 737 1016 726.5 991 c 128,-1,16
 716 966 716 966 697 947 c 128,-1,17
 678 928 678 928 653 917 c 128,-1,18
 628 906 628 906 600 906 c 0,19,20
 571 906 571 906 545.5 917 c 128,-1,21
 520 928 520 928 500.5 947 c 128,-1,22
 481 966 481 966 469.5 991 c 128,-1,23
 458 1016 458 1016 458 1045 c 0,4,5
458 407 m 0,24,25
 458 435 458 435 469.5 460.5 c 128,-1,26
 481 486 481 486 500.5 504.5 c 128,-1,27
 520 523 520 523 545.5 534 c 128,-1,28
 571 545 571 545 600 545 c 0,29,30
 628 545 628 545 653 534 c 128,-1,31
 678 523 678 523 697 504.5 c 128,-1,32
 716 486 716 486 726.5 460.5 c 128,-1,33
 737 435 737 435 737 407 c 0,34,35
 737 378 737 378 726.5 353 c 128,-1,36
 716 328 716 328 697 308.5 c 128,-1,37
 678 289 678 289 653 278 c 128,-1,38
 628 267 628 267 600 267 c 0,39,40
 571 267 571 267 545.5 278 c 128,-1,41
 520 289 520 289 500.5 308.5 c 128,-1,42
 481 328 481 328 469.5 353 c 128,-1,43
 458 378 458 378 458 407 c 0,24,25
EndSplineSet
EndChar

StartChar: lozenge
Encoding: 9674 9674 185
Width: 1025
Flags: W
LayerCount: 2
Fore
SplineSet
515 1455 m 1,0,-1
 190 825 l 1,1,-1
 515 145 l 1,2,-1
 835 825 l 1,3,-1
 515 1455 l 1,0,-1
575 0 m 1,4,-1
 450 0 l 1,5,-1
 35 825 l 1,6,-1
 450 1600 l 1,7,-1
 575 1600 l 1,8,-1
 995 825 l 1,9,-1
 575 0 l 1,4,-1
EndSplineSet
EndChar

StartChar: fraction
Encoding: 8260 8260 188
Width: 1200
Flags: W
LayerCount: 2
Fore
SplineSet
1190 1600 m 1,0,-1
 161 -245 l 1,1,-1
 10 -245 l 1,2,-1
 1040 1600 l 1,3,-1
 1190 1600 l 1,0,-1
EndSplineSet
EndChar

